{
.appVersion = "899";
classes = (
{
code = "Alphatonos Epsilontonos Etatonos Iotatonos Omicrontonos Upsilontonos Omegatonos uni1F0A uni1F0B uni1F0C uni1F0D uni1FBA uni1FBB uni1F1A uni1F1B uni1F1C uni1F1D uni1FC8 uni1FC9 uni1F2A uni1F2B uni1F2C uni1F2D uni1FCA uni1FCB uni1F3A uni1F3B uni1F3C uni1F3D uni1FDA uni1FDB uni1F4A uni1F4B uni1F4C uni1F4D uni1FF8 uni1FF9 uni1F5B uni1F5D uni1FEA uni1FEB uni1F6A uni1F6B uni1F6C uni1F6D uni1FFA uni1FFB";
name = case4;
},
{
code = "Alphatonos Epsilontonos Etatonos Iotatonos Omicrontonos Upsilontonos Omegatonos uni1F08 uni1F09 uni1F0A uni1F0B uni1F0C uni1F0D uni1F0E uni1F0F uni1F18 uni1F19 uni1F1A uni1F1B uni1F1C uni1F1D uni1F28 uni1F29 uni1F2A uni1F2B uni1F2C uni1F2D uni1F2E uni1F2F uni1F38 uni1F39 uni1F3A uni1F3B uni1F3C uni1F3D uni1F3E uni1F3F uni1F48 uni1F49 uni1F4A uni1F4B uni1F4C uni1F4D uni1F59 uni1F5B uni1F5D uni1F5F uni1F68 uni1F69 uni1F6A uni1F6B uni1F6C uni1F6D uni1F6E uni1F6F uni1F88 uni1F89 uni1F8A uni1F8B uni1F8C uni1F8D uni1F8E uni1F8F uni1F98 uni1F99 uni1F9A uni1F9B uni1F9C uni1F9D uni1F9E uni1F9F uni1FA8 uni1FA9 uni1FAA uni1FAB uni1FAC uni1FAD uni1FAE uni1FAF uni1FB8 uni1FB9 uni1FBA uni1FBB uni1FBC uni1FC8 uni1FC9 uni1FCA uni1FCB uni1FCC uni1FD8 uni1FD9 uni1FDA uni1FDB uni1FE8 uni1FE9 uni1FEA uni1FEB uni1FEC uni1FF8 uni1FF9 uni1FFA uni1FFB uni1FFC uni1FBC.ad uni1F88.ad uni1F89.ad uni1F8A.ad uni1F8B.ad uni1F8C.ad uni1F8D.ad uni1F8E.ad uni1F8F.ad uni1FCC.ad uni1F98.ad uni1F99.ad uni1F9A.ad uni1F9B.ad uni1F9C.ad uni1F9D.ad uni1F9E.ad uni1F9F.ad uni1FFC.ad uni1FA8.ad uni1FA9.ad uni1FAA.ad uni1FAB.ad uni1FAC.ad uni1FAD.ad uni1FAE.ad uni1FAF.ad";
name = case5;
},
{

glyphs = (
{
glyphname = exclam;
lastChange = "2016-06-05 15:23:08 +0000";
layers = (
{
background = {
paths = (
{
closed = 1;
nodes = (
"129 194 LINE",
"201 194 LINE",
"218 486 OFFCURVE",
"255 590 OFFCURVE",
"284 676 CURVE",
"262 701 OFFCURVE",
"225 715 OFFCURVE",
"195 715 CURVE SMOOTH",
"149 715 OFFCURVE",
"123 688 OFFCURVE",
"121 644 CURVE SMOOTH",
"120 614 OFFCURVE",
"119 583 OFFCURVE",
"120 533 CURVE SMOOTH"
);
},
{
closed = 1;
nodes = (
"75 11 OFFCURVE",
"109 -15 OFFCURVE",
"161 -15 CURVE SMOOTH",
"213 -15 OFFCURVE",
"253 12 OFFCURVE",
"253 62 CURVE SMOOTH",
"253 110 OFFCURVE",
"219 142 OFFCURVE",
"167 142 CURVE SMOOTH",
"115 142 OFFCURVE",
"75 110 OFFCURVE",
"75 61 CURVE SMOOTH"
);
}
);
};
hints = (
{
place = "{75, 178}";
},
{
place = "{124, 77}";
},
{
horizontal = 1;
place = "{-15, 157}";
},
{
horizontal = 1;
place = "{715, -20}";
target = down;
type = TopGhost;
}
);
layerId = UUID0;
paths = (
{
closed = 1;
nodes = (
"129 194 LINE",
"201 194 LINE",
"218 486 OFFCURVE",
"255 590 OFFCURVE",
"284 676 CURVE",
"262 701 OFFCURVE",
"225 715 OFFCURVE",
"195 715 CURVE SMOOTH",
"149 715 OFFCURVE",
"123 688 OFFCURVE",
"121 644 CURVE SMOOTH",
"120 614 OFFCURVE",
"119 583 OFFCURVE",
"120 533 CURVE SMOOTH"
);
},
{
closed = 1;
nodes = (
"75 11 OFFCURVE",
"109 -15 OFFCURVE",
"161 -15 CURVE SMOOTH",
"213 -15 OFFCURVE",
"253 12 OFFCURVE",
"253 62 CURVE SMOOTH",
"253 110 OFFCURVE",
"219 142 OFFCURVE",
"167 142 CURVE SMOOTH",
"115 142 OFFCURVE",
"75 110 OFFCURVE",
"75 61 CURVE SMOOTH"
);
}
);
width = 344;
}
);
unicode = 0021;
},
{
glyphname = quotedbl;
lastChange = "2016-06-05 15:23:08 +0000";
layers = (
{
background = {
paths = (
{
closed = 1;
nodes = (
"212 714 LINE SMOOTH",
"215 725 OFFCURVE",
"216 733 OFFCURVE",
"216 740 CURVE SMOOTH",
"217 763 OFFCURVE",
"197 780 OFFCURVE",
"167 780 CURVE SMOOTH",
"127 780 OFFCURVE",
"102 753 OFFCURVE",
"101 724 CURVE SMOOTH",
"100 718 OFFCURVE",
"100 712 OFFCURVE",
"101 705 CURVE SMOOTH",
"126 547 LINE",
"173 547 LINE"
);
},
{
closed = 1;
nodes = (
"364 714 LINE SMOOTH",
"367 725 OFFCURVE",
"368 733 OFFCURVE",
"368 740 CURVE SMOOTH",
"369 763 OFFCURVE",
"349 780 OFFCURVE",
"319 780 CURVE SMOOTH",
"279 780 OFFCURVE",
"254 753 OFFCURVE",
"253 724 CURVE SMOOTH",
"252 718 OFFCURVE",
"252 712 OFFCURVE",
"253 705 CURVE SMOOTH",
"278 547 LINE",
"325 547 LINE"
);
}
);
};
components = (
{
name = quotesingle;
},
{
name = quotesingle;
transform = "{1, 0, 0, 1, 152, 0}";
}
);
layerId = UUID0;
width = 401;
}
);
leftKerningGroup = quotesingle;
rightKerningGroup = quotesingle;
unicode = 0022;
},
{
glyphname = numbersign;
lastChange = "2016-06-05 15:23:08 +0000";
layers = (
{
background = {
paths = (
{
closed = 1;
nodes = (
"221 0 LINE",
"247 136 LINE",
"402 136 LINE",
"376 0 LINE",
"460 0 LINE",
"486 136 LINE",
"595 136 LINE",
"608 201 LINE",
"498 201 LINE",
"529 363 LINE",
"632 363 LINE",
"645 429 LINE",
"540 429 LINE",
"563 550 LINE",
"478 550 LINE",
"456 429 LINE",
"302 429 LINE",
"325 550 LINE",
"241 550 LINE",
"218 429 LINE",
"105 429 LINE",
"91 363 LINE",
"206 363 LINE",
"175 201 LINE",
"64 201 LINE",
"49 136 LINE",
"162 136 LINE",
"137 0 LINE"
);
},
{
closed = 1;
nodes = (
"445 363 LINE",
"414 201 LINE",
"259 201 LINE",
"289 363 LINE"
);
}
);
};
hints = (
{
horizontal = 1;
place = "{136, 65}";
},
{
horizontal = 1;
place = "{363, 66}";
},
{
horizontal = 1;
place = "{363, 187}";
},
{
horizontal = 1;
place = "{0, 21}";
target = up;
type = BottomGhost;
}
);
layerId = UUID0;
paths = (
{
closed = 1;
nodes = (
"221 0 LINE",
"247 136 LINE",
"402 136 LINE",
"376 0 LINE",
"460 0 LINE",
"486 136 LINE",
"595 136 LINE",
"608 201 LINE",
"498 201 LINE",
"529 363 LINE",
"632 363 LINE",
"645 429 LINE",
"540 429 LINE",
"563 550 LINE",
"478 550 LINE",
"456 429 LINE",
"302 429 LINE",
"325 550 LINE",
"241 550 LINE",
"218 429 LINE",
"105 429 LINE",
"91 363 LINE",
"206 363 LINE",
"175 201 LINE",
"64 201 LINE",
"49 136 LINE",
"162 136 LINE",
"137 0 LINE"
);
},
{
closed = 1;
nodes = (
"445 363 LINE",
"414 201 LINE",
"259 201 LINE",
"289 363 LINE"
);
}
);
width = 674;
}
);
unicode = 0023;
},
{
glyphname = dollar;
lastChange = "2016-06-05 15:23:08 +0000";
layers = (
{
background = {
paths = (
{
closed = 1;
nodes = (
"470 276 OFFCURVE",
"365 310 OFFCURVE",
"278 342 CURVE",
"284 511 LINE",
"349 509 OFFCURVE",
"360 483 OFFCURVE",
"347 448 CURVE SMOOTH",
"335 413 LINE",
"346 402 OFFCURVE",
"366 394 OFFCURVE",
"395 394 CURVE SMOOTH",
"432 394 OFFCURVE",
"460 418 OFFCURVE",
"460 454 CURVE SMOOTH",
"460 523 OFFCURVE",
"394 565 OFFCURVE",
"286 568 CURVE",
"289 638 LINE",
"240 638 LINE",
"237 566 LINE",
"106 553 OFFCURVE",
"58 475 OFFCURVE",
"58 403 CURVE SMOOTH",
"58 301 OFFCURVE",
"146 266 OFFCURVE",
"226 237 CURVE",
"219 45 LINE",
"146 47 OFFCURVE",
"147 80 OFFCURVE",
"156 112 CURVE SMOOTH",
"163 138 LINE",
"151 152 OFFCURVE",
"132 163 OFFCURVE",
"100 163 CURVE SMOOTH",
"53 163 OFFCURVE",
"31 134 OFFCURVE",
"31 96 CURVE SMOOTH",
"31 43 OFFCURVE",
"83 -11 OFFCURVE",
"217 -14 CURVE",
"215 -75 LINE",
"264 -75 LINE",
"266 -12 LINE",
"383 0 OFFCURVE",
"470 68 OFFCURVE",
"470 167 CURVE SMOOTH"
);
},
{
closed = 1;
nodes = (
"354 87 OFFCURVE",
"320 57 OFFCURVE",
"268 48 CURVE",
"274 219 LINE",
"319 200 OFFCURVE",
"354 179 OFFCURVE",
"354 140 CURVE SMOOTH"
);
},
{
closed = 1;
nodes = (
"163 473 OFFCURVE",
"188 498 OFFCURVE",
"235 507 CURVE",
"230 361 LINE",
"191 379 OFFCURVE",
"163 400 OFFCURVE",
"163 434 CURVE SMOOTH"
);
}
);
};
hints = (
{
place = "{31, 132}";
},
{
place = "{58, 105}";
},
{
place = "{227, 49}";
},
{
place = "{354, 116}";
},
{
horizontal = 1;
place = "{-14, 59}";
},
{
horizontal = 1;
place = "{394, 174}";
},
{
horizontal = 1;
place = "{511, 57}";
},
{
horizontal = 1;
place = "{-14, 177}";
},
{
horizontal = 1;
place = "{-75, 21}";
target = up;
type = BottomGhost;
},
{
horizontal = 1;
place = "{638, -20}";
target = down;
type = TopGhost;
}
);
layerId = UUID0;
paths = (
{
closed = 1;
nodes = (
"470 276 OFFCURVE",
"365 310 OFFCURVE",
"278 342 CURVE",
"284 511 LINE",
"349 509 OFFCURVE",
"360 483 OFFCURVE",
"347 448 CURVE SMOOTH",
"335 413 LINE",
"346 402 OFFCURVE",
"366 394 OFFCURVE",
"395 394 CURVE SMOOTH",
"432 394 OFFCURVE",
"460 418 OFFCURVE",
"460 454 CURVE SMOOTH",
"460 523 OFFCURVE",
"394 565 OFFCURVE",
"286 568 CURVE",
"289 638 LINE",
"240 638 LINE",
"237 566 LINE",
"106 553 OFFCURVE",
"58 475 OFFCURVE",
"58 403 CURVE SMOOTH",
"58 301 OFFCURVE",
"146 266 OFFCURVE",
"226 237 CURVE",
"219 45 LINE",
"146 47 OFFCURVE",
"147 80 OFFCURVE",
"156 112 CURVE SMOOTH",
"163 138 LINE",
"151 152 OFFCURVE",
"132 163 OFFCURVE",
"100 163 CURVE SMOOTH",
"53 163 OFFCURVE",
"31 134 OFFCURVE",
"31 96 CURVE SMOOTH",
"31 43 OFFCURVE",
"83 -11 OFFCURVE",
"217 -14 CURVE",
"215 -75 LINE",
"264 -75 LINE",
"266 -12 LINE",
"383 0 OFFCURVE",
"470 68 OFFCURVE",
"470 167 CURVE SMOOTH"
);
},
{
closed = 1;
nodes = (
"354 87 OFFCURVE",
"320 57 OFFCURVE",
"268 48 CURVE",
"274 219 LINE",
"319 200 OFFCURVE",
"354 179 OFFCURVE",
"354 140 CURVE SMOOTH"
);
},
{
closed = 1;
nodes = (
"163 473 OFFCURVE",
"188 498 OFFCURVE",
"235 507 CURVE",
"230 361 LINE",
"191 379 OFFCURVE",
"163 400 OFFCURVE",
"163 434 CURVE SMOOTH"
);
}
);
width = 498;
}
);
unicode = 0024;
},
{
glyphname = percent;
lastChange = "2016-06-05 15:23:08 +0000";
layers = (
{
background = {
paths = (
{
closed = 1;
nodes = (
"178 -11 LINE",
"256 -11 LINE",
"637 597 LINE",
"560 597 LINE"
);
},
{
closed = 1;
nodes = (
"45 339 OFFCURVE",
"97 274 OFFCURVE",
"187 274 CURVE SMOOTH",
"272 274 OFFCURVE",
"343 333 OFFCURVE",
"343 443 CURVE SMOOTH",
"343 551 OFFCURVE",
"275 597 OFFCURVE",
"203 597 CURVE SMOOTH",
"125 597 OFFCURVE",
"45 553 OFFCURVE",
"45 429 CURVE SMOOTH"
);
},
{
closed = 1;
nodes = (
"134 511 OFFCURVE",
"157 539 OFFCURVE",
"194 539 CURVE SMOOTH",
"237 539 OFFCURVE",
"252 506 OFFCURVE",
"252 442 CURVE SMOOTH",
"252 362 OFFCURVE",
"233 334 OFFCURVE",
"193 334 CURVE SMOOTH",
"149 334 OFFCURVE",
"134 372 OFFCURVE",
"134 433 CURVE SMOOTH"
);
},
{
closed = 1;
nodes = (
"469 51 OFFCURVE",
"521 -14 OFFCURVE",
"611 -14 CURVE SMOOTH",
"696 -14 OFFCURVE",
"767 45 OFFCURVE",
"767 155 CURVE SMOOTH",
"767 263 OFFCURVE",
"699 309 OFFCURVE",
"627 309 CURVE SMOOTH",
"549 309 OFFCURVE",
"469 265 OFFCURVE",
"469 141 CURVE SMOOTH"
);
},
{
closed = 1;
nodes = (
"558 223 OFFCURVE",
"581 251 OFFCURVE",
"618 251 CURVE SMOOTH",
"661 251 OFFCURVE",
"676 218 OFFCURVE",
"676 154 CURVE SMOOTH",
"676 74 OFFCURVE",
"657 46 OFFCURVE",
"617 46 CURVE SMOOTH",
"573 46 OFFCURVE",
"558 84 OFFCURVE",
"558 145 CURVE SMOOTH"
);
}
);
};
hints = (
{
place = "{45, 89}";
},
{
place = "{252, 91}";
},
{
place = "{469, 89}";
},
{
place = "{676, 91}";
},
{
horizontal = 1;
place = "{-14, 60}";
},
{
horizontal = 1;
place = "{251, 58}";
},
{
horizontal = 1;
place = "{274, 60}";
},
{
horizontal = 1;
place = "{539, 58}";
},
{
horizontal = 1;
place = "{-11, 21}";
target = up;
type = BottomGhost;
}
);
layerId = UUID0;
paths = (
{
closed = 1;
nodes = (
"178 -11 LINE",
"256 -11 LINE",
"637 597 LINE",
"560 597 LINE"
);
},
{
closed = 1;
nodes = (
"45 339 OFFCURVE",
"97 274 OFFCURVE",
"187 274 CURVE SMOOTH",
"272 274 OFFCURVE",
"343 333 OFFCURVE",
"343 443 CURVE SMOOTH",
"343 551 OFFCURVE",
"275 597 OFFCURVE",
"203 597 CURVE SMOOTH",
"125 597 OFFCURVE",
"45 553 OFFCURVE",
"45 429 CURVE SMOOTH"
);
},
{
closed = 1;
nodes = (
"134 511 OFFCURVE",
"157 539 OFFCURVE",
"194 539 CURVE SMOOTH",
"237 539 OFFCURVE",
"252 506 OFFCURVE",
"252 442 CURVE SMOOTH",
"252 362 OFFCURVE",
"233 334 OFFCURVE",
"193 334 CURVE SMOOTH",
"149 334 OFFCURVE",
"134 372 OFFCURVE",
"134 433 CURVE SMOOTH"
);
},
{
closed = 1;
nodes = (
"469 51 OFFCURVE",
"521 -14 OFFCURVE",
"611 -14 CURVE SMOOTH",
"696 -14 OFFCURVE",
"767 45 OFFCURVE",
"767 155 CURVE SMOOTH",
"767 263 OFFCURVE",
"699 309 OFFCURVE",
"627 309 CURVE SMOOTH",
"549 309 OFFCURVE",
"469 265 OFFCURVE",
"469 141 CURVE SMOOTH"
);
},
{
closed = 1;
nodes = (
"558 223 OFFCURVE",
"581 251 OFFCURVE",
"618 251 CURVE SMOOTH",
"661 251 OFFCURVE",
"676 218 OFFCURVE",
"676 154 CURVE SMOOTH",
"676 74 OFFCURVE",
"657 46 OFFCURVE",
"617 46 CURVE SMOOTH",
"573 46 OFFCURVE",
"558 84 OFFCURVE",
"558 145 CURVE SMOOTH"
);
}
);
width = 807;
}
);
unicode = 0025;
},
{
glyphname = ampersand;
lastChange = "2016-06-05 15:23:08 +0000";
layers = (
{
background = {
paths = (
{
closed = 1;
nodes = (
"535 -14 OFFCURVE",
"638 90 OFFCURVE",
"639 200 CURVE SMOOTH",
"639 244 OFFCURVE",
"624 279 OFFCURVE",
"585 324 CURVE",
"587 328 LINE",
"603 325 OFFCURVE",
"630 319 OFFCURVE",
"665 319 CURVE SMOOTH",
"722 319 OFFCURVE",
"765 346 OFFCURVE",
"765 407 CURVE SMOOTH",
"765 451 OFFCURVE",
"740 483 OFFCURVE",
"687 483 CURVE SMOOTH",
"669 483 OFFCURVE",
"649 478 OFFCURVE",
"629 465 CURVE",
"646 417 LINE SMOOTH",
"658 384 OFFCURVE",
"646 371 OFFCURVE",
"609 374 CURVE SMOOTH",
"540 380 LINE",
"507 331 LINE",
"530 284 OFFCURVE",
"536 241 OFFCURVE",
"536 208 CURVE SMOOTH",
"536 102 OFFCURVE",
"454 51 OFFCURVE",
"355 51 CURVE SMOOTH",
"260 51 OFFCURVE",
"222 108 OFFCURVE",
"222 175 CURVE SMOOTH",
"222 258 OFFCURVE",
"286 328 OFFCURVE",
"427 337 CURVE",
"422 398 LINE",
"399 394 OFFCURVE",
"382 392 OFFCURVE",
"359 392 CURVE SMOOTH",
"287 392 OFFCURVE",
"240 427 OFFCURVE",
"240 506 CURVE SMOOTH",
"240 609 OFFCURVE",
"321 654 OFFCURVE",
"395 654 CURVE SMOOTH",
"469 654 OFFCURVE",
"492 621 OFFCURVE",
"466 579 CURVE SMOOTH",
"449 552 LINE",
"459 534 OFFCURVE",
"490 516 OFFCURVE",
"520 516 CURVE SMOOTH",
"570 516 OFFCURVE",
"598 552 OFFCURVE",
"598 589 CURVE SMOOTH",
"598 677 OFFCURVE",
"498 715 OFFCURVE",
"403 715 CURVE SMOOTH",
"219 715 OFFCURVE",
"103 617 OFFCURVE",
"103 494 CURVE SMOOTH",
"103 403 OFFCURVE",
"165 364 OFFCURVE",
"256 355 CURVE",
"255 347 LINE",
"154 319 OFFCURVE",
"85 260 OFFCURVE",
"85 159 CURVE SMOOTH",
"85 24 OFFCURVE",
"219 -14 OFFCURVE",
"336 -14 CURVE SMOOTH"
);
}
);
};
hints = (
{
place = "{85, 137}";
},
{
place = "{103, 119}";
},
{
place = "{536, 103}";
},
{
place = "{103, 137}";
},
{
horizontal = 1;
place = "{-14, 65}";
},
{
horizontal = 1;
place = "{319, 164}";
},
{
horizontal = 1;
place = "{337, 55}";
},
{
horizontal = 1;
place = "{516, 199}";
},
{
horizontal = 1;
place = "{654, 61}";
}
);
layerId = UUID0;
paths = (
{
closed = 1;
nodes = (
"535 -14 OFFCURVE",
"638 90 OFFCURVE",
"639 200 CURVE SMOOTH",
"639 244 OFFCURVE",
"624 279 OFFCURVE",
"585 324 CURVE",
"587 328 LINE",
"603 325 OFFCURVE",
"630 319 OFFCURVE",
"665 319 CURVE SMOOTH",
"722 319 OFFCURVE",
"765 346 OFFCURVE",
"765 407 CURVE SMOOTH",
"765 451 OFFCURVE",
"740 483 OFFCURVE",
"687 483 CURVE SMOOTH",
"669 483 OFFCURVE",
"649 478 OFFCURVE",
"629 465 CURVE",
"646 417 LINE SMOOTH",
"658 384 OFFCURVE",
"646 371 OFFCURVE",
"609 374 CURVE SMOOTH",
"540 380 LINE",
"507 331 LINE",
"530 284 OFFCURVE",
"536 241 OFFCURVE",
"536 208 CURVE SMOOTH",
"536 102 OFFCURVE",
"454 51 OFFCURVE",
"355 51 CURVE SMOOTH",
"260 51 OFFCURVE",
"222 108 OFFCURVE",
"222 175 CURVE SMOOTH",
"222 258 OFFCURVE",
"286 328 OFFCURVE",
"427 337 CURVE",
"422 398 LINE",
"399 394 OFFCURVE",
"382 392 OFFCURVE",
"359 392 CURVE SMOOTH",
"287 392 OFFCURVE",
"240 427 OFFCURVE",
"240 506 CURVE SMOOTH",
"240 609 OFFCURVE",
"321 654 OFFCURVE",
"395 654 CURVE SMOOTH",
"469 654 OFFCURVE",
"492 621 OFFCURVE",
"466 579 CURVE SMOOTH",
"449 552 LINE",
"459 534 OFFCURVE",
"490 516 OFFCURVE",
"520 516 CURVE SMOOTH",
"570 516 OFFCURVE",
"598 552 OFFCURVE",
"598 589 CURVE SMOOTH",
"598 677 OFFCURVE",
"498 715 OFFCURVE",
"403 715 CURVE SMOOTH",
"219 715 OFFCURVE",
"103 617 OFFCURVE",
"103 494 CURVE SMOOTH",
"103 403 OFFCURVE",
"165 364 OFFCURVE",
"256 355 CURVE",
"255 347 LINE",
"154 319 OFFCURVE",
"85 260 OFFCURVE",
"85 159 CURVE SMOOTH",
"85 24 OFFCURVE",
"219 -14 OFFCURVE",
"336 -14 CURVE SMOOTH"
);
}
);
width = 795;
}
);
unicode = 0026;
},
{
glyphname = quotesingle;
lastChange = "2016-06-05 15:23:08 +0000";
layers = (
{
background = {
paths = (
{
closed = 1;
nodes = (
"212 714 LINE SMOOTH",
"215 725 OFFCURVE",
"216 733 OFFCURVE",
"216 740 CURVE SMOOTH",
"217 763 OFFCURVE",
"197 780 OFFCURVE",
"167 780 CURVE SMOOTH",
"127 780 OFFCURVE",
"102 753 OFFCURVE",
"101 724 CURVE SMOOTH",
"100 718 OFFCURVE",
"100 712 OFFCURVE",
"101 705 CURVE SMOOTH",
"126 547 LINE",
"173 547 LINE"
);
}
);
};
hints = (
{
horizontal = 1;
place = "{780, -20}";
target = down;
type = TopGhost;
},
{
horizontal = 1;
place = "{547, 21}";
target = up;
type = BottomGhost;
}
);
layerId = UUID0;
paths = (
{
closed = 1;
nodes = (
"212 714 LINE SMOOTH",
"215 725 OFFCURVE",
"216 733 OFFCURVE",
"216 740 CURVE SMOOTH",
"217 763 OFFCURVE",
"197 780 OFFCURVE",
"167 780 CURVE SMOOTH",
"127 780 OFFCURVE",
"102 753 OFFCURVE",
"101 724 CURVE SMOOTH",
"100 718 OFFCURVE",
"100 712 OFFCURVE",
"101 705 CURVE SMOOTH",
"126 547 LINE",
"173 547 LINE"
);
}
);
width = 250;
}
);
leftKerningGroup = quotesingle;
rightKerningGroup = quotesingle;
unicode = 0027;
},
{
glyphname = asterisk;
lastChange = "2016-06-05 15:23:08 +0000";
layers = (
{
background = {
paths = (
{
closed = 1;
nodes = (
"156 711 LINE",
"122 707 OFFCURVE",
"101 687 OFFCURVE",
"101 668 CURVE SMOOTH",
"101 651 OFFCURVE",
"107 641 OFFCURVE",
"132 631 CURVE SMOOTH",
"215 599 LINE",
"96 563 LINE",
"93 554 OFFCURVE",
"91 535 OFFCURVE",
"91 528 CURVE SMOOTH",
"91 485 OFFCURVE",
"138 487 OFFCURVE",
"157 503 CURVE SMOOTH",
"233 565 LINE",
"203 444 LINE",
"213 427 OFFCURVE",
"236 417 OFFCURVE",
"252 417 CURVE SMOOTH",
"276 417 OFFCURVE",
"289 437 OFFCURVE",
"286 463 CURVE SMOOTH",
"274 562 LINE",
"358 476 LINE",
"389 479 OFFCURVE",
"411 496 OFFCURVE",
"411 518 CURVE SMOOTH",
"411 533 OFFCURVE",
"405 547 OFFCURVE",
"384 556 CURVE SMOOTH",
"296 596 LINE",
"413 633 LINE",
"417 644 OFFCURVE",
"418 661 OFFCURVE",
"418 669 CURVE SMOOTH",
"418 707 OFFCURVE",
"385 711 OFFCURVE",
"362 694 CURVE SMOOTH",
"279 632 LINE",
"310 763 LINE",
"299 774 OFFCURVE",
"277 782 OFFCURVE",
"264 782 CURVE SMOOTH",
"238 782 OFFCURVE",
"224 766 OFFCURVE",
"228 727 CURVE SMOOTH",
"237 632 LINE"
);
}
);
};
hints = (
{
horizontal = 1;
place = "{417, 21}";
target = up;
type = BottomGhost;
},
{
horizontal = 1;
place = "{782, -20}";
target = down;
type = TopGhost;
}
);
layerId = UUID0;
paths = (
{
closed = 1;
nodes = (
"156 711 LINE",
"122 707 OFFCURVE",
"101 687 OFFCURVE",
"101 668 CURVE SMOOTH",
"101 651 OFFCURVE",
"107 641 OFFCURVE",
"132 631 CURVE SMOOTH",
"215 599 LINE",
"96 563 LINE",
"93 554 OFFCURVE",
"91 535 OFFCURVE",
"91 528 CURVE SMOOTH",
"91 485 OFFCURVE",
"138 487 OFFCURVE",
"157 503 CURVE SMOOTH",
"233 565 LINE",
"203 444 LINE",
"213 427 OFFCURVE",
"236 417 OFFCURVE",
"252 417 CURVE SMOOTH",
"276 417 OFFCURVE",
"289 437 OFFCURVE",
"286 463 CURVE SMOOTH",
"274 562 LINE",
"358 476 LINE",
"389 479 OFFCURVE",
"411 496 OFFCURVE",
"411 518 CURVE SMOOTH",
"411 533 OFFCURVE",
"405 547 OFFCURVE",
"384 556 CURVE SMOOTH",
"296 596 LINE",
"413 633 LINE",
"417 644 OFFCURVE",
"418 661 OFFCURVE",
"418 669 CURVE SMOOTH",
"418 707 OFFCURVE",
"385 711 OFFCURVE",
"362 694 CURVE SMOOTH",
"279 632 LINE",
"310 763 LINE",
"299 774 OFFCURVE",
"277 782 OFFCURVE",
"264 782 CURVE SMOOTH",
"238 782 OFFCURVE",
"224 766 OFFCURVE",
"228 727 CURVE SMOOTH",
"237 632 LINE"
);
}
);
width = 473;
}
);
unicode = 002A;
},
{
glyphname = plus;
lastChange = "2016-06-05 15:23:08 +0000";
layers = (
{
background = {
paths = (
{
closed = 1;
nodes = (
"520 265 LINE",
"524 354 LINE",
"352 354 LINE",
"359 533 LINE",
"257 533 LINE",
"250 354 LINE",
"78 354 LINE",
"74 265 LINE",
"246 265 LINE",
"238 81 LINE",
"340 81 LINE",
"348 265 LINE"
);
}
);
};
hints = (
{
place = "{242, 102}";
},
{
horizontal = 1;
place = "{265, 89}";
},
{
horizontal = 1;
place = "{533, -20}";
target = down;
type = TopGhost;
},
{
horizontal = 1;
place = "{81, 21}";
target = up;
type = BottomGhost;
}
);
layerId = UUID0;
paths = (
{
closed = 1;
nodes = (
"520 265 LINE",
"524 354 LINE",
"352 354 LINE",
"359 533 LINE",
"257 533 LINE",
"250 354 LINE",
"78 354 LINE",
"74 265 LINE",
"246 265 LINE",
"238 81 LINE",
"340 81 LINE",
"348 265 LINE"
);
}
);
width = 582;
}
);
unicode = 002B;
},
{
glyphname = comma;
lastChange = "2016-06-05 15:23:08 +0000";
layers = (
{
background = {
paths = (
{
closed = 1;
nodes = (
"36 -119 LINE",
"74 -93 OFFCURVE",
"129 -52 OFFCURVE",
"129 -14 CURVE SMOOTH",
"129 -2 OFFCURVE",
"123 10 OFFCURVE",
"103 16 CURVE SMOOTH",
"66 29 LINE",
"49 72 OFFCURVE",
"66 149 OFFCURVE",
"145 149 CURVE SMOOTH",
"210 149 OFFCURVE",
"239 102 OFFCURVE",
"239 51 CURVE SMOOTH",
"239 -13 OFFCURVE",
"183 -102 OFFCURVE",
"75 -168 CURVE"
);
}
);
};
hints = (
{
place = "{129, 110}";
},
{
horizontal = 1;
place = "{-168, 21}";
target = up;
type = BottomGhost;
},
{
horizontal = 1;
place = "{149, -20}";
target = down;
type = TopGhost;
}
);
layerId = UUID0;
paths = (
{
closed = 1;
nodes = (
"36 -119 LINE",
"74 -93 OFFCURVE",
"129 -52 OFFCURVE",
"129 -14 CURVE SMOOTH",
"129 -2 OFFCURVE",
"123 10 OFFCURVE",
"103 16 CURVE SMOOTH",
"66 29 LINE",
"49 72 OFFCURVE",
"66 149 OFFCURVE",
"145 149 CURVE SMOOTH",
"210 149 OFFCURVE",
"239 102 OFFCURVE",
"239 51 CURVE SMOOTH",
"239 -13 OFFCURVE",
"183 -102 OFFCURVE",
"75 -168 CURVE"
);
}
);
width = 292;
}
);
leftKerningGroup = period;
rightKerningGroup = period;
unicode = 002C;
},
{
glyphname = hyphen;
lastChange = "2016-06-05 15:23:08 +0000";
layers = (
{
background = {
paths = (
{
closed = 1;
nodes = (
"51 231 LINE",
"318 231 LINE",
"322 333 LINE",
"55 333 LINE"
);
}
);
};
hints = (
{
horizontal = 1;
place = "{231, 102}";
}
);
layerId = UUID0;
paths = (
{
closed = 1;
nodes = (
"51 231 LINE",
"318 231 LINE",
"322 333 LINE",
"55 333 LINE"
);
}
);
width = 354;
}
);
leftKerningGroup = hyphen;
rightKerningGroup = hyphen;
unicode = 002D;
},
{
glyphname = period;
lastChange = "2016-06-05 15:23:08 +0000";
layers = (
{
background = {
paths = (
{
closed = 1;
nodes = (
"62 12 OFFCURVE",
"98 -15 OFFCURVE",
"152 -15 CURVE SMOOTH",
"206 -15 OFFCURVE",
"248 13 OFFCURVE",
"248 66 CURVE SMOOTH",
"248 116 OFFCURVE",
"212 150 OFFCURVE",
"158 150 CURVE SMOOTH",
"104 150 OFFCURVE",
"62 116 OFFCURVE",
"62 65 CURVE SMOOTH"
);
}
);
};
hints = (
{
place = "{62, 186}";
},
{
horizontal = 1;
place = "{-15, 165}";
}
);
layerId = UUID0;
paths = (
{
closed = 1;
nodes = (
"62 12 OFFCURVE",
"98 -15 OFFCURVE",
"152 -15 CURVE SMOOTH",
"206 -15 OFFCURVE",
"248 13 OFFCURVE",
"248 66 CURVE SMOOTH",
"248 116 OFFCURVE",
"212 150 OFFCURVE",
"158 150 CURVE SMOOTH",
"104 150 OFFCURVE",
"62 116 OFFCURVE",
"62 65 CURVE SMOOTH"
);
}
);
width = 296;
}
);
leftKerningGroup = period;
rightKerningGroup = period;
unicode = 002E;
},
{
glyphname = slash;
lastChange = "2016-06-05 15:23:08 +0000";
layers = (
{
background = {
paths = (
{
closed = 1;
nodes = (
"6 -110 LINE",
"88 -110 LINE",
"444 802 LINE",
"363 802 LINE"
);
}
);
};
hints = (
{
horizontal = 1;
place = "{-110, 21}";
target = up;
type = BottomGhost;
},
{
horizontal = 1;
place = "{802, -20}";
target = down;
type = TopGhost;
}
);
layerId = UUID0;
paths = (
{
closed = 1;
nodes = (
"6 -110 LINE",
"88 -110 LINE",
"444 802 LINE",
"363 802 LINE"
);
}
);
width = 428;
}
);
unicode = 002F;
},
{
glyphname = zero;
lastChange = "2016-06-05 15:23:08 +0000";
layers = (
{
background = {
paths = (
{
closed = 1;
nodes = (
"40 88 OFFCURVE",
"124 -14 OFFCURVE",
"290 -14 CURVE SMOOTH",
"488 -14 OFFCURVE",
"568 140 OFFCURVE",
"568 303 CURVE SMOOTH",
"568 502 OFFCURVE",
"450 568 OFFCURVE",
"320 568 CURVE SMOOTH",
"128 568 OFFCURVE",
"40 426 OFFCURVE",
"40 260 CURVE SMOOTH"
);
},
{
closed = 1;
nodes = (
"384 500 OFFCURVE",
"431 451 OFFCURVE",
"431 298 CURVE SMOOTH",
"431 162 OFFCURVE",
"405 53 OFFCURVE",
"296 53 CURVE SMOOTH",
"213 53 OFFCURVE",
"177 124 OFFCURVE",
"177 259 CURVE SMOOTH",
"177 398 OFFCURVE",
"212 500 OFFCURVE",
"315 500 CURVE SMOOTH"
);
}
);
};
hints = (
{
place = "{40, 137}";
},
{
place = "{431, 137}";
},
{
horizontal = 1;
place = "{-14, 67}";
},
{
horizontal = 1;
place = "{500, 68}";
}
);
layerId = UUID0;
paths = (
{
closed = 1;
nodes = (
"40 88 OFFCURVE",
"124 -14 OFFCURVE",
"290 -14 CURVE SMOOTH",
"488 -14 OFFCURVE",
"568 140 OFFCURVE",
"568 303 CURVE SMOOTH",
"568 502 OFFCURVE",
"450 568 OFFCURVE",
"320 568 CURVE SMOOTH",
"128 568 OFFCURVE",
"40 426 OFFCURVE",
"40 260 CURVE SMOOTH"
);
},
{
closed = 1;
nodes = (
"384 500 OFFCURVE",
"431 451 OFFCURVE",
"431 298 CURVE SMOOTH",
"431 162 OFFCURVE",
"405 53 OFFCURVE",
"296 53 CURVE SMOOTH",
"213 53 OFFCURVE",
"177 124 OFFCURVE",
"177 259 CURVE SMOOTH",
"177 398 OFFCURVE",
"212 500 OFFCURVE",
"315 500 CURVE SMOOTH"
);
}
);
width = 600;
}
);
unicode = 0030;
},
{
glyphname = one;
lastChange = "2016-06-05 15:23:08 +0000";
layers = (
{
background = {
paths = (
{
closed = 1;
nodes = (
"162 70 LINE",
"46 54 LINE",
"40 0 LINE",
"390 0 LINE",
"396 55 LINE",
"287 71 LINE",
"306 557 LINE",
"289 567 LINE",
"58 542 LINE",
"51 483 LINE",
"178 483 LINE"
);
}
);
};
hints = (
{
place = "{170, 126}";
},
{
horizontal = 1;
place = "{0, 21}";
target = up;
type = BottomGhost;
},
{
horizontal = 1;
place = "{567, -20}";
target = down;
type = TopGhost;
}
);
layerId = UUID0;
paths = (
{
closed = 1;
nodes = (
"162 70 LINE",
"46 54 LINE",
"40 0 LINE",
"390 0 LINE",
"396 55 LINE",
"287 71 LINE",
"306 557 LINE",
"289 567 LINE",
"58 542 LINE",
"51 483 LINE",
"178 483 LINE"
);
}
);
width = 419;
}
);
unicode = 0031;
},
{
glyphname = two;
lastChange = "2016-06-05 15:23:08 +0000";
layers = (
{
background = {
paths = (
{
closed = 1;
nodes = (
"55 379 OFFCURVE",
"81 356 OFFCURVE",
"122 356 CURVE SMOOTH",
"163 356 OFFCURVE",
"187 382 OFFCURVE",
"198 409 CURVE",
"175 436 LINE SMOOTH",
"144 472 OFFCURVE",
"162 508 OFFCURVE",
"230 508 CURVE SMOOTH",
"301 508 OFFCURVE",
"340 473 OFFCURVE",
"340 404 CURVE SMOOTH",
"340 317 OFFCURVE",
"292 255 OFFCURVE",
"205 190 CURVE SMOOTH",
"161 157 OFFCURVE",
"90 106 OFFCURVE",
"48 80 CURVE",
"44 0 LINE",
"484 0 LINE",
"511 202 LINE",
"452 202 LINE",
"424 111 OFFCURVE",
"405 93 OFFCURVE",
"319 93 CURVE SMOOTH",
"174 93 LINE",
"174 98 LINE",
"232 133 LINE SMOOTH",
"346 203 OFFCURVE",
"475 267 OFFCURVE",
"475 406 CURVE SMOOTH",
"475 505 OFFCURVE",
"403 568 OFFCURVE",
"257 568 CURVE SMOOTH",
"168 568 OFFCURVE",
"55 518 OFFCURVE",
"55 421 CURVE SMOOTH"
);
}
);
};
hints = (
{
place = "{340, 135}";
},
{
horizontal = 1;
place = "{0, 93}";
},
{
horizontal = 1;
place = "{508, 60}";
}
);
layerId = UUID0;
paths = (
{
closed = 1;
nodes = (
"55 379 OFFCURVE",
"81 356 OFFCURVE",
"122 356 CURVE SMOOTH",
"163 356 OFFCURVE",
"187 382 OFFCURVE",
"198 409 CURVE",
"175 436 LINE SMOOTH",
"144 472 OFFCURVE",
"162 508 OFFCURVE",
"230 508 CURVE SMOOTH",
"301 508 OFFCURVE",
"340 473 OFFCURVE",
"340 404 CURVE SMOOTH",
"340 317 OFFCURVE",
"292 255 OFFCURVE",
"205 190 CURVE SMOOTH",
"161 157 OFFCURVE",
"90 106 OFFCURVE",
"48 80 CURVE",
"44 0 LINE",
"484 0 LINE",
"511 202 LINE",
"452 202 LINE",
"424 111 OFFCURVE",
"405 93 OFFCURVE",
"319 93 CURVE SMOOTH",
"174 93 LINE",
"174 98 LINE",
"232 133 LINE SMOOTH",
"346 203 OFFCURVE",
"475 267 OFFCURVE",
"475 406 CURVE SMOOTH",
"475 505 OFFCURVE",
"403 568 OFFCURVE",
"257 568 CURVE SMOOTH",
"168 568 OFFCURVE",
"55 518 OFFCURVE",
"55 421 CURVE SMOOTH"
);
}
);
width = 550;
}
);
unicode = 0032;
},
{
glyphname = three;
lastChange = "2016-06-05 15:23:08 +0000";
layers = (
{
background = {
paths = (
{
closed = 1;
nodes = (
"470 521 OFFCURVE",
"371 568 OFFCURVE",
"253 568 CURVE SMOOTH",
"148 568 OFFCURVE",
"41 515 OFFCURVE",
"41 424 CURVE SMOOTH",
"41 386 OFFCURVE",
"63 356 OFFCURVE",
"105 356 CURVE SMOOTH",
"133 356 OFFCURVE",
"161 365 OFFCURVE",
"185 409 CURVE",
"164 433 LINE SMOOTH",
"126 476 OFFCURVE",
"151 508 OFFCURVE",
"224 508 CURVE SMOOTH",
"292 508 OFFCURVE",
"339 473 OFFCURVE",
"339 403 CURVE SMOOTH",
"339 327 OFFCURVE",
"297 248 OFFCURVE",
"158 232 CURVE",
"166 176 LINE",
"189 180 OFFCURVE",
"209 182 OFFCURVE",
"232 182 CURVE SMOOTH",
"291 182 OFFCURVE",
"352 160 OFFCURVE",
"352 66 CURVE SMOOTH",
"352 -37 OFFCURVE",
"301 -114 OFFCURVE",
"189 -114 CURVE SMOOTH",
"133 -114 OFFCURVE",
"114 -91 OFFCURVE",
"134 -57 CURVE SMOOTH",
"154 -22 LINE",
"143 -4 OFFCURVE",
"112 14 OFFCURVE",
"86 14 CURVE SMOOTH",
"31 14 OFFCURVE",
"10 -27 OFFCURVE",
"10 -64 CURVE SMOOTH",
"10 -152 OFFCURVE",
"109 -175 OFFCURVE",
"186 -175 CURVE SMOOTH",
"399 -175 OFFCURVE",
"496 -42 OFFCURVE",
"496 68 CURVE SMOOTH",
"496 176 OFFCURVE",
"433 213 OFFCURVE",
"334 225 CURVE",
"334 233 LINE",
"423 268 OFFCURVE",
"470 334 OFFCURVE",
"470 410 CURVE SMOOTH"
);
}
);
};
hints = (
{
place = "{339, 131}";
},
{
place = "{352, 118}";
},
{
place = "{352, 144}";
},
{
horizontal = 1;
place = "{-175, 61}";
},
{
horizontal = 1;
place = "{508, 60}";
},
{
horizontal = 1;
place = "{-175, 189}";
}
);
layerId = UUID0;
paths = (
{
closed = 1;
nodes = (
"470 521 OFFCURVE",
"371 568 OFFCURVE",
"253 568 CURVE SMOOTH",
"148 568 OFFCURVE",
"41 515 OFFCURVE",
"41 424 CURVE SMOOTH",
"41 386 OFFCURVE",
"63 356 OFFCURVE",
"105 356 CURVE SMOOTH",
"133 356 OFFCURVE",
"161 365 OFFCURVE",
"185 409 CURVE",
"164 433 LINE SMOOTH",
"126 476 OFFCURVE",
"151 508 OFFCURVE",
"224 508 CURVE SMOOTH",
"292 508 OFFCURVE",
"339 473 OFFCURVE",
"339 403 CURVE SMOOTH",
"339 327 OFFCURVE",
"297 248 OFFCURVE",
"158 232 CURVE",
"166 176 LINE",
"189 180 OFFCURVE",
"209 182 OFFCURVE",
"232 182 CURVE SMOOTH",
"291 182 OFFCURVE",
"352 160 OFFCURVE",
"352 66 CURVE SMOOTH",
"352 -37 OFFCURVE",
"301 -114 OFFCURVE",
"189 -114 CURVE SMOOTH",
"133 -114 OFFCURVE",
"114 -91 OFFCURVE",
"134 -57 CURVE SMOOTH",
"154 -22 LINE",
"143 -4 OFFCURVE",
"112 14 OFFCURVE",
"86 14 CURVE SMOOTH",
"31 14 OFFCURVE",
"10 -27 OFFCURVE",
"10 -64 CURVE SMOOTH",
"10 -152 OFFCURVE",
"109 -175 OFFCURVE",
"186 -175 CURVE SMOOTH",
"399 -175 OFFCURVE",
"496 -42 OFFCURVE",
"496 68 CURVE SMOOTH",
"496 176 OFFCURVE",
"433 213 OFFCURVE",
"334 225 CURVE",
"334 233 LINE",
"423 268 OFFCURVE",
"470 334 OFFCURVE",
"470 410 CURVE SMOOTH"
);
}
);
width = 530;
}
);
unicode = 0033;
},
{
glyphname = four;
lastChange = "2016-06-05 15:23:08 +0000";
layers = (
{
background = {
paths = (
{
closed = 1;
nodes = (
"346 531 OFFCURVE",
"305 568 OFFCURVE",
"249 568 CURVE SMOOTH",
"180 568 OFFCURVE",
"151 519 OFFCURVE",
"160 454 CURVE",
"196 445 LINE SMOOTH",
"227 437 OFFCURVE",
"236 422 OFFCURVE",
"236 389 CURVE SMOOTH",
"236 315 OFFCURVE",
"190 225 OFFCURVE",
"19 75 CURVE",
"27 0 LINE",
"371 0 LINE",
"365 -164 LINE",
"491 -164 LINE",
"497 0 LINE",
"585 0 LINE",
"591 93 LINE",
"499 93 LINE",
"513 411 LINE",
"496 420 LINE",
"388 394 LINE",
"373 93 LINE",
"122 93 LINE",
"295 243 OFFCURVE",
"346 356 OFFCURVE",
"346 464 CURVE SMOOTH"
);
}
);
};
hints = (
{
place = "{236, 110}";
},
{
place = "{368, 126}";
},
{
place = "{380, 126}";
},
{
horizontal = 1;
place = "{0, 93}";
},
{
horizontal = 1;
place = "{568, -20}";
target = down;
type = TopGhost;
},
{
horizontal = 1;
place = "{-164, 21}";
target = up;
type = BottomGhost;
}
);
layerId = UUID0;
paths = (
{
closed = 1;
nodes = (
"346 531 OFFCURVE",
"305 568 OFFCURVE",
"249 568 CURVE SMOOTH",
"180 568 OFFCURVE",
"151 519 OFFCURVE",
"160 454 CURVE",
"196 445 LINE SMOOTH",
"227 437 OFFCURVE",
"236 422 OFFCURVE",
"236 389 CURVE SMOOTH",
"236 315 OFFCURVE",
"190 225 OFFCURVE",
"19 75 CURVE",
"27 0 LINE",
"371 0 LINE",
"365 -164 LINE",
"491 -164 LINE",
"497 0 LINE",
"585 0 LINE",
"591 93 LINE",
"499 93 LINE",
"513 411 LINE",
"496 420 LINE",
"388 394 LINE",
"373 93 LINE",
"122 93 LINE",
"295 243 OFFCURVE",
"346 356 OFFCURVE",
"346 464 CURVE SMOOTH"
);
}
);
width = 611;
}
);
unicode = 0034;
},
{
glyphname = five;
lastChange = "2016-06-05 15:23:08 +0000";
layers = (
{
background = {
paths = (
{
closed = 1;
nodes = (
"352 -31 OFFCURVE",
"295 -114 OFFCURVE",
"183 -114 CURVE SMOOTH",
"124 -114 OFFCURVE",
"105 -91 OFFCURVE",
"130 -49 CURVE SMOOTH",
"146 -22 LINE",
"135 -4 OFFCURVE",
"102 14 OFFCURVE",
"79 14 CURVE SMOOTH",
"25 14 OFFCURVE",
"1 -26 OFFCURVE",
"1 -63 CURVE SMOOTH",
"1 -151 OFFCURVE",
"102 -175 OFFCURVE",
"180 -175 CURVE SMOOTH",
"384 -175 OFFCURVE",
"491 -41 OFFCURVE",
"491 105 CURVE SMOOTH",
"491 228 OFFCURVE",
"419 309 OFFCURVE",
"292 309 CURVE SMOOTH",
"236 309 OFFCURVE",
"181 291 OFFCURVE",
"143 268 CURVE",
"165 463 LINE",
"201 450 OFFCURVE",
"270 420 OFFCURVE",
"339 420 CURVE SMOOTH",
"425 420 OFFCURVE",
"458 488 OFFCURVE",
"473 612 CURVE",
"421 619 LINE",
"399 550 OFFCURVE",
"364 537 OFFCURVE",
"289 537 CURVE SMOOTH",
"238 537 OFFCURVE",
"170 548 OFFCURVE",
"125 556 CURVE",
"98 538 LINE",
"73 240 LINE",
"114 196 LINE",
"154 212 OFFCURVE",
"193 224 OFFCURVE",
"239 224 CURVE SMOOTH",
"311 224 OFFCURVE",
"352 190 OFFCURVE",
"352 93 CURVE SMOOTH"
);
}
);
};
hints = (
{
place = "{352, 139}";
},
{
horizontal = 1;
place = "{-175, 61}";
},
{
horizontal = 1;
place = "{224, 85}";
},
{
horizontal = 1;
place = "{420, 117}";
},
{
horizontal = 1;
place = "{-175, 189}";
},
{
horizontal = 1;
place = "{619, -20}";
target = down;
type = TopGhost;
}
);
layerId = UUID0;
paths = (
{
closed = 1;
nodes = (
"352 -31 OFFCURVE",
"295 -114 OFFCURVE",
"183 -114 CURVE SMOOTH",
"124 -114 OFFCURVE",
"105 -91 OFFCURVE",
"130 -49 CURVE SMOOTH",
"146 -22 LINE",
"135 -4 OFFCURVE",
"102 14 OFFCURVE",
"79 14 CURVE SMOOTH",
"25 14 OFFCURVE",
"1 -26 OFFCURVE",
"1 -63 CURVE SMOOTH",
"1 -151 OFFCURVE",
"102 -175 OFFCURVE",
"180 -175 CURVE SMOOTH",
"384 -175 OFFCURVE",
"491 -41 OFFCURVE",
"491 105 CURVE SMOOTH",
"491 228 OFFCURVE",
"419 309 OFFCURVE",
"292 309 CURVE SMOOTH",
"236 309 OFFCURVE",
"181 291 OFFCURVE",
"143 268 CURVE",
"165 463 LINE",
"201 450 OFFCURVE",
"270 420 OFFCURVE",
"339 420 CURVE SMOOTH",
"425 420 OFFCURVE",
"458 488 OFFCURVE",
"473 612 CURVE",
"421 619 LINE",
"399 550 OFFCURVE",
"364 537 OFFCURVE",
"289 537 CURVE SMOOTH",
"238 537 OFFCURVE",
"170 548 OFFCURVE",
"125 556 CURVE",
"98 538 LINE",
"73 240 LINE",
"114 196 LINE",
"154 212 OFFCURVE",
"193 224 OFFCURVE",
"239 224 CURVE SMOOTH",
"311 224 OFFCURVE",
"352 190 OFFCURVE",
"352 93 CURVE SMOOTH"
);
}
);
width = 523;
}
);
unicode = 0035;
},
{
glyphname = six;
lastChange = "2016-06-05 15:23:08 +0000";
layers = (
{
background = {
paths = (
{
closed = 1;
nodes = (
"459 715 OFFCURVE",
"535 678 OFFCURVE",
"535 597 CURVE SMOOTH",
"535 558 OFFCURVE",
"507 525 OFFCURVE",
"465 525 CURVE SMOOTH",
"436 525 OFFCURVE",
"403 542 OFFCURVE",
"392 553 CURVE",
"411 590 LINE SMOOTH",
"429 625 OFFCURVE",
"414 650 OFFCURVE",
"367 650 CURVE SMOOTH",
"246 650 OFFCURVE",
"185 514 OFFCURVE",
"170 361 CURVE",
"174 358 LINE",
"205 396 OFFCURVE",
"266 454 OFFCURVE",
"361 454 CURVE SMOOTH",
"462 454 OFFCURVE",
"533 392 OFFCURVE",
"533 259 CURVE SMOOTH",
"533 95 OFFCURVE",
"427 -14 OFFCURVE",
"279 -14 CURVE SMOOTH",
"100 -14 OFFCURVE",
"41 131 OFFCURVE",
"41 277 CURVE SMOOTH",
"41 515 OFFCURVE",
"156 715 OFFCURVE",
"376 715 CURVE SMOOTH"
);
},
{
closed = 1;
nodes = (
"400 346 OFFCURVE",
"370 379 OFFCURVE",
"324 379 CURVE SMOOTH",
"261 379 OFFCURVE",
"198 313 OFFCURVE",
"171 276 CURVE",
"168 174 OFFCURVE",
"188 50 OFFCURVE",
"281 50 CURVE SMOOTH",
"361 50 OFFCURVE",
"400 120 OFFCURVE",
"400 246 CURVE SMOOTH"
);
}
);
};
hints = (
{
place = "{41, 130}";
},
{
place = "{400, 133}";
},
{
horizontal = 1;
place = "{-14, 64}";
},
{
horizontal = 1;
place = "{379, 75}";
},
{
horizontal = 1;
place = "{525, 190}";
},
{
horizontal = 1;
place = "{650, 65}";
}
);
layerId = UUID0;
paths = (
{
closed = 1;
nodes = (
"459 715 OFFCURVE",
"535 678 OFFCURVE",
"535 597 CURVE SMOOTH",
"535 558 OFFCURVE",
"507 525 OFFCURVE",
"465 525 CURVE SMOOTH",
"436 525 OFFCURVE",
"403 542 OFFCURVE",
"392 553 CURVE",
"411 590 LINE SMOOTH",
"429 625 OFFCURVE",
"414 650 OFFCURVE",
"367 650 CURVE SMOOTH",
"246 650 OFFCURVE",
"185 514 OFFCURVE",
"170 361 CURVE",
"174 358 LINE",
"205 396 OFFCURVE",
"266 454 OFFCURVE",
"361 454 CURVE SMOOTH",
"462 454 OFFCURVE",
"533 392 OFFCURVE",
"533 259 CURVE SMOOTH",
"533 95 OFFCURVE",
"427 -14 OFFCURVE",
"279 -14 CURVE SMOOTH",
"100 -14 OFFCURVE",
"41 131 OFFCURVE",
"41 277 CURVE SMOOTH",
"41 515 OFFCURVE",
"156 715 OFFCURVE",
"376 715 CURVE SMOOTH"
);
},
{
closed = 1;
nodes = (
"400 346 OFFCURVE",
"370 379 OFFCURVE",
"324 379 CURVE SMOOTH",
"261 379 OFFCURVE",
"198 313 OFFCURVE",
"171 276 CURVE",
"168 174 OFFCURVE",
"188 50 OFFCURVE",
"281 50 CURVE SMOOTH",
"361 50 OFFCURVE",
"400 120 OFFCURVE",
"400 246 CURVE SMOOTH"
);
}
);
width = 567;
}
);
unicode = 0036;
},
{
glyphname = seven;
lastChange = "2016-06-05 15:23:08 +0000";
layers = (
{
background = {
paths = (
{
closed = 1;
nodes = (
"74 -114 OFFCURVE",
"123 -175 OFFCURVE",
"208 -175 CURVE SMOOTH",
"272 -175 OFFCURVE",
"307 -137 OFFCURVE",
"307 -96 CURVE SMOOTH",
"307 -69 OFFCURVE",
"292 -47 OFFCURVE",
"265 -29 CURVE",
"230 -50 LINE SMOOTH",
"187 -76 OFFCURVE",
"159 -53 OFFCURVE",
"159 -6 CURVE SMOOTH",
"159 143 OFFCURVE",
"337 312 OFFCURVE",
"485 460 CURVE",
"478 554 LINE",
"53 554 LINE",
"39 445 LINE",
"376 445 LINE",
"190 256 OFFCURVE",
"74 126 OFFCURVE",
"74 -30 CURVE SMOOTH"
);
}
);
};
hints = (
{
place = "{74, 85}";
},
{
horizontal = 1;
place = "{445, 109}";
},
{
horizontal = 1;
place = "{-175, 21}";
target = up;
type = BottomGhost;
}
);
layerId = UUID0;
paths = (
{
closed = 1;
nodes = (
"74 -114 OFFCURVE",
"123 -175 OFFCURVE",
"208 -175 CURVE SMOOTH",
"272 -175 OFFCURVE",
"307 -137 OFFCURVE",
"307 -96 CURVE SMOOTH",
"307 -69 OFFCURVE",
"292 -47 OFFCURVE",
"265 -29 CURVE",
"230 -50 LINE SMOOTH",
"187 -76 OFFCURVE",
"159 -53 OFFCURVE",
"159 -6 CURVE SMOOTH",
"159 143 OFFCURVE",
"337 312 OFFCURVE",
"485 460 CURVE",
"478 554 LINE",
"53 554 LINE",
"39 445 LINE",
"376 445 LINE",
"190 256 OFFCURVE",
"74 126 OFFCURVE",
"74 -30 CURVE SMOOTH"
);
}
);
width = 506;
}
);
unicode = 0037;
},
{
glyphname = eight;
lastChange = "2016-06-05 15:23:08 +0000";
layers = (
{
background = {
paths = (
{
closed = 1;
nodes = (
"32 58 OFFCURVE",
"127 -14 OFFCURVE",
"270 -14 CURVE SMOOTH",
"407 -14 OFFCURVE",
"531 60 OFFCURVE",
"531 204 CURVE SMOOTH",
"531 282 OFFCURVE",
"504 334 OFFCURVE",
"381 395 CURVE",
"448 431 OFFCURVE",
"506 488 OFFCURVE",
"506 560 CURVE SMOOTH",
"506 646 OFFCURVE",
"441 715 OFFCURVE",
"308 715 CURVE SMOOTH",
"149 715 OFFCURVE",
"73 627 OFFCURVE",
"73 527 CURVE SMOOTH",
"73 462 OFFCURVE",
"102 408 OFFCURVE",
"172 364 CURVE",
"69 308 OFFCURVE",
"32 247 OFFCURVE",
"32 167 CURVE SMOOTH"
);
},
{
closed = 1;
nodes = (
"234 333 LINE",
"341 287 OFFCURVE",
"400 259 OFFCURVE",
"400 180 CURVE SMOOTH",
"400 108 OFFCURVE",
"358 52 OFFCURVE",
"277 52 CURVE SMOOTH",
"190 52 OFFCURVE",
"153 107 OFFCURVE",
"153 182 CURVE SMOOTH",
"153 230 OFFCURVE",
"168 286 OFFCURVE",
"233 333 CURVE"
);
},
{
closed = 1;
nodes = (
"192 618 OFFCURVE",
"239 652 OFFCURVE",
"301 652 CURVE SMOOTH",
"354 652 OFFCURVE",
"401 621 OFFCURVE",
"401 554 CURVE SMOOTH",
"401 503 OFFCURVE",
"373 461 OFFCURVE",
"317 424 CURVE",
"228 466 OFFCURVE",
"192 496 OFFCURVE",
"192 552 CURVE SMOOTH"
);
}
);
};
hints = (
{
place = "{32, 121}";
},
{
place = "{73, 119}";
},
{
place = "{400, 106}";
},
{
place = "{400, 131}";
},
{
horizontal = 1;
place = "{-14, 66}";
},
{
horizontal = 1;
place = "{652, 63}";
}
);
layerId = UUID0;
paths = (
{
closed = 1;
nodes = (
"32 58 OFFCURVE",
"127 -14 OFFCURVE",
"270 -14 CURVE SMOOTH",
"407 -14 OFFCURVE",
"531 60 OFFCURVE",
"531 204 CURVE SMOOTH",
"531 282 OFFCURVE",
"504 334 OFFCURVE",
"381 395 CURVE",
"448 431 OFFCURVE",
"506 488 OFFCURVE",
"506 560 CURVE SMOOTH",
"506 646 OFFCURVE",
"441 715 OFFCURVE",
"308 715 CURVE SMOOTH",
"149 715 OFFCURVE",
"73 627 OFFCURVE",
"73 527 CURVE SMOOTH",
"73 462 OFFCURVE",
"102 408 OFFCURVE",
"172 364 CURVE",
"69 308 OFFCURVE",
"32 247 OFFCURVE",
"32 167 CURVE SMOOTH"
);
},
{
closed = 1;
nodes = (
"234 333 LINE",
"341 287 OFFCURVE",
"400 259 OFFCURVE",
"400 180 CURVE SMOOTH",
"400 108 OFFCURVE",
"358 52 OFFCURVE",
"277 52 CURVE SMOOTH",
"190 52 OFFCURVE",
"153 107 OFFCURVE",
"153 182 CURVE SMOOTH",
"153 230 OFFCURVE",
"168 286 OFFCURVE",
"233 333 CURVE"
);
},
{
closed = 1;
nodes = (
"192 618 OFFCURVE",
"239 652 OFFCURVE",
"301 652 CURVE SMOOTH",
"354 652 OFFCURVE",
"401 621 OFFCURVE",
"401 554 CURVE SMOOTH",
"401 503 OFFCURVE",
"373 461 OFFCURVE",
"317 424 CURVE",
"228 466 OFFCURVE",
"192 496 OFFCURVE",
"192 552 CURVE SMOOTH"
);
}
);
width = 556;
}
);
unicode = 0038;
},
{
glyphname = nine;
lastChange = "2016-06-05 15:23:08 +0000";
layers = (
{
background = {
paths = (
{
closed = 1;
nodes = (
"115 -175 OFFCURVE",
"39 -138 OFFCURVE",
"39 -57 CURVE SMOOTH",
"39 -18 OFFCURVE",
"67 15 OFFCURVE",
"109 15 CURVE SMOOTH",
"138 15 OFFCURVE",
"171 -2 OFFCURVE",
"182 -13 CURVE",
"163 -50 LINE SMOOTH",
"145 -85 OFFCURVE",
"160 -110 OFFCURVE",
"207 -110 CURVE SMOOTH",
"328 -110 OFFCURVE",
"389 38 OFFCURVE",
"404 191 CURVE",
"400 194 LINE",
"369 156 OFFCURVE",
"308 98 OFFCURVE",
"213 98 CURVE SMOOTH",
"112 98 OFFCURVE",
"41 162 OFFCURVE",
"41 295 CURVE SMOOTH",
"41 459 OFFCURVE",
"147 568 OFFCURVE",
"295 568 CURVE SMOOTH",
"478 568 OFFCURVE",
"533 423 OFFCURVE",
"533 277 CURVE SMOOTH",
"533 39 OFFCURVE",
"418 -175 OFFCURVE",
"198 -175 CURVE SMOOTH"
);
},
{
closed = 1;
nodes = (
"174 208 OFFCURVE",
"204 173 OFFCURVE",
"250 173 CURVE SMOOTH",
"313 173 OFFCURVE",
"376 239 OFFCURVE",
"403 276 CURVE",
"406 378 OFFCURVE",
"386 504 OFFCURVE",
"293 504 CURVE SMOOTH",
"213 504 OFFCURVE",
"174 434 OFFCURVE",
"174 308 CURVE SMOOTH"
);
}
);
};
hints = (
{
place = "{41, 133}";
},
{
place = "{403, 130}";
},
{
horizontal = 1;
place = "{-175, 65}";
},
{
horizontal = 1;
place = "{98, 75}";
},
{
horizontal = 1;
place = "{504, 64}";
},
{
horizontal = 1;
place = "{-175, 190}";
}
);
layerId = UUID0;
paths = (
{
closed = 1;
nodes = (
"115 -175 OFFCURVE",
"39 -138 OFFCURVE",
"39 -57 CURVE SMOOTH",
"39 -18 OFFCURVE",
"67 15 OFFCURVE",
"109 15 CURVE SMOOTH",
"138 15 OFFCURVE",
"171 -2 OFFCURVE",
"182 -13 CURVE",
"163 -50 LINE SMOOTH",
"145 -85 OFFCURVE",
"160 -110 OFFCURVE",
"207 -110 CURVE SMOOTH",
"328 -110 OFFCURVE",
"389 38 OFFCURVE",
"404 191 CURVE",
"400 194 LINE",
"369 156 OFFCURVE",
"308 98 OFFCURVE",
"213 98 CURVE SMOOTH",
"112 98 OFFCURVE",
"41 162 OFFCURVE",
"41 295 CURVE SMOOTH",
"41 459 OFFCURVE",
"147 568 OFFCURVE",
"295 568 CURVE SMOOTH",
"478 568 OFFCURVE",
"533 423 OFFCURVE",
"533 277 CURVE SMOOTH",
"533 39 OFFCURVE",
"418 -175 OFFCURVE",
"198 -175 CURVE SMOOTH"
);
},
{
closed = 1;
nodes = (
"174 208 OFFCURVE",
"204 173 OFFCURVE",
"250 173 CURVE SMOOTH",
"313 173 OFFCURVE",
"376 239 OFFCURVE",
"403 276 CURVE",
"406 378 OFFCURVE",
"386 504 OFFCURVE",
"293 504 CURVE SMOOTH",
"213 504 OFFCURVE",
"174 434 OFFCURVE",
"174 308 CURVE SMOOTH"
);
}
);
width = 567;
}
);
unicode = 0039;
},
{
glyphname = colon;
lastChange = "2016-06-05 15:23:08 +0000";
layers = (
{
background = {
paths = (
{
closed = 1;
nodes = (
"60 12 OFFCURVE",
"96 -15 OFFCURVE",
"150 -15 CURVE SMOOTH",
"204 -15 OFFCURVE",
"246 13 OFFCURVE",
"246 66 CURVE SMOOTH",
"246 116 OFFCURVE",
"210 150 OFFCURVE",
"156 150 CURVE SMOOTH",
"102 150 OFFCURVE",
"60 116 OFFCURVE",
"60 65 CURVE SMOOTH"
);
},
{
closed = 1;
nodes = (
"77 403 OFFCURVE",
"113 376 OFFCURVE",
"167 376 CURVE SMOOTH",
"221 376 OFFCURVE",
"263 404 OFFCURVE",
"263 457 CURVE SMOOTH",
"263 507 OFFCURVE",
"227 541 OFFCURVE",
"173 541 CURVE SMOOTH",
"119 541 OFFCURVE",
"77 507 OFFCURVE",
"77 456 CURVE SMOOTH"
);
}
);
};
components = (
{
name = period;
transform = "{1, 0, 0, 1, -2, 0}";
},
{
name = period;
transform = "{1, 0, 0, 1, 15, 391}";
}
);
hints = (
{
place = "{74, 154}";
},
{
place = "{74, 154}";
},
{
horizontal = 1;
place = "{-11, 151}";
},
{
horizontal = 1;
place = "{370, 151}";
}
);
layerId = UUID0;
width = 296;
}
);
leftKerningGroup = colon;
rightKerningGroup = colon;
unicode = 003A;
},
{
glyphname = semicolon;
lastChange = "2016-06-05 15:23:08 +0000";
layers = (
{
background = {
paths = (
{
closed = 1;
nodes = (
"76 403 OFFCURVE",
"112 376 OFFCURVE",
"166 376 CURVE SMOOTH",
"220 376 OFFCURVE",
"262 404 OFFCURVE",
"262 457 CURVE SMOOTH",
"262 507 OFFCURVE",
"226 541 OFFCURVE",
"172 541 CURVE SMOOTH",
"118 541 OFFCURVE",
"76 507 OFFCURVE",
"76 456 CURVE SMOOTH"
);
},
{
closed = 1;
nodes = (
"36 -119 LINE",
"74 -93 OFFCURVE",
"129 -52 OFFCURVE",
"129 -14 CURVE SMOOTH",
"129 -2 OFFCURVE",
"123 10 OFFCURVE",
"103 16 CURVE SMOOTH",
"66 29 LINE",
"49 72 OFFCURVE",
"66 149 OFFCURVE",
"145 149 CURVE SMOOTH",
"210 149 OFFCURVE",
"239 102 OFFCURVE",
"239 51 CURVE SMOOTH",
"239 -13 OFFCURVE",
"183 -102 OFFCURVE",
"75 -168 CURVE"
);
}
);
};
components = (
{
name = period;
transform = "{1, 0, 0, 1, 14, 391}";
},
{
name = comma;
}
);
hints = (
{
place = "{77, 159}";
},
{
place = "{73, 154}";
},
{
horizontal = 1;
place = "{0, 129}";
},
{
horizontal = 1;
place = "{-168, 21}";
target = up;
type = BottomGhost;
},
{
horizontal = 1;
place = "{370, 151}";
}
);
layerId = UUID0;
width = 292;
}
);
leftKerningGroup = colon;
rightKerningGroup = colon;
unicode = 003B;
},
{
glyphname = less;
lastChange = "2016-06-05 15:23:08 +0000";
layers = (
{
background = {
paths = (
{
closed = 1;
nodes = (
"69 322 LINE",
"66 260 LINE",
"442 38 LINE",
"489 117 LINE",
"174 294 LINE",
"496 466 LINE",
"457 542 LINE"
);
}
);
};
hints = (
{
horizontal = 1;
place = "{38, 21}";
target = up;
type = BottomGhost;
},
{
horizontal = 1;
place = "{542, -20}";
target = down;
type = TopGhost;
}
);
layerId = UUID0;
paths = (
{
closed = 1;
nodes = (
"69 322 LINE",
"66 260 LINE",
"442 38 LINE",
"489 117 LINE",
"174 294 LINE",
"496 466 LINE",
"457 542 LINE"
);
}
);
width = 582;
}
);
unicode = 003C;
},
{
glyphname = equal;
lastChange = "2016-06-05 15:23:08 +0000";
layers = (
{
background = {
paths = (
{
closed = 1;
nodes = (
"519 170 LINE",
"523 259 LINE",
"77 259 LINE",
"73 170 LINE"
);
},
{
closed = 1;
nodes = (
"528 356 LINE",
"532 445 LINE",
"86 445 LINE",
"82 356 LINE"
);
}
);
};
hints = (
{
horizontal = 1;
place = "{170, 89}";
},
{
horizontal = 1;
place = "{356, 89}";
}
);
layerId = UUID0;
paths = (
{
closed = 1;
nodes = (
"519 170 LINE",
"523 259 LINE",
"77 259 LINE",
"73 170 LINE"
);
},
{
closed = 1;
nodes = (
"528 356 LINE",
"532 445 LINE",
"86 445 LINE",
"82 356 LINE"
);
}
);
width = 582;
}
);
unicode = 003D;
},
{
glyphname = greater;
lastChange = "2016-06-05 15:23:08 +0000";
layers = (
{
background = {
paths = (
{
closed = 1;
nodes = (
"537 258 LINE",
"540 320 LINE",
"164 542 LINE",
"117 467 LINE",
"432 290 LINE",
"110 114 LINE",
"149 38 LINE"
);
}
);
};
hints = (
{
horizontal = 1;
place = "{542, -20}";
target = down;
type = TopGhost;
},
{
horizontal = 1;
place = "{38, 21}";
target = up;
type = BottomGhost;
}
);
layerId = UUID0;
paths = (
{
closed = 1;
nodes = (
"537 258 LINE",
"540 320 LINE",
"164 542 LINE",
"117 467 LINE",
"432 290 LINE",
"110 114 LINE",
"149 38 LINE"
);
}
);
width = 582;
}
);
unicode = 003E;
},
{
glyphname = question;
lastChange = "2016-06-05 15:23:08 +0000";
layers = (
{
background = {
paths = (
{
closed = 1;
nodes = (
"224 194 LINE",
"307 194 LINE",
"283 311 LINE",
"430 358 OFFCURVE",
"486 449 OFFCURVE",
"486 540 CURVE SMOOTH",
"486 662 OFFCURVE",
"398 715 OFFCURVE",
"275 715 CURVE SMOOTH",
"174 715 OFFCURVE",
"70 662 OFFCURVE",
"70 571 CURVE SMOOTH",
"70 533 OFFCURVE",
"94 506 OFFCURVE",
"138 506 CURVE SMOOTH",
"173 506 OFFCURVE",
"197 527 OFFCURVE",
"206 555 CURVE",
"185 579 LINE SMOOTH",
"147 622 OFFCURVE",
"177 655 OFFCURVE",
"250 655 CURVE SMOOTH",
"321 655 OFFCURVE",
"359 620 OFFCURVE",
"359 552 CURVE SMOOTH",
"359 474 OFFCURVE",
"303 420 OFFCURVE",
"184 390 CURVE"
);
},
{
closed = 1;
nodes = (
"175 11 OFFCURVE",
"209 -15 OFFCURVE",
"261 -15 CURVE SMOOTH",
"313 -15 OFFCURVE",
"353 12 OFFCURVE",
"353 62 CURVE SMOOTH",
"353 110 OFFCURVE",
"319 142 OFFCURVE",
"267 142 CURVE SMOOTH",
"215 142 OFFCURVE",
"175 110 OFFCURVE",
"175 61 CURVE SMOOTH"
);
}
);
};
hints = (
{
place = "{175, 178}";
},
{
place = "{359, 127}";
},
{
horizontal = 1;
place = "{-15, 157}";
},
{
horizontal = 1;
place = "{655, 60}";
}
);
layerId = UUID0;
paths = (
{
closed = 1;
nodes = (
"224 194 LINE",
"307 194 LINE",
"283 311 LINE",
"430 358 OFFCURVE",
"486 449 OFFCURVE",
"486 540 CURVE SMOOTH",
"486 662 OFFCURVE",
"398 715 OFFCURVE",
"275 715 CURVE SMOOTH",
"174 715 OFFCURVE",
"70 662 OFFCURVE",
"70 571 CURVE SMOOTH",
"70 533 OFFCURVE",
"94 506 OFFCURVE",
"138 506 CURVE SMOOTH",
"173 506 OFFCURVE",
"197 527 OFFCURVE",
"206 555 CURVE",
"185 579 LINE SMOOTH",
"147 622 OFFCURVE",
"177 655 OFFCURVE",
"250 655 CURVE SMOOTH",
"321 655 OFFCURVE",
"359 620 OFFCURVE",
"359 552 CURVE SMOOTH",
"359 474 OFFCURVE",
"303 420 OFFCURVE",
"184 390 CURVE"
);
},
{
closed = 1;
nodes = (
"175 11 OFFCURVE",
"209 -15 OFFCURVE",
"261 -15 CURVE SMOOTH",
"313 -15 OFFCURVE",
"353 12 OFFCURVE",
"353 62 CURVE SMOOTH",
"353 110 OFFCURVE",
"319 142 OFFCURVE",
"267 142 CURVE SMOOTH",
"215 142 OFFCURVE",
"175 110 OFFCURVE",
"175 61 CURVE SMOOTH"
);
}
);
width = 520;
}
);
unicode = 003F;
},
{
glyphname = at;
lastChange = "2016-06-05 15:23:08 +0000";
layers = (
{
background = {
paths = (
{
closed = 1;
nodes = (
"341 407 OFFCURVE",
"241 332 OFFCURVE",
"241 147 CURVE SMOOTH",
"241 72 OFFCURVE",
"275 -17 OFFCURVE",
"380 -17 CURVE SMOOTH",
"439 -17 OFFCURVE",
"496 11 OFFCURVE",
"528 124 CURVE SMOOTH",
"541 170 LINE",
"547 169 LINE",
"546 131 OFFCURVE",
"543 101 OFFCURVE",
"543 77 CURVE SMOOTH",
"543 -2 OFFCURVE",
"580 -17 OFFCURVE",
"625 -17 CURVE SMOOTH",
"732 -17 OFFCURVE",
"832 66 OFFCURVE",
"832 244 CURVE SMOOTH",
"832 470 OFFCURVE",
"680 582 OFFCURVE",
"461 582 CURVE SMOOTH",
"213 582 OFFCURVE",
"60 407 OFFCURVE",
"60 169 CURVE SMOOTH",
"60 -84 OFFCURVE",
"243 -197 OFFCURVE",
"432 -197 CURVE SMOOTH",
"533 -197 OFFCURVE",
"620 -162 OFFCURVE",
"686 -96 CURVE",
"647 -46 LINE",
"589 -94 OFFCURVE",
"523 -112 OFFCURVE",
"430 -112 CURVE SMOOTH",
"315 -112 OFFCURVE",
"164 -46 OFFCURVE",
"164 185 CURVE SMOOTH",
"164 391 OFFCURVE",
"293 511 OFFCURVE",
"461 511 CURVE SMOOTH",
"647 511 OFFCURVE",
"734 404 OFFCURVE",
"734 240 CURVE SMOOTH",
"734 123 OFFCURVE",
"701 46 OFFCURVE",
"654 46 CURVE SMOOTH",
"638 46 OFFCURVE",
"627 55 OFFCURVE",
"628 89 CURVE SMOOTH",
"638 391 LINE",
"605 408 LINE",
"552 382 LINE",
"521 400 OFFCURVE",
"484 407 OFFCURVE",
"446 407 CURVE SMOOTH"
);
},
{
closed = 1;
nodes = (
"501 201 LINE SMOOTH",
"470 94 OFFCURVE",
"436 55 OFFCURVE",
"401 55 CURVE SMOOTH",
"360 55 OFFCURVE",
"347 93 OFFCURVE",
"347 150 CURVE SMOOTH",
"347 246 OFFCURVE",
"379 348 OFFCURVE",
"458 348 CURVE SMOOTH",
"480 348 OFFCURVE",
"520 343 OFFCURVE",
"539 331 CURVE"
);
}
);
};
hints = (
{
place = "{60, 104}";
},
{
place = "{241, 106}";
},
{
place = "{543, 90}";
},
{
place = "{734, 98}";
},
{
horizontal = 1;
place = "{-197, 85}";
},
{
horizontal = 1;
place = "{-17, 63}";
},
{
horizontal = 1;
place = "{348, 59}";
},
{
horizontal = 1;
place = "{511, 71}";
}
);
layerId = UUID0;
paths = (
{
closed = 1;
nodes = (
"341 407 OFFCURVE",
"241 332 OFFCURVE",
"241 147 CURVE SMOOTH",
"241 72 OFFCURVE",
"275 -17 OFFCURVE",
"380 -17 CURVE SMOOTH",
"439 -17 OFFCURVE",
"496 11 OFFCURVE",
"528 124 CURVE SMOOTH",
"541 170 LINE",
"547 169 LINE",
"546 131 OFFCURVE",
"543 101 OFFCURVE",
"543 77 CURVE SMOOTH",
"543 -2 OFFCURVE",
"580 -17 OFFCURVE",
"625 -17 CURVE SMOOTH",
"732 -17 OFFCURVE",
"832 66 OFFCURVE",
"832 244 CURVE SMOOTH",
"832 470 OFFCURVE",
"680 582 OFFCURVE",
"461 582 CURVE SMOOTH",
"213 582 OFFCURVE",
"60 407 OFFCURVE",
"60 169 CURVE SMOOTH",
"60 -84 OFFCURVE",
"243 -197 OFFCURVE",
"432 -197 CURVE SMOOTH",
"533 -197 OFFCURVE",
"620 -162 OFFCURVE",
"686 -96 CURVE",
"647 -46 LINE",
"589 -94 OFFCURVE",
"523 -112 OFFCURVE",
"430 -112 CURVE SMOOTH",
"315 -112 OFFCURVE",
"164 -46 OFFCURVE",
"164 185 CURVE SMOOTH",
"164 391 OFFCURVE",
"293 511 OFFCURVE",
"461 511 CURVE SMOOTH",
"647 511 OFFCURVE",
"734 404 OFFCURVE",
"734 240 CURVE SMOOTH",
"734 123 OFFCURVE",
"701 46 OFFCURVE",
"654 46 CURVE SMOOTH",
"638 46 OFFCURVE",
"627 55 OFFCURVE",
"628 89 CURVE SMOOTH",
"638 391 LINE",
"605 408 LINE",
"552 382 LINE",
"521 400 OFFCURVE",
"484 407 OFFCURVE",
"446 407 CURVE SMOOTH"
);
},
{
closed = 1;
nodes = (
"501 201 LINE SMOOTH",
"470 94 OFFCURVE",
"436 55 OFFCURVE",
"401 55 CURVE SMOOTH",
"360 55 OFFCURVE",
"347 93 OFFCURVE",
"347 150 CURVE SMOOTH",
"347 246 OFFCURVE",
"379 348 OFFCURVE",
"458 348 CURVE SMOOTH",
"480 348 OFFCURVE",
"520 343 OFFCURVE",
"539 331 CURVE"
);
}
);
width = 867;
}
);
unicode = 0040;
},
{
glyphname = A;
lastChange = "2016-06-05 15:23:08 +0000";
layers = (
{
anchors = (
{
name = bottom;
position = "{317, -30}";
},
{
name = top;
position = "{378, 730}";
}
);
background = {
paths = (
{
closed = 1;
nodes = (
"307 695 LINE",
"76 66 LINE",
"10 55 LINE",
"4 0 LINE",
"246 0 LINE",
"252 54 LINE",
"164 66 LINE",
"219 223 LINE",
"441 223 LINE",
"482 66 LINE",
"404 54 LINE",
"398 0 LINE",
"692 0 LINE",
"698 55 LINE",
"626 65 LINE",
"447 710 LINE"
);
},
{
closed = 1;
nodes = (
"349 605 LINE",
"352 605 LINE",
"424 293 LINE",
"241 293 LINE"
);
}
);
};
hints = (
{
horizontal = 1;
place = "{223, 70}";
},
{
horizontal = 1;
place = "{0, 21}";
target = up;
type = BottomGhost;
},
{
horizontal = 1;
place = "{710, -20}";
target = down;
type = TopGhost;
}
);
layerId = UUID0;
paths = (
{
closed = 1;
nodes = (
"307 695 LINE",
"76 66 LINE",
"10 55 LINE",
"4 0 LINE",
"246 0 LINE",
"252 54 LINE",
"164 66 LINE",
"219 223 LINE",
"441 223 LINE",
"482 66 LINE",
"404 54 LINE",
"398 0 LINE",
"692 0 LINE",
"698 55 LINE",
"626 65 LINE",
"447 710 LINE"
);
},
{
closed = 1;
nodes = (
"349 605 LINE",
"352 605 LINE",
"424 293 LINE",
"241 293 LINE"
);
}
);
width = 694;
}
);
leftKerningGroup = A;
rightKerningGroup = A;
unicode = 0041;
},
{
glyphname = B;
lastChange = "2016-06-05 15:23:08 +0000";
layers = (
{
background = {
paths = (
{
closed = 1;
nodes = (
"574 661 OFFCURVE",
"476 700 OFFCURVE",
"324 700 CURVE SMOOTH",
"67 700 LINE",
"61 644 LINE",
"145 627 LINE",
"120 69 LINE",
"34 54 LINE",
"29 0 LINE",
"283 0 LINE SMOOTH",
"498 0 OFFCURVE",
"602 84 OFFCURVE",
"602 205 CURVE SMOOTH",
"602 294 OFFCURVE",
"545 353 OFFCURVE",
"422 369 CURVE",
"422 374 LINE",
"490 399 OFFCURVE",
"574 456 OFFCURVE",
"574 549 CURVE SMOOTH"
);
},
{
closed = 1;
nodes = (
"301 321 LINE",
"317 323 OFFCURVE",
"332 325 OFFCURVE",
"347 325 CURVE SMOOTH",
"418 325 OFFCURVE",
"468 296 OFFCURVE",
"468 208 CURVE SMOOTH",
"468 115 OFFCURVE",
"403 67 OFFCURVE",
"275 67 CURVE SMOOTH",
"254 67 LINE",
"277 633 LINE",
"299 633 LINE SMOOTH",
"373 633 OFFCURVE",
"441 617 OFFCURVE",
"441 527 CURVE SMOOTH",
"441 442 OFFCURVE",
"388 399 OFFCURVE",
"303 385 CURVE"
);
}
);
};
hints = (
{
place = "{132, 133}";
},
{
place = "{441, 133}";
},
{
place = "{468, 106}";
},
{
place = "{468, 134}";
},
{
horizontal = 1;
place = "{0, 67}";
},
{
horizontal = 1;
place = "{633, 67}";
}
);
layerId = UUID0;
paths = (
{
closed = 1;
nodes = (
"574 661 OFFCURVE",
"476 700 OFFCURVE",
"324 700 CURVE SMOOTH",
"67 700 LINE",
"61 644 LINE",
"145 627 LINE",
"120 69 LINE",
"34 54 LINE",
"29 0 LINE",
"283 0 LINE SMOOTH",
"498 0 OFFCURVE",
"602 84 OFFCURVE",
"602 205 CURVE SMOOTH",
"602 294 OFFCURVE",
"545 353 OFFCURVE",
"422 369 CURVE",
"422 374 LINE",
"490 399 OFFCURVE",
"574 456 OFFCURVE",
"574 549 CURVE SMOOTH"
);
},
{
closed = 1;
nodes = (
"301 321 LINE",
"317 323 OFFCURVE",
"332 325 OFFCURVE",
"347 325 CURVE SMOOTH",
"418 325 OFFCURVE",
"468 296 OFFCURVE",
"468 208 CURVE SMOOTH",
"468 115 OFFCURVE",
"403 67 OFFCURVE",
"275 67 CURVE SMOOTH",
"254 67 LINE",
"277 633 LINE",
"299 633 LINE SMOOTH",
"373 633 OFFCURVE",
"441 617 OFFCURVE",
"441 527 CURVE SMOOTH",
"441 442 OFFCURVE",
"388 399 OFFCURVE",
"303 385 CURVE"
);
}
);
width = 620;
}
);
leftKerningGroup = H;
unicode = 0042;
},
{
glyphname = C;
lastChange = "2016-06-05 15:23:08 +0000";
layers = (
{
anchors = (
{
name = bottom;
position = "{349, -30}";
},
{
name = top;
position = "{384, 730}";
}
);
background = {
paths = (
{
closed = 1;
nodes = (
"460 515 LINE",
"478 496 OFFCURVE",
"510 479 OFFCURVE",
"545 479 CURVE SMOOTH",
"578 479 OFFCURVE",
"614 503 OFFCURVE",
"614 547 CURVE SMOOTH",
"614 665 OFFCURVE",
"496 715 OFFCURVE",
"388 715 CURVE SMOOTH",
"211 715 OFFCURVE",
"52 603 OFFCURVE",
"52 320 CURVE SMOOTH",
"52 149 OFFCURVE",
"126 -14 OFFCURVE",
"353 -14 CURVE SMOOTH",
"478 -14 OFFCURVE",
"556 60 OFFCURVE",
"604 127 CURVE",
"552 178 LINE",
"499 117 OFFCURVE",
"446 76 OFFCURVE",
"365 76 CURVE SMOOTH",
"225 76 OFFCURVE",
"193 210 OFFCURVE",
"193 331 CURVE SMOOTH",
"193 518 OFFCURVE",
"255 641 OFFCURVE",
"389 641 CURVE SMOOTH",
"456 641 OFFCURVE",
"508 614 OFFCURVE",
"477 550 CURVE SMOOTH"
);
}
);
};
hints = (
{
place = "{52, 141}";
},
{
horizontal = 1;
place = "{-14, 90}";
},
{
horizontal = 1;
place = "{641, 74}";
}
);
layerId = UUID0;
paths = (
{
closed = 1;
nodes = (
"460 515 LINE",
"478 496 OFFCURVE",
"510 479 OFFCURVE",
"545 479 CURVE SMOOTH",
"578 479 OFFCURVE",
"614 503 OFFCURVE",
"614 547 CURVE SMOOTH",
"614 665 OFFCURVE",
"496 715 OFFCURVE",
"388 715 CURVE SMOOTH",
"211 715 OFFCURVE",
"52 603 OFFCURVE",
"52 320 CURVE SMOOTH",
"52 149 OFFCURVE",
"126 -14 OFFCURVE",
"353 -14 CURVE SMOOTH",
"478 -14 OFFCURVE",
"556 60 OFFCURVE",
"604 127 CURVE",
"552 178 LINE",
"499 117 OFFCURVE",
"446 76 OFFCURVE",
"365 76 CURVE SMOOTH",
"225 76 OFFCURVE",
"193 210 OFFCURVE",
"193 331 CURVE SMOOTH",
"193 518 OFFCURVE",
"255 641 OFFCURVE",
"389 641 CURVE SMOOTH",
"456 641 OFFCURVE",
"508 614 OFFCURVE",
"477 550 CURVE SMOOTH"
);
}
);
width = 633;
}
);
leftKerningGroup = O;
rightKerningGroup = C;
unicode = 0043;
},
{
glyphname = D;
lastChange = "2016-06-05 15:23:08 +0000";
layers = (
{
anchors = (
{
name = bottom;
position = "{335, -30}";
},
{
name = top;
position = "{372, 730}";
}
);
background = {
paths = (
{
closed = 1;
nodes = (
"272 0 LINE SMOOTH",
"453 0 OFFCURVE",
"710 60 OFFCURVE",
"710 392 CURVE SMOOTH",
"710 616 OFFCURVE",
"546 700 OFFCURVE",
"359 700 CURVE SMOOTH",
"67 700 LINE",
"61 644 LINE",
"145 627 LINE",
"120 69 LINE",
"34 55 LINE",
"29 0 LINE"
);
},
{
closed = 1;
nodes = (
"278 633 LINE",
"318 633 LINE SMOOTH",
"437 633 OFFCURVE",
"567 588 OFFCURVE",
"567 383 CURVE SMOOTH",
"567 110 OFFCURVE",
"389 70 OFFCURVE",
"269 70 CURVE SMOOTH",
"255 70 LINE"
);
}
);
};
hints = (
{
place = "{132, 134}";
},
{
place = "{567, 143}";
},
{
horizontal = 1;
place = "{0, 70}";
},
{
horizontal = 1;
place = "{633, 67}";
}
);
layerId = UUID0;
paths = (
{
closed = 1;
nodes = (
"272 0 LINE SMOOTH",
"453 0 OFFCURVE",
"710 60 OFFCURVE",
"710 392 CURVE SMOOTH",
"710 616 OFFCURVE",
"546 700 OFFCURVE",
"359 700 CURVE SMOOTH",
"67 700 LINE",
"61 644 LINE",
"145 627 LINE",
"120 69 LINE",
"34 55 LINE",
"29 0 LINE"
);
},
{
closed = 1;
nodes = (
"278 633 LINE",
"318 633 LINE SMOOTH",
"437 633 OFFCURVE",
"567 588 OFFCURVE",
"567 383 CURVE SMOOTH",
"567 110 OFFCURVE",
"389 70 OFFCURVE",
"269 70 CURVE SMOOTH",
"255 70 LINE"
);
}
);
width = 738;
}
);
leftKerningGroup = H;
rightKerningGroup = D;
unicode = 0044;
},
{
glyphname = E;
lastChange = "2016-06-05 15:23:08 +0000";
layers = (
{
anchors = (
{
name = bottom;
position = "{320, -30}";
},
{
name = top;
position = "{337, 730}";
}
);
background = {
paths = (
{
closed = 1;
nodes = (
"120 70 LINE",
"41 57 LINE",
"35 0 LINE",
"542 0 LINE",
"566 192 LINE",
"498 192 LINE",
"484 151 LINE SMOOTH",
"463 89 OFFCURVE",
"442 71 OFFCURVE",
"381 71 CURVE SMOOTH",
"256 71 LINE",
"267 321 LINE",
"485 321 LINE",
"490 398 LINE",
"270 398 LINE",
"280 630 LINE",
"389 630 LINE SMOOTH",
"452 630 OFFCURVE",
"467 609 OFFCURVE",
"485 551 CURVE SMOOTH",
"496 515 LINE",
"562 524 LINE",
"548 700 LINE",
"67 700 LINE",
"61 644 LINE",
"144 627 LINE"
);
}
);
};
hints = (
{
place = "{132, 129}";
},
{
place = "{132, 143}";
},
{
horizontal = 1;
place = "{0, 71}";
},
{
horizontal = 1;
place = "{321, 77}";
},
{
horizontal = 1;
place = "{630, 70}";
}
);
layerId = UUID0;
paths = (
{
closed = 1;
nodes = (
"120 70 LINE",
"41 57 LINE",
"35 0 LINE",
"542 0 LINE",
"566 192 LINE",
"498 192 LINE",
"484 151 LINE SMOOTH",
"463 89 OFFCURVE",
"442 71 OFFCURVE",
"381 71 CURVE SMOOTH",
"256 71 LINE",
"267 321 LINE",
"485 321 LINE",
"490 398 LINE",
"270 398 LINE",
"280 630 LINE",
"389 630 LINE SMOOTH",
"452 630 OFFCURVE",
"467 609 OFFCURVE",
"485 551 CURVE SMOOTH",
"496 515 LINE",
"562 524 LINE",
"548 700 LINE",
"67 700 LINE",
"61 644 LINE",
"144 627 LINE"
);
}
);
width = 596;
}
);
leftKerningGroup = H;
rightKerningGroup = E;
unicode = 0045;
},
{
glyphname = F;
lastChange = "2016-06-05 15:23:08 +0000";
layers = (
{
background = {
paths = (
{
closed = 1;
nodes = (
"32 0 LINE",
"370 0 LINE",
"376 59 LINE",
"249 73 LINE",
"259 318 LINE",
"470 318 LINE",
"475 394 LINE",
"262 394 LINE",
"273 630 LINE",
"386 630 LINE SMOOTH",
"454 630 OFFCURVE",
"465 601 OFFCURVE",
"481 554 CURVE SMOOTH",
"494 515 LINE",
"558 525 LINE",
"544 700 LINE",
"63 700 LINE",
"57 644 LINE",
"143 627 LINE",
"120 69 LINE",
"38 56 LINE"
);
}
);
};
hints = (
{
place = "{131, 123}";
},
{
place = "{131, 136}";
},
{
horizontal = 1;
place = "{318, 76}";
},
{
horizontal = 1;
place = "{630, 70}";
},
{
horizontal = 1;
place = "{0, 21}";
target = up;
type = BottomGhost;
}
);
layerId = UUID0;
paths = (
{
closed = 1;
nodes = (
"32 0 LINE",
"370 0 LINE",
"376 59 LINE",
"249 73 LINE",
"259 318 LINE",
"470 318 LINE",
"475 394 LINE",
"262 394 LINE",
"273 630 LINE",
"386 630 LINE SMOOTH",
"454 630 OFFCURVE",
"465 601 OFFCURVE",
"481 554 CURVE SMOOTH",
"494 515 LINE",
"558 525 LINE",
"544 700 LINE",
"63 700 LINE",
"57 644 LINE",
"143 627 LINE",
"120 69 LINE",
"38 56 LINE"
);
}
);
width = 561;
}
);
leftKerningGroup = H;
unicode = 0046;
},
{
glyphname = G;
lastChange = "2016-06-05 15:23:08 +0000";
layers = (
{
anchors = (
{
name = bottom;
position = "{368, -30}";
},
{
name = top;
position = "{399, 730}";
}
);
background = {
paths = (
{
closed = 1;
nodes = (
"417 335 LINE",
"410 274 LINE",
"497 258 LINE",
"490 104 LINE",
"461 85 OFFCURVE",
"431 71 OFFCURVE",
"373 71 CURVE SMOOTH",
"239 71 OFFCURVE",
"193 192 OFFCURVE",
"193 333 CURVE SMOOTH",
"193 541 OFFCURVE",
"267 642 OFFCURVE",
"405 642 CURVE SMOOTH",
"469 642 OFFCURVE",
"539 625 OFFCURVE",
"509 561 CURVE SMOOTH",
"489 518 LINE",
"507 498 OFFCURVE",
"539 481 OFFCURVE",
"573 481 CURVE SMOOTH",
"605 481 OFFCURVE",
"642 507 OFFCURVE",
"642 555 CURVE SMOOTH",
"642 675 OFFCURVE",
"508 715 OFFCURVE",
"398 715 CURVE SMOOTH",
"196 715 OFFCURVE",
"52 588 OFFCURVE",
"52 325 CURVE SMOOTH",
"52 158 OFFCURVE",
"123 -14 OFFCURVE",
"368 -14 CURVE SMOOTH",
"466 -14 OFFCURVE",
"572 23 OFFCURVE",
"621 60 CURVE",
"633 335 LINE"
);
}
);
};
hints = (
{
place = "{52, 141}";
},
{
place = "{493, 134}";
},
{
horizontal = 1;
place = "{-14, 85}";
},
{
horizontal = 1;
place = "{642, 73}";
}
);
layerId = UUID0;
paths = (
{
closed = 1;
nodes = (
"417 335 LINE",
"410 274 LINE",
"497 258 LINE",
"490 104 LINE",
"461 85 OFFCURVE",
"431 71 OFFCURVE",
"373 71 CURVE SMOOTH",
"239 71 OFFCURVE",
"193 192 OFFCURVE",
"193 333 CURVE SMOOTH",
"193 541 OFFCURVE",
"267 642 OFFCURVE",
"405 642 CURVE SMOOTH",
"469 642 OFFCURVE",
"539 625 OFFCURVE",
"509 561 CURVE SMOOTH",
"489 518 LINE",
"507 498 OFFCURVE",
"539 481 OFFCURVE",
"573 481 CURVE SMOOTH",
"605 481 OFFCURVE",
"642 507 OFFCURVE",
"642 555 CURVE SMOOTH",
"642 675 OFFCURVE",
"508 715 OFFCURVE",
"398 715 CURVE SMOOTH",
"196 715 OFFCURVE",
"52 588 OFFCURVE",
"52 325 CURVE SMOOTH",
"52 158 OFFCURVE",
"123 -14 OFFCURVE",
"368 -14 CURVE SMOOTH",
"466 -14 OFFCURVE",
"572 23 OFFCURVE",
"621 60 CURVE",
"633 335 LINE"
);
}
);
width = 674;
}
);
leftKerningGroup = O;
rightKerningGroup = G;
unicode = 0047;
},
{
glyphname = H;
lastChange = "2016-06-05 15:23:08 +0000";
layers = (
{
anchors = (
{
name = bottom;
position = "{386, -30}";
},
{
name = top;
position = "{416, 730}";
}
);
background = {
paths = (
{
closed = 1;
nodes = (
"517 69 LINE",
"438 56 LINE",
"432 0 LINE",
"740 0 LINE",
"746 57 LINE",
"654 70 LINE",
"676 628 LINE",
"758 644 LINE",
"764 700 LINE",
"464 700 LINE",
"458 645 LINE",
"541 628 LINE",
"531 396 LINE",
"270 396 LINE",
"279 628 LINE",
"361 644 LINE",
"367 700 LINE",
"66 700 LINE",
"60 646 LINE",
"143 629 LINE",
"120 68 LINE",
"41 56 LINE",
"35 0 LINE",
"343 0 LINE",
"349 57 LINE",
"257 70 LINE",
"267 321 LINE",
"528 321 LINE"
);
}
);
};
hints = (
{
place = "{131, 137}";
},
{
place = "{216, 52}";
},
{
place = "{529, 84}";
},
{
place = "{529, 136}";
},
{
horizontal = 1;
place = "{321, 75}";
},
{
horizontal = 1;
place = "{0, 21}";
target = up;
type = BottomGhost;
},
{
horizontal = 1;
place = "{700, -20}";
target = down;
type = TopGhost;
}
);
layerId = UUID0;
paths = (
{
closed = 1;
nodes = (
"517 69 LINE",
"438 56 LINE",
"432 0 LINE",
"740 0 LINE",
"746 57 LINE",
"654 70 LINE",
"676 628 LINE",
"758 644 LINE",
"764 700 LINE",
"464 700 LINE",
"458 645 LINE",
"541 628 LINE",
"531 396 LINE",
"270 396 LINE",
"279 628 LINE",
"361 644 LINE",
"367 700 LINE",
"66 700 LINE",
"60 646 LINE",
"143 629 LINE",
"120 68 LINE",
"41 56 LINE",
"35 0 LINE",
"343 0 LINE",
"349 57 LINE",
"257 70 LINE",
"267 321 LINE",
"528 321 LINE"
);
}
);
width = 769;
}
);
leftKerningGroup = H;
rightKerningGroup = H;
unicode = 0048;
},
{
glyphname = I;
lastChange = "2016-06-05 15:23:08 +0000";
layers = (
{
anchors = (
{
name = bottom;
position = "{188, -30}";
},
{
name = top;
position = "{222, 730}";
}
);
background = {
paths = (
{
closed = 1;
nodes = (
"123 69 LINE",
"44 57 LINE",
"38 0 LINE",
"346 0 LINE",
"352 57 LINE",
"260 70 LINE",
"282 628 LINE",
"364 644 LINE",
"370 700 LINE",
"70 700 LINE",
"64 644 LINE",
"147 627 LINE"
);
}
);
};
hints = (
{
place = "{135, 136}";
},
{
horizontal = 1;
place = "{0, 21}";
target = up;
type = BottomGhost;
},
{
horizontal = 1;
place = "{700, -20}";
target = down;
type = TopGhost;
}
);
layerId = UUID0;
paths = (
{
closed = 1;
nodes = (
"123 69 LINE",
"44 57 LINE",
"38 0 LINE",
"346 0 LINE",
"352 57 LINE",
"260 70 LINE",
"282 628 LINE",
"364 644 LINE",
"370 700 LINE",
"70 700 LINE",
"64 644 LINE",
"147 627 LINE"
);
}
);
width = 376;
}
);
leftKerningGroup = H;
rightKerningGroup = H;
unicode = 0049;
},
{
glyphname = J;
lastChange = "2016-06-05 15:23:08 +0000";
layers = (
{
anchors = (
{
name = top;
position = "{219, 730}";
}
);
background = {
paths = (
{
closed = 1;
nodes = (
"123 81 LINE SMOOTH",
"118 -20 OFFCURVE",
"105 -87 OFFCURVE",
"21 -185 CURVE",
"65 -235 LINE",
"187 -138 OFFCURVE",
"251 -65 OFFCURVE",
"256 75 CURVE SMOOTH",
"278 626 LINE",
"360 643 LINE",
"366 700 LINE",
"51 700 LINE",
"45 643 LINE",
"144 625 LINE"
);
}
);
};
hints = (
{
place = "{133, 134}";
},
{
horizontal = 1;
place = "{-235, 21}";
target = up;
type = BottomGhost;
},
{
horizontal = 1;
place = "{700, -20}";
target = down;
type = TopGhost;
}
);
layerId = UUID0;
paths = (
{
closed = 1;
nodes = (
"123 81 LINE SMOOTH",
"118 -20 OFFCURVE",
"105 -87 OFFCURVE",
"21 -185 CURVE",
"65 -235 LINE",
"187 -138 OFFCURVE",
"251 -65 OFFCURVE",
"256 75 CURVE SMOOTH",
"278 626 LINE",
"360 643 LINE",
"366 700 LINE",
"51 700 LINE",
"45 643 LINE",
"144 625 LINE"
);
}
);
width = 367;
}
);
leftKerningGroup = J;
rightKerningGroup = J;
unicode = 004A;
},
{
glyphname = K;
lastChange = "2016-06-05 15:23:08 +0000";
layers = (
{
anchors = (
{
name = bottom;
position = "{362, -30}";
},
{
name = top;
position = "{396, 730}";
}
);
background = {
paths = (
{
closed = 1;
nodes = (
"294 387 LINE",
"536 632 LINE",
"466 642 LINE",
"475 700 LINE",
"713 700 LINE",
"706 643 LINE",
"632 628 LINE",
"386 386 LINE",
"386 380 LINE",
"482 351 OFFCURVE",
"515 312 OFFCURVE",
"546 220 CURVE SMOOTH",
"583 109 OFFCURVE",
"598 64 OFFCURVE",
"634 64 CURVE SMOOTH",
"654 64 OFFCURVE",
"673 72 OFFCURVE",
"691 82 CURVE",
"712 28 LINE",
"685 2 OFFCURVE",
"630 -14 OFFCURVE",
"593 -14 CURVE SMOOTH",
"482 -14 OFFCURVE",
"453 46 OFFCURVE",
"411 191 CURVE SMOOTH",
"386 276 OFFCURVE",
"369 328 OFFCURVE",
"292 339 CURVE"
);
},
{
closed = 1;
nodes = (
"119 70 LINE",
"40 57 LINE",
"34 0 LINE",
"341 0 LINE",
"347 57 LINE",
"256 70 LINE",
"278 627 LINE",
"359 644 LINE",
"365 700 LINE",
"66 700 LINE",
"60 644 LINE",
"143 627 LINE"
);
}
);
};
hints = (
{
place = "{131, 136}";
},
{
horizontal = 1;
place = "{-14, 78}";
},
{
horizontal = 1;
place = "{700, -20}";
target = down;
type = TopGhost;
},
{
horizontal = 1;
place = "{0, 21}";
target = up;
type = BottomGhost;
}
);
layerId = UUID0;
paths = (
{
closed = 1;
nodes = (
"294 387 LINE",
"536 632 LINE",
"466 642 LINE",
"475 700 LINE",
"713 700 LINE",
"706 643 LINE",
"632 628 LINE",
"386 386 LINE",
"386 380 LINE",
"482 351 OFFCURVE",
"515 312 OFFCURVE",
"546 220 CURVE SMOOTH",
"583 109 OFFCURVE",
"598 64 OFFCURVE",
"634 64 CURVE SMOOTH",
"654 64 OFFCURVE",
"673 72 OFFCURVE",
"691 82 CURVE",
"712 28 LINE",
"685 2 OFFCURVE",
"630 -14 OFFCURVE",
"593 -14 CURVE SMOOTH",
"482 -14 OFFCURVE",
"453 46 OFFCURVE",
"411 191 CURVE SMOOTH",
"386 276 OFFCURVE",
"369 328 OFFCURVE",
"292 339 CURVE"
);
},
{
closed = 1;
nodes = (
"119 70 LINE",
"40 57 LINE",
"34 0 LINE",
"341 0 LINE",
"347 57 LINE",
"256 70 LINE",
"278 627 LINE",
"359 644 LINE",
"365 700 LINE",
"66 700 LINE",
"60 644 LINE",
"143 627 LINE"
);
}
);
width = 709;
}
);
leftKerningGroup = H;
rightKerningGroup = K;
unicode = 004B;
},
{
glyphname = L;
lastChange = "2016-06-05 15:23:08 +0000";
layers = (
{
anchors = (
{
name = bottom;
position = "{308, -30}";
},
{
name = top;
position = "{223, 730}";
}
);
background = {
paths = (
{
closed = 1;
nodes = (
"35 0 LINE",
"547 0 LINE",
"573 202 LINE",
"505 202 LINE",
"489 151 LINE SMOOTH",
"470 90 OFFCURVE",
"445 71 OFFCURVE",
"384 71 CURVE SMOOTH",
"256 71 LINE",
"280 628 LINE",
"382 646 LINE",
"388 700 LINE",
"67 700 LINE",
"61 646 LINE",
"144 629 LINE",
"120 66 LINE",
"41 54 LINE"
);
}
);
};
hints = (
{
place = "{132, 136}";
},
{
horizontal = 1;
place = "{0, 71}";
},
{
horizontal = 1;
place = "{700, -20}";
target = down;
type = TopGhost;
}
);
layerId = UUID0;
paths = (
{
closed = 1;
nodes = (
"35 0 LINE",
"547 0 LINE",
"573 202 LINE",
"505 202 LINE",
"489 151 LINE SMOOTH",
"470 90 OFFCURVE",
"445 71 OFFCURVE",
"384 71 CURVE SMOOTH",
"256 71 LINE",
"280 628 LINE",
"382 646 LINE",
"388 700 LINE",
"67 700 LINE",
"61 646 LINE",
"144 629 LINE",
"120 66 LINE",
"41 54 LINE"
);
}
);
width = 594;
}
);
leftKerningGroup = H;
rightKerningGroup = L;
unicode = 004C;
},
{
glyphname = M;
lastChange = "2016-06-05 15:23:08 +0000";
layers = (
{
anchors = (
{
name = bottom;
position = "{462, -30}";
}
);
background = {
paths = (
{
closed = 1;
nodes = (
"732 69 LINE",
"650 56 LINE",
"644 0 LINE",
"939 0 LINE",
"945 56 LINE",
"857 69 LINE",
"837 630 LINE",
"909 644 LINE",
"915 700 LINE",
"658 700 LINE",
"486 140 LINE",
"331 700 LINE",
"72 700 LINE",
"66 646 LINE",
"150 629 LINE",
"110 70 LINE",
"28 56 LINE",
"22 0 LINE",
"273 0 LINE",
"279 56 LINE",
"190 70 LINE",
"228 602 LINE",
"402 -11 LINE",
"528 6 LINE",
"715 614 LINE"
);
}
);
};
hints = (
{
place = "{130, 79}";
},
{
place = "{723, 124}";
},
{
horizontal = 1;
place = "{0, 21}";
target = up;
type = BottomGhost;
},
{
horizontal = 1;
place = "{700, -20}";
target = down;
type = TopGhost;
},
{
horizontal = 1;
place = "{-11, 21}";
target = up;
type = BottomGhost;
}
);
layerId = UUID0;
paths = (
{
closed = 1;
nodes = (
"732 69 LINE",
"650 56 LINE",
"644 0 LINE",
"939 0 LINE",
"945 56 LINE",
"857 69 LINE",
"837 630 LINE",
"909 644 LINE",
"915 700 LINE",
"658 700 LINE",
"486 140 LINE",
"331 700 LINE",
"72 700 LINE",
"66 646 LINE",
"150 629 LINE",
"110 70 LINE",
"28 56 LINE",
"22 0 LINE",
"273 0 LINE",
"279 56 LINE",
"190 70 LINE",
"228 602 LINE",
"402 -11 LINE",
"528 6 LINE",
"715 614 LINE"
);
}
);
width = 947;
}
);
unicode = 004D;
},
{
glyphname = N;
lastChange = "2016-06-05 15:23:08 +0000";
layers = (
{
anchors = (
{
name = bottom;
position = "{362, -30}";
},
{
name = top;
position = "{416, 730}";
}
);
background = {
paths = (
{
closed = 1;
nodes = (
"318 700 LINE",
"74 700 LINE",
"68 642 LINE",
"147 631 LINE",
"119 69 LINE",
"42 56 LINE",
"36 0 LINE",
"287 0 LINE",
"293 56 LINE",
"204 69 LINE",
"224 601 LINE",
"511 -14 LINE",
"646 0 LINE",
"671 627 LINE",
"751 644 LINE",
"757 700 LINE",
"510 700 LINE",
"504 644 LINE",
"589 627 LINE",
"571 151 LINE"
);
}
);
};
hints = (
{
place = "{133, 81}";
},
{
place = "{580, 78}";
},
{
horizontal = 1;
place = "{700, -20}";
target = down;
type = TopGhost;
},
{
horizontal = 1;
place = "{0, 21}";
target = up;
type = BottomGhost;
},
{
horizontal = 1;
place = "{-14, 21}";
target = up;
type = BottomGhost;
}
);
layerId = UUID0;
paths = (
{
closed = 1;
nodes = (
"318 700 LINE",
"74 700 LINE",
"68 642 LINE",
"147 631 LINE",
"119 69 LINE",
"42 56 LINE",
"36 0 LINE",
"287 0 LINE",
"293 56 LINE",
"204 69 LINE",
"224 601 LINE",
"511 -14 LINE",
"646 0 LINE",
"671 627 LINE",
"751 644 LINE",
"757 700 LINE",
"510 700 LINE",
"504 644 LINE",
"589 627 LINE",
"571 151 LINE"
);
}
);
width = 759;
}
);
leftKerningGroup = H;
rightKerningGroup = N;
unicode = 004E;
},
{
glyphname = O;
lastChange = "2016-06-05 15:23:08 +0000";
layers = (
{
anchors = (
{
name = bottom;
position = "{358, -30}";
},
{
name = top;
position = "{393, 730}";
}
);
background = {
paths = (
{
closed = 1;
nodes = (
"52 138 OFFCURVE",
"151 -14 OFFCURVE",
"359 -14 CURVE SMOOTH",
"549 -14 OFFCURVE",
"693 125 OFFCURVE",
"693 382 CURVE SMOOTH",
"693 600 OFFCURVE",
"569 715 OFFCURVE",
"391 715 CURVE SMOOTH",
"216 715 OFFCURVE",
"52 610 OFFCURVE",
"52 328 CURVE SMOOTH"
);
},
{
closed = 1;
nodes = (
"193 563 OFFCURVE",
"279 641 OFFCURVE",
"377 641 CURVE SMOOTH",
"486 641 OFFCURVE",
"549 549 OFFCURVE",
"549 364 CURVE SMOOTH",
"549 140 OFFCURVE",
"475 62 OFFCURVE",
"372 62 CURVE SMOOTH",
"255 62 OFFCURVE",
"193 164 OFFCURVE",
"193 349 CURVE SMOOTH"
);
}
);
};
hints = (
{
place = "{52, 141}";
},
{
place = "{549, 144}";
},
{
horizontal = 1;
place = "{-14, 76}";
},
{
horizontal = 1;
place = "{641, 74}";
}
);
layerId = UUID0;
paths = (
{
closed = 1;
nodes = (
"52 138 OFFCURVE",
"151 -14 OFFCURVE",
"359 -14 CURVE SMOOTH",
"549 -14 OFFCURVE",
"693 125 OFFCURVE",
"693 382 CURVE SMOOTH",
"693 600 OFFCURVE",
"569 715 OFFCURVE",
"391 715 CURVE SMOOTH",
"216 715 OFFCURVE",
"52 610 OFFCURVE",
"52 328 CURVE SMOOTH"
);
},
{
closed = 1;
nodes = (
"193 563 OFFCURVE",
"279 641 OFFCURVE",
"377 641 CURVE SMOOTH",
"486 641 OFFCURVE",
"549 549 OFFCURVE",
"549 364 CURVE SMOOTH",
"549 140 OFFCURVE",
"475 62 OFFCURVE",
"372 62 CURVE SMOOTH",
"255 62 OFFCURVE",
"193 164 OFFCURVE",
"193 349 CURVE SMOOTH"
);
}
);
width = 721;
}
);
leftKerningGroup = O;
rightKerningGroup = O;
unicode = 004F;
},
{
glyphname = P;
lastChange = "2016-06-05 15:23:08 +0000";
layers = (
{
background = {
paths = (
{
closed = 1;
nodes = (
"296 280 LINE",
"309 278 OFFCURVE",
"322 277 OFFCURVE",
"343 277 CURVE SMOOTH",
"501 277 OFFCURVE",
"604 375 OFFCURVE",
"604 502 CURVE SMOOTH",
"604 645 OFFCURVE",
"493 700 OFFCURVE",
"343 700 CURVE SMOOTH",
"67 700 LINE",
"61 644 LINE",
"145 627 LINE",
"120 70 LINE",
"34 54 LINE",
"29 0 LINE",
"365 0 LINE",
"369 55 LINE",
"251 69 LINE",
"276 633 LINE",
"298 633 LINE SMOOTH",
"386 633 OFFCURVE",
"461 603 OFFCURVE",
"461 500 CURVE SMOOTH",
"461 397 OFFCURVE",
"419 344 OFFCURVE",
"330 344 CURVE SMOOTH",
"319 344 OFFCURVE",
"312 344 OFFCURVE",
"299 345 CURVE"
);
}
);
};
hints = (
{
place = "{132, 131}";
},
{
place = "{461, 143}";
},
{
horizontal = 1;
place = "{277, 67}";
},
{
horizontal = 1;
place = "{633, 67}";
},
{
horizontal = 1;
place = "{0, 21}";
target = up;
type = BottomGhost;
}
);
layerId = UUID0;
paths = (
{
closed = 1;
nodes = (
"296 280 LINE",
"309 278 OFFCURVE",
"322 277 OFFCURVE",
"343 277 CURVE SMOOTH",
"501 277 OFFCURVE",
"604 375 OFFCURVE",
"604 502 CURVE SMOOTH",
"604 645 OFFCURVE",
"493 700 OFFCURVE",
"343 700 CURVE SMOOTH",
"67 700 LINE",
"61 644 LINE",
"145 627 LINE",
"120 70 LINE",
"34 54 LINE",
"29 0 LINE",
"365 0 LINE",
"369 55 LINE",
"251 69 LINE",
"276 633 LINE",
"298 633 LINE SMOOTH",
"386 633 OFFCURVE",
"461 603 OFFCURVE",
"461 500 CURVE SMOOTH",
"461 397 OFFCURVE",
"419 344 OFFCURVE",
"330 344 CURVE SMOOTH",
"319 344 OFFCURVE",
"312 344 OFFCURVE",
"299 345 CURVE"
);
}
);
width = 609;
}
);
leftKerningGroup = H;
rightKerningGroup = P;
unicode = 0050;
},
{
glyphname = Q;
lastChange = "2016-06-05 15:23:08 +0000";
layers = (
{
background = {
paths = (
{
closed = 1;
nodes = (
"53 202 OFFCURVE",
"126 76 OFFCURVE",
"272 39 CURVE",
"272 32 LINE",
"238 25 OFFCURVE",
"200 9 OFFCURVE",
"176 -3 CURVE",
"207 -61 LINE",
"253 -40 OFFCURVE",
"285 -26 OFFCURVE",
"327 -26 CURVE SMOOTH",
"381 -26 OFFCURVE",
"407 -50 OFFCURVE",
"484 -114 CURVE SMOOTH",
"537 -158 OFFCURVE",
"592 -185 OFFCURVE",
"642 -185 CURVE SMOOTH",
"699 -185 OFFCURVE",
"739 -148 OFFCURVE",
"739 -99 CURVE SMOOTH",
"739 -60 OFFCURVE",
"711 -27 OFFCURVE",
"643 -27 CURVE",
"630 -68 LINE SMOOTH",
"621 -95 OFFCURVE",
"590 -80 OFFCURVE",
"525 -30 CURVE SMOOTH",
"487 -1 OFFCURVE",
"445 15 OFFCURVE",
"380 20 CURVE",
"380 28 LINE",
"557 38 OFFCURVE",
"694 168 OFFCURVE",
"694 392 CURVE SMOOTH",
"694 610 OFFCURVE",
"570 715 OFFCURVE",
"392 715 CURVE SMOOTH",
"217 715 OFFCURVE",
"53 620 OFFCURVE",
"53 338 CURVE SMOOTH"
);
},
{
closed = 1;
nodes = (
"194 573 OFFCURVE",
"280 641 OFFCURVE",
"378 641 CURVE SMOOTH",
"487 641 OFFCURVE",
"550 559 OFFCURVE",
"550 374 CURVE SMOOTH",
"550 180 OFFCURVE",
"476 99 OFFCURVE",
"373 99 CURVE SMOOTH",
"256 99 OFFCURVE",
"194 189 OFFCURVE",
"194 359 CURVE SMOOTH"
);
}
);
};
hints = (
{
place = "{53, 141}";
},
{
place = "{550, 144}";
},
{
place = "{550, 189}";
},
{
horizontal = 1;
place = "{-185, 158}";
},
{
horizontal = 1;
place = "{-26, 46}";
},
{
horizontal = 1;
place = "{28, 71}";
},
{
horizontal = 1;
place = "{641, 74}";
}
);
layerId = UUID0;
paths = (
{
closed = 1;
nodes = (
"53 202 OFFCURVE",
"126 76 OFFCURVE",
"272 39 CURVE",
"272 32 LINE",
"238 25 OFFCURVE",
"200 9 OFFCURVE",
"176 -3 CURVE",
"207 -61 LINE",
"253 -40 OFFCURVE",
"285 -26 OFFCURVE",
"327 -26 CURVE SMOOTH",
"381 -26 OFFCURVE",
"407 -50 OFFCURVE",
"484 -114 CURVE SMOOTH",
"537 -158 OFFCURVE",
"592 -185 OFFCURVE",
"642 -185 CURVE SMOOTH",
"699 -185 OFFCURVE",
"739 -148 OFFCURVE",
"739 -99 CURVE SMOOTH",
"739 -60 OFFCURVE",
"711 -27 OFFCURVE",
"643 -27 CURVE",
"630 -68 LINE SMOOTH",
"621 -95 OFFCURVE",
"590 -80 OFFCURVE",
"525 -30 CURVE SMOOTH",
"487 -1 OFFCURVE",
"445 15 OFFCURVE",
"380 20 CURVE",
"380 28 LINE",
"557 38 OFFCURVE",
"694 168 OFFCURVE",
"694 392 CURVE SMOOTH",
"694 610 OFFCURVE",
"570 715 OFFCURVE",
"392 715 CURVE SMOOTH",
"217 715 OFFCURVE",
"53 620 OFFCURVE",
"53 338 CURVE SMOOTH"
);
},
{
closed = 1;
nodes = (
"194 573 OFFCURVE",
"280 641 OFFCURVE",
"378 641 CURVE SMOOTH",
"487 641 OFFCURVE",
"550 559 OFFCURVE",
"550 374 CURVE SMOOTH",
"550 180 OFFCURVE",
"476 99 OFFCURVE",
"373 99 CURVE SMOOTH",
"256 99 OFFCURVE",
"194 189 OFFCURVE",
"194 359 CURVE SMOOTH"
);
}
);
width = 722;
}
);
leftKerningGroup = O;
rightKerningGroup = O;
unicode = 0051;
},
{
glyphname = R;
lastChange = "2016-06-05 15:23:08 +0000";
layers = (
{
anchors = (
{
name = bottom;
position = "{351, -30}";
},
{
name = top;
position = "{344, 730}";
}
);
background = {
paths = (
{
closed = 1;
nodes = (
"294 321 LINE",
"330 305 OFFCURVE",
"348 276 OFFCURVE",
"381 197 CURVE SMOOTH",
"420 102 LINE SMOOTH",
"454 19 OFFCURVE",
"493 -14 OFFCURVE",
"577 -14 CURVE SMOOTH",
"626 -14 OFFCURVE",
"669 5 OFFCURVE",
"696 31 CURVE",
"673 82 LINE",
"655 71 OFFCURVE",
"640 65 OFFCURVE",
"619 65 CURVE SMOOTH",
"584 65 OFFCURVE",
"571 90 OFFCURVE",
"551 131 CURVE SMOOTH",
"496 245 LINE SMOOTH",
"473 294 OFFCURVE",
"437 322 OFFCURVE",
"383 338 CURVE",
"383 341 LINE",
"473 350 OFFCURVE",
"596 406 OFFCURVE",
"596 530 CURVE SMOOTH",
"596 659 OFFCURVE",
"492 700 OFFCURVE",
"342 700 CURVE SMOOTH",
"66 700 LINE",
"60 645 LINE",
"144 628 LINE",
"119 70 LINE",
"33 54 LINE",
"28 0 LINE",
"344 0 LINE",
"349 54 LINE",
"253 68 LINE",
"274 633 LINE",
"295 633 LINE SMOOTH",
"368 633 OFFCURVE",
"455 617 OFFCURVE",
"455 523 CURVE SMOOTH",
"455 434 OFFCURVE",
"397 381 OFFCURVE",
"299 374 CURVE"
);
}
);
};
hints = (
{
place = "{131, 132}";
},
{
place = "{455, 141}";
},
{
horizontal = 1;
place = "{-14, 79}";
},
{
horizontal = 1;
place = "{633, 67}";
},
{
horizontal = 1;
place = "{0, 21}";
target = up;
type = BottomGhost;
}
);
layerId = UUID0;
paths = (
{
closed = 1;
nodes = (
"294 321 LINE",
"330 305 OFFCURVE",
"348 276 OFFCURVE",
"381 197 CURVE SMOOTH",
"420 102 LINE SMOOTH",
"454 19 OFFCURVE",
"493 -14 OFFCURVE",
"577 -14 CURVE SMOOTH",
"626 -14 OFFCURVE",
"669 5 OFFCURVE",
"696 31 CURVE",
"673 82 LINE",
"655 71 OFFCURVE",
"640 65 OFFCURVE",
"619 65 CURVE SMOOTH",
"584 65 OFFCURVE",
"571 90 OFFCURVE",
"551 131 CURVE SMOOTH",
"496 245 LINE SMOOTH",
"473 294 OFFCURVE",
"437 322 OFFCURVE",
"383 338 CURVE",
"383 341 LINE",
"473 350 OFFCURVE",
"596 406 OFFCURVE",
"596 530 CURVE SMOOTH",
"596 659 OFFCURVE",
"492 700 OFFCURVE",
"342 700 CURVE SMOOTH",
"66 700 LINE",
"60 645 LINE",
"144 628 LINE",
"119 70 LINE",
"33 54 LINE",
"28 0 LINE",
"344 0 LINE",
"349 54 LINE",
"253 68 LINE",
"274 633 LINE",
"295 633 LINE SMOOTH",
"368 633 OFFCURVE",
"455 617 OFFCURVE",
"455 523 CURVE SMOOTH",
"455 434 OFFCURVE",
"397 381 OFFCURVE",
"299 374 CURVE"
);
}
);
width = 697;
}
);
leftKerningGroup = H;
rightKerningGroup = R;
unicode = 0052;
},
{
glyphname = S;
lastChange = "2016-06-05 15:23:08 +0000";
layers = (
{
anchors = (
{
name = bottom;
position = "{242, -30}";
},
{
name = top;
position = "{304, 730}";
}
);
background = {
paths = (
{
closed = 1;
nodes = (
"501 434 OFFCURVE",
"181 406 OFFCURVE",
"181 548 CURVE SMOOTH",
"181 605 OFFCURVE",
"221 644 OFFCURVE",
"300 644 CURVE SMOOTH",
"374 644 OFFCURVE",
"395 617 OFFCURVE",
"375 575 CURVE SMOOTH",
"354 532 LINE",
"366 519 OFFCURVE",
"394 504 OFFCURVE",
"425 504 CURVE SMOOTH",
"463 504 OFFCURVE",
"500 531 OFFCURVE",
"500 576 CURVE SMOOTH",
"500 665 OFFCURVE",
"414 715 OFFCURVE",
"305 715 CURVE SMOOTH",
"132 715 OFFCURVE",
"69 607 OFFCURVE",
"69 513 CURVE SMOOTH",
"69 286 OFFCURVE",
"380 325 OFFCURVE",
"380 179 CURVE SMOOTH",
"380 98 OFFCURVE",
"325 61 OFFCURVE",
"248 61 CURVE SMOOTH",
"161 61 OFFCURVE",
"155 95 OFFCURVE",
"174 132 CURVE SMOOTH",
"189 162 LINE",
"177 179 OFFCURVE",
"144 199 OFFCURVE",
"111 199 CURVE SMOOTH",
"62 199 OFFCURVE",
"31 165 OFFCURVE",
"31 115 CURVE SMOOTH",
"31 47 OFFCURVE",
"101 -14 OFFCURVE",
"236 -14 CURVE SMOOTH",
"386 -14 OFFCURVE",
"501 77 OFFCURVE",
"501 207 CURVE SMOOTH"
);
}
);
};
hints = (
{
place = "{31, 150}";
},
{
place = "{69, 112}";
},
{
place = "{380, 121}";
},
{
horizontal = 1;
place = "{-14, 75}";
},
{
horizontal = 1;
place = "{644, 71}";
}
);
layerId = UUID0;
paths = (
{
closed = 1;
nodes = (
"501 434 OFFCURVE",
"181 406 OFFCURVE",
"181 548 CURVE SMOOTH",
"181 605 OFFCURVE",
"221 644 OFFCURVE",
"300 644 CURVE SMOOTH",
"374 644 OFFCURVE",
"395 617 OFFCURVE",
"375 575 CURVE SMOOTH",
"354 532 LINE",
"366 519 OFFCURVE",
"394 504 OFFCURVE",
"425 504 CURVE SMOOTH",
"463 504 OFFCURVE",
"500 531 OFFCURVE",
"500 576 CURVE SMOOTH",
"500 665 OFFCURVE",
"414 715 OFFCURVE",
"305 715 CURVE SMOOTH",
"132 715 OFFCURVE",
"69 607 OFFCURVE",
"69 513 CURVE SMOOTH",
"69 286 OFFCURVE",
"380 325 OFFCURVE",
"380 179 CURVE SMOOTH",
"380 98 OFFCURVE",
"325 61 OFFCURVE",
"248 61 CURVE SMOOTH",
"161 61 OFFCURVE",
"155 95 OFFCURVE",
"174 132 CURVE SMOOTH",
"189 162 LINE",
"177 179 OFFCURVE",
"144 199 OFFCURVE",
"111 199 CURVE SMOOTH",
"62 199 OFFCURVE",
"31 165 OFFCURVE",
"31 115 CURVE SMOOTH",
"31 47 OFFCURVE",
"101 -14 OFFCURVE",
"236 -14 CURVE SMOOTH",
"386 -14 OFFCURVE",
"501 77 OFFCURVE",
"501 207 CURVE SMOOTH"
);
}
);
width = 521;
}
);
leftKerningGroup = S;
rightKerningGroup = S;
unicode = 0053;
},
{
glyphname = T;
lastChange = "2016-06-05 15:23:08 +0000";
layers = (
{
anchors = (
{
name = bottom;
position = "{319, -30}";
},
{
name = top;
position = "{352, 730}";
}
);
background = {
paths = (
{
closed = 1;
nodes = (
"145 0 LINE",
"488 0 LINE",
"494 56 LINE",
"388 68 LINE",
"414 630 LINE",
"478 630 LINE SMOOTH",
"545 630 OFFCURVE",
"556 607 OFFCURVE",
"571 554 CURVE SMOOTH",
"587 499 LINE",
"651 509 LINE",
"634 700 LINE",
"59 700 LINE",
"33 510 LINE",
"99 499 LINE",
"114 554 LINE SMOOTH",
"130 612 OFFCURVE",
"144 630 OFFCURVE",
"212 630 CURVE SMOOTH",
"278 630 LINE",
"253 69 LINE",
"151 56 LINE"
);
}
);
};
hints = (
{
place = "{265, 136}";
},
{
horizontal = 1;
place = "{630, 70}";
},
{
horizontal = 1;
place = "{0, 21}";
target = up;
type = BottomGhost;
}
);
layerId = UUID0;
paths = (
{
closed = 1;
nodes = (
"145 0 LINE",
"488 0 LINE",
"494 56 LINE",
"388 68 LINE",
"414 630 LINE",
"478 630 LINE SMOOTH",
"545 630 OFFCURVE",
"556 607 OFFCURVE",
"571 554 CURVE SMOOTH",
"587 499 LINE",
"651 509 LINE",
"634 700 LINE",
"59 700 LINE",
"33 510 LINE",
"99 499 LINE",
"114 554 LINE SMOOTH",
"130 612 OFFCURVE",
"144 630 OFFCURVE",
"212 630 CURVE SMOOTH",
"278 630 LINE",
"253 69 LINE",
"151 56 LINE"
);
}
);
width = 635;
}
);
leftKerningGroup = T;
rightKerningGroup = T;
unicode = 0054;
},
{
glyphname = U;
lastChange = "2016-06-05 15:23:08 +0000";
layers = (
{
anchors = (
{
name = bottom;
position = "{370, -30}";
},
{
name = top;
position = "{418, 730}";
}
);
background = {
paths = (
{
closed = 1;
nodes = (
"680 627 LINE",
"750 644 LINE",
"756 700 LINE",
"484 700 LINE",
"478 644 LINE",
"556 627 LINE",
"547 570 LINE SMOOTH",
"530 463 OFFCURVE",
"486 277 OFFCURVE",
"432 173 CURVE SMOOTH",
"410 131 OFFCURVE",
"372 87 OFFCURVE",
"322 87 CURVE SMOOTH",
"254 87 OFFCURVE",
"241 138 OFFCURVE",
"246 230 CURVE SMOOTH",
"267 627 LINE",
"349 644 LINE",
"355 700 LINE",
"67 700 LINE",
"61 644 LINE",
"134 629 LINE",
"111 231 LINE SMOOTH",
"102 83 OFFCURVE",
"142 -14 OFFCURVE",
"295 -14 CURVE SMOOTH",
"461 -14 OFFCURVE",
"513 146 OFFCURVE",
"565 365 CURVE",
"569 365 LINE",
"531 12 LINE",
"538 0 LINE",
"725 0 LINE",
"732 56 LINE",
"649 69 LINE"
);
}
);
};
hints = (
{
place = "{122, 134}";
},
{
horizontal = 1;
place = "{-14, 101}";
},
{
horizontal = 1;
place = "{700, -20}";
target = down;
type = TopGhost;
},
{
horizontal = 1;
place = "{0, 21}";
target = up;
type = BottomGhost;
}
);
layerId = UUID0;
paths = (
{
closed = 1;
nodes = (
"680 627 LINE",
"750 644 LINE",
"756 700 LINE",
"484 700 LINE",
"478 644 LINE",
"556 627 LINE",
"547 570 LINE SMOOTH",
"530 463 OFFCURVE",
"486 277 OFFCURVE",
"432 173 CURVE SMOOTH",
"410 131 OFFCURVE",
"372 87 OFFCURVE",
"322 87 CURVE SMOOTH",
"254 87 OFFCURVE",
"241 138 OFFCURVE",
"246 230 CURVE SMOOTH",
"267 627 LINE",
"349 644 LINE",
"355 700 LINE",
"67 700 LINE",
"61 644 LINE",
"134 629 LINE",
"111 231 LINE SMOOTH",
"102 83 OFFCURVE",
"142 -14 OFFCURVE",
"295 -14 CURVE SMOOTH",
"461 -14 OFFCURVE",
"513 146 OFFCURVE",
"565 365 CURVE",
"569 365 LINE",
"531 12 LINE",
"538 0 LINE",
"725 0 LINE",
"732 56 LINE",
"649 69 LINE"
);
}
);
width = 769;
}
);
leftKerningGroup = U;
rightKerningGroup = H;
unicode = 0055;
},
{
glyphname = V;
lastChange = "2016-06-05 15:23:08 +0000";
layers = (
{
anchors = (
{
name = top;
position = "{403, 730}";
}
);
background = {
paths = (
{
closed = 1;
nodes = (
"233 630 LINE",
"321 643 LINE",
"327 700 LINE",
"30 700 LINE",
"23 643 LINE",
"96 628 LINE",
"286 -14 LINE",
"419 -1 LINE",
"649 625 LINE",
"727 642 LINE",
"734 700 LINE",
"487 700 LINE",
"481 646 LINE",
"565 628 LINE",
"381 112 LINE",
"377 112 LINE"
);
}
);
};
hints = (
{
horizontal = 1;
place = "{700, -20}";
target = down;
type = TopGhost;
},
{
horizontal = 1;
place = "{-14, 21}";
target = up;
type = BottomGhost;
}
);
layerId = UUID0;
paths = (
{
closed = 1;
nodes = (
"233 630 LINE",
"321 643 LINE",
"327 700 LINE",
"30 700 LINE",
"23 643 LINE",
"96 628 LINE",
"286 -14 LINE",
"419 -1 LINE",
"649 625 LINE",
"727 642 LINE",
"734 700 LINE",
"487 700 LINE",
"481 646 LINE",
"565 628 LINE",
"381 112 LINE",
"377 112 LINE"
);
}
);
width = 705;
}
);
leftKerningGroup = V;
rightKerningGroup = V;
unicode = 0056;
},
{
glyphname = W;
lastChange = "2016-06-05 15:23:08 +0000";
layers = (
{
anchors = (
{
name = top;
position = "{522, 730}";
}
);
background = {
paths = (
{
closed = 1;
nodes = (
"568 701 LINE",
"432 685 LINE",
"482 480 LINE",
"348 114 LINE",
"344 114 LINE",
"224 630 LINE",
"315 643 LINE",
"321 700 LINE",
"21 700 LINE",
"14 643 LINE",
"87 628 LINE",
"248 -10 LINE",
"388 -2 LINE",
"517 367 LINE",
"621 -10 LINE",
"769 0 LINE",
"953 625 LINE",
"1030 642 LINE",
"1037 700 LINE",
"790 700 LINE",
"784 646 LINE",
"868 628 LINE",
"723 122 LINE",
"719 122 LINE"
);
}
);
};
hints = (
{
horizontal = 1;
place = "{701, -20}";
target = down;
type = TopGhost;
},
{
horizontal = 1;
place = "{700, -20}";
target = down;
type = TopGhost;
},
{
horizontal = 1;
place = "{-10, 21}";
target = up;
type = BottomGhost;
}
);
layerId = UUID0;
paths = (
{
closed = 1;
nodes = (
"568 701 LINE",
"432 685 LINE",
"482 480 LINE",
"348 114 LINE",
"344 114 LINE",
"224 630 LINE",
"315 643 LINE",
"321 700 LINE",
"21 700 LINE",
"14 643 LINE",
"87 628 LINE",
"248 -10 LINE",
"388 -2 LINE",
"517 367 LINE",
"621 -10 LINE",
"769 0 LINE",
"953 625 LINE",
"1030 642 LINE",
"1037 700 LINE",
"790 700 LINE",
"784 646 LINE",
"868 628 LINE",
"723 122 LINE",
"719 122 LINE"
);
}
);
width = 1003;
}
);
leftKerningGroup = W;
rightKerningGroup = W;
unicode = 0057;
},
{
glyphname = X;
lastChange = "2016-06-05 15:23:08 +0000";
layers = (
{
background = {
paths = (
{
closed = 1;
nodes = (
"343 287 LINE",
"483 69 LINE",
"410 57 LINE",
"404 0 LINE",
"708 0 LINE",
"715 57 LINE",
"632 72 LINE",
"438 359 LINE",
"626 625 LINE",
"704 642 LINE",
"711 700 LINE",
"463 700 LINE",
"457 646 LINE",
"536 628 LINE",
"394 424 LINE",
"262 631 LINE",
"338 643 LINE",
"344 700 LINE",
"50 700 LINE",
"43 643 LINE",
"113 629 LINE",
"296 353 LINE",
"96 74 LINE",
"19 58 LINE",
"12 0 LINE",
"260 0 LINE",
"266 54 LINE",
"188 71 LINE"
);
}
);
};
hints = (
{
horizontal = 1;
place = "{0, 21}";
target = up;
type = BottomGhost;
},
{
horizontal = 1;
place = "{700, -20}";
target = down;
type = TopGhost;
}
);
layerId = UUID0;
paths = (
{
closed = 1;
nodes = (
"343 287 LINE",
"483 69 LINE",
"410 57 LINE",
"404 0 LINE",
"708 0 LINE",
"715 57 LINE",
"632 72 LINE",
"438 359 LINE",
"626 625 LINE",
"704 642 LINE",
"711 700 LINE",
"463 700 LINE",
"457 646 LINE",
"536 628 LINE",
"394 424 LINE",
"262 631 LINE",
"338 643 LINE",
"344 700 LINE",
"50 700 LINE",
"43 643 LINE",
"113 629 LINE",
"296 353 LINE",
"96 74 LINE",
"19 58 LINE",
"12 0 LINE",
"260 0 LINE",
"266 54 LINE",
"188 71 LINE"
);
}
);
width = 702;
}
);
unicode = 0058;
},
{
glyphname = Y;
lastChange = "2016-06-05 15:23:08 +0000";
layers = (
{
anchors = (
{
name = top;
position = "{387, 730}";
}
);
background = {
paths = (
{
closed = 1;
nodes = (
"222 630 LINE",
"307 643 LINE",
"313 700 LINE",
"24 700 LINE",
"17 643 LINE",
"85 628 LINE",
"276 262 LINE",
"265 69 LINE",
"183 56 LINE",
"177 0 LINE",
"485 0 LINE",
"491 56 LINE",
"399 69 LINE",
"407 260 LINE",
"624 625 LINE",
"702 642 LINE",
"709 700 LINE",
"459 700 LINE",
"453 646 LINE",
"536 628 LINE",
"372 344 LINE",
"368 344 LINE"
);
}
);
};
hints = (
{
place = "{270, 133}";
},
{
horizontal = 1;
place = "{700, -20}";
target = down;
type = TopGhost;
},
{
horizontal = 1;
place = "{0, 21}";
target = up;
type = BottomGhost;
}
);
layerId = UUID0;
paths = (
{
closed = 1;
nodes = (
"222 630 LINE",
"307 643 LINE",
"313 700 LINE",
"24 700 LINE",
"17 643 LINE",
"85 628 LINE",
"276 262 LINE",
"265 69 LINE",
"183 56 LINE",
"177 0 LINE",
"485 0 LINE",
"491 56 LINE",
"399 69 LINE",
"407 260 LINE",
"624 625 LINE",
"702 642 LINE",
"709 700 LINE",
"459 700 LINE",
"453 646 LINE",
"536 628 LINE",
"372 344 LINE",
"368 344 LINE"
);
}
);
width = 675;
}
);
leftKerningGroup = Y;
rightKerningGroup = Y;
unicode = 0059;
},
{
glyphname = Z;
lastChange = "2016-06-05 15:23:08 +0000";
layers = (
{
anchors = (
{
name = bottom;
position = "{319, -30}";
},
{
name = top;
position = "{341, 730}";
}
);
background = {
paths = (
{
closed = 1;
nodes = (
"593 700 LINE",
"95 700 LINE",
"69 505 LINE",
"138 495 LINE",
"153 547 LINE SMOOTH",
"174 618 OFFCURVE",
"190 628 OFFCURVE",
"262 628 CURVE SMOOTH",
"436 628 LINE",
"50 52 LINE",
"49 0 LINE",
"576 0 LINE",
"602 212 LINE",
"535 212 LINE",
"522 167 LINE SMOOTH",
"498 83 OFFCURVE",
"466 72 OFFCURVE",
"392 72 CURVE SMOOTH",
"217 72 LINE",
"599 642 LINE"
);
}
);
};
hints = (
{
horizontal = 1;
place = "{0, 72}";
},
{
horizontal = 1;
place = "{628, 72}";
}
);
layerId = UUID0;
paths = (
{
closed = 1;
nodes = (
"593 700 LINE",
"95 700 LINE",
"69 505 LINE",
"138 495 LINE",
"153 547 LINE SMOOTH",
"174 618 OFFCURVE",
"190 628 OFFCURVE",
"262 628 CURVE SMOOTH",
"436 628 LINE",
"50 52 LINE",
"49 0 LINE",
"576 0 LINE",
"602 212 LINE",
"535 212 LINE",
"522 167 LINE SMOOTH",
"498 83 OFFCURVE",
"466 72 OFFCURVE",
"392 72 CURVE SMOOTH",
"217 72 LINE",
"599 642 LINE"
);
}
);
width = 623;
}
);
leftKerningGroup = Z;
rightKerningGroup = Z;
unicode = 005A;
},
{
glyphname = a;
lastChange = "2016-06-05 15:23:08 +0000";
layers = (
{
anchors = (
{
name = bottom;
position = "{273, -30}";
},
{
name = top;
position = "{302, 550}";
}
);
background = {
paths = (
{
closed = 1;
nodes = (
"503 512 LINE",
"466 525 LINE",
"394 502 LINE",
"370 514 OFFCURVE",
"327 527 OFFCURVE",
"280 527 CURVE SMOOTH",
"121 527 OFFCURVE",
"32 390 OFFCURVE",
"32 201 CURVE SMOOTH",
"32 73 OFFCURVE",
"88 -14 OFFCURVE",
"191 -14 CURVE SMOOTH",
"301 -14 OFFCURVE",
"326 61 OFFCURVE",
"361 185 CURVE SMOOTH",
"383 263 LINE",
"390 262 LINE",
"374 89 LINE SMOOTH",
"369 29 OFFCURVE",
"391 -14 OFFCURVE",
"464 -14 CURVE SMOOTH",
"509 -14 OFFCURVE",
"560 13 OFFCURVE",
"582 34 CURVE",
"558 82 LINE",
"544 72 OFFCURVE",
"528 65 OFFCURVE",
"515 65 CURVE SMOOTH",
"493 65 OFFCURVE",
"489 78 OFFCURVE",
"490 108 CURVE SMOOTH"
);
},
{
closed = 1;
nodes = (
"173 68 OFFCURVE",
"166 107 OFFCURVE",
"166 187 CURVE SMOOTH",
"166 340 OFFCURVE",
"203 456 OFFCURVE",
"294 456 CURVE SMOOTH",
"323 456 OFFCURVE",
"345 451 OFFCURVE",
"370 438 CURVE",
"336 314 LINE SMOOTH",
"288 141 OFFCURVE",
"267 68 OFFCURVE",
"217 68 CURVE SMOOTH"
);
}
);
};
hints = (
{
place = "{32, 134}";
},
{
horizontal = 1;
place = "{456, 71}";
},
{
horizontal = 1;
origin = "{1, 0}";
target = "{0, 11}";
}
);
layerId = UUID0;
paths = (
{
closed = 1;
nodes = (
"503 512 LINE",
"466 525 LINE",
"394 502 LINE",
"370 514 OFFCURVE",
"327 527 OFFCURVE",
"280 527 CURVE SMOOTH",
"121 527 OFFCURVE",
"32 390 OFFCURVE",
"32 201 CURVE SMOOTH",
"32 73 OFFCURVE",
"88 -14 OFFCURVE",
"191 -14 CURVE SMOOTH",
"301 -14 OFFCURVE",
"326 61 OFFCURVE",
"361 185 CURVE SMOOTH",
"383 263 LINE",
"390 262 LINE",
"374 89 LINE SMOOTH",
"369 29 OFFCURVE",
"391 -14 OFFCURVE",
"464 -14 CURVE SMOOTH",
"509 -14 OFFCURVE",
"560 13 OFFCURVE",
"582 34 CURVE",
"558 82 LINE",
"544 72 OFFCURVE",
"528 65 OFFCURVE",
"515 65 CURVE SMOOTH",
"493 65 OFFCURVE",
"489 78 OFFCURVE",
"490 108 CURVE SMOOTH"
);
},
{
closed = 1;
nodes = (
"173 68 OFFCURVE",
"166 107 OFFCURVE",
"166 187 CURVE SMOOTH",
"166 340 OFFCURVE",
"203 456 OFFCURVE",
"294 456 CURVE SMOOTH",
"323 456 OFFCURVE",
"345 451 OFFCURVE",
"370 438 CURVE",
"336 314 LINE SMOOTH",
"288 141 OFFCURVE",
"267 68 OFFCURVE",
"217 68 CURVE SMOOTH"
);
}
);
width = 579;
}
);
leftKerningGroup = o;
rightKerningGroup = a;
unicode = 0061;
},
{
glyphname = b;
lastChange = "2016-06-05 15:23:08 +0000";
layers = (
{
background = {
paths = (
{
closed = 1;
nodes = (
"436 -14 OFFCURVE",
"542 100 OFFCURVE",
"542 308 CURVE SMOOTH",
"542 440 OFFCURVE",
"494 527 OFFCURVE",
"386 527 CURVE SMOOTH",
"290 527 OFFCURVE",
"248 467 OFFCURVE",
"210 326 CURVE SMOOTH",
"173 188 LINE",
"165 190 LINE",
"195 425 LINE",
"207 756 LINE",
"191 767 LINE",
"15 767 LINE",
"9 713 LINE",
"89 692 LINE",
"64 33 LINE",
"107 8 OFFCURVE",
"213 -14 OFFCURVE",
"280 -14 CURVE SMOOTH"
);
},
{
closed = 1;
nodes = (
"408 438 OFFCURVE",
"408 362 OFFCURVE",
"408 301 CURVE SMOOTH",
"408 180 OFFCURVE",
"372 56 OFFCURVE",
"279 56 CURVE SMOOTH",
"239 56 OFFCURVE",
"218 67 OFFCURVE",
"204 75 CURVE",
"242 203 LINE SMOOTH",
"292 374 OFFCURVE",
"308 438 OFFCURVE",
"362 438 CURVE SMOOTH"
);
}
);
};
hints = (
{
place = "{76, 125}";
},
{
place = "{408, 134}";
},
{
horizontal = 1;
place = "{-14, 70}";
},
{
horizontal = 1;
place = "{438, 89}";
},
{
horizontal = 1;
place = "{767, -20}";
target = down;
type = TopGhost;
}
);
layerId = UUID0;
paths = (
{
closed = 1;
nodes = (
"436 -14 OFFCURVE",
"542 100 OFFCURVE",
"542 308 CURVE SMOOTH",
"542 440 OFFCURVE",
"494 527 OFFCURVE",
"386 527 CURVE SMOOTH",
"290 527 OFFCURVE",
"248 467 OFFCURVE",
"210 326 CURVE SMOOTH",
"173 188 LINE",
"165 190 LINE",
"195 425 LINE",
"207 756 LINE",
"191 767 LINE",
"15 767 LINE",
"9 713 LINE",
"89 692 LINE",
"64 33 LINE",
"107 8 OFFCURVE",
"213 -14 OFFCURVE",
"280 -14 CURVE SMOOTH"
);
},
{
closed = 1;
nodes = (
"408 438 OFFCURVE",
"408 362 OFFCURVE",
"408 301 CURVE SMOOTH",
"408 180 OFFCURVE",
"372 56 OFFCURVE",
"279 56 CURVE SMOOTH",
"239 56 OFFCURVE",
"218 67 OFFCURVE",
"204 75 CURVE",
"242 203 LINE SMOOTH",
"292 374 OFFCURVE",
"308 438 OFFCURVE",
"362 438 CURVE SMOOTH"
);
}
);
width = 577;
}
);
rightKerningGroup = o;
unicode = 0062;
},
{
glyphname = c;
lastChange = "2016-06-05 15:23:08 +0000";
layers = (
{
anchors = (
{
name = bottom;
position = "{246, -30}";
},
{
name = top;
position = "{293, 550}";
}
);
background = {
paths = (
{
closed = 1;
nodes = (
"125 527 OFFCURVE",
"35 397 OFFCURVE",
"35 226 CURVE SMOOTH",
"35 78 OFFCURVE",
"110 -14 OFFCURVE",
"247 -14 CURVE SMOOTH",
"352 -14 OFFCURVE",
"419 67 OFFCURVE",
"443 99 CURVE",
"401 143 LINE",
"369 111 OFFCURVE",
"328 72 OFFCURVE",
"269 72 CURVE SMOOTH",
"194 72 OFFCURVE",
"169 137 OFFCURVE",
"169 228 CURVE SMOOTH",
"169 362 OFFCURVE",
"205 460 OFFCURVE",
"298 460 CURVE SMOOTH",
"340 460 OFFCURVE",
"374 438 OFFCURVE",
"335 391 CURVE SMOOTH",
"312 363 LINE",
"323 335 OFFCURVE",
"355 316 OFFCURVE",
"386 316 CURVE SMOOTH",
"430 316 OFFCURVE",
"459 347 OFFCURVE",
"459 391 CURVE SMOOTH",
"459 482 OFFCURVE",
"386 527 OFFCURVE",
"295 527 CURVE SMOOTH"
);
}
);
};
hints = (
{
place = "{35, 134}";
},
{
horizontal = 1;
place = "{-14, 86}";
},
{
horizontal = 1;
place = "{460, 67}";
}
);
layerId = UUID0;
paths = (
{
closed = 1;
nodes = (
"125 527 OFFCURVE",
"35 397 OFFCURVE",
"35 226 CURVE SMOOTH",
"35 78 OFFCURVE",
"110 -14 OFFCURVE",
"247 -14 CURVE SMOOTH",
"352 -14 OFFCURVE",
"419 67 OFFCURVE",
"443 99 CURVE",
"401 143 LINE",
"369 111 OFFCURVE",
"328 72 OFFCURVE",
"269 72 CURVE SMOOTH",
"194 72 OFFCURVE",
"169 137 OFFCURVE",
"169 228 CURVE SMOOTH",
"169 362 OFFCURVE",
"205 460 OFFCURVE",
"298 460 CURVE SMOOTH",
"340 460 OFFCURVE",
"374 438 OFFCURVE",
"335 391 CURVE SMOOTH",
"312 363 LINE",
"323 335 OFFCURVE",
"355 316 OFFCURVE",
"386 316 CURVE SMOOTH",
"430 316 OFFCURVE",
"459 347 OFFCURVE",
"459 391 CURVE SMOOTH",
"459 482 OFFCURVE",
"386 527 OFFCURVE",
"295 527 CURVE SMOOTH"
);
}
);
width = 494;
}
);
leftKerningGroup = o;
rightKerningGroup = c;
unicode = 0063;
},
{
glyphname = d;
lastChange = "2016-06-05 15:23:08 +0000";
layers = (
{
anchors = (
{
name = bottom;
position = "{275, -30}";
},
{
name = top;
position = "{286, 550}";
}
);
background = {
paths = (
{
closed = 1;
nodes = (
"510 749 LINE",
"487 767 LINE",
"314 767 LINE",
"306 711 LINE",
"402 690 LINE",
"394 502 LINE",
"370 514 OFFCURVE",
"327 527 OFFCURVE",
"280 527 CURVE SMOOTH",
"121 527 OFFCURVE",
"32 390 OFFCURVE",
"32 201 CURVE SMOOTH",
"32 73 OFFCURVE",
"88 -14 OFFCURVE",
"191 -14 CURVE SMOOTH",
"301 -14 OFFCURVE",
"326 61 OFFCURVE",
"361 185 CURVE SMOOTH",
"383 263 LINE",
"390 262 LINE",
"374 89 LINE SMOOTH",
"369 29 OFFCURVE",
"391 -14 OFFCURVE",
"464 -14 CURVE SMOOTH",
"509 -14 OFFCURVE",
"560 13 OFFCURVE",
"582 34 CURVE",
"558 82 LINE",
"544 72 OFFCURVE",
"528 65 OFFCURVE",
"515 65 CURVE SMOOTH",
"493 65 OFFCURVE",
"489 78 OFFCURVE",
"490 108 CURVE SMOOTH"
);
},
{
closed = 1;
nodes = (
"173 68 OFFCURVE",
"166 107 OFFCURVE",
"166 187 CURVE SMOOTH",
"166 340 OFFCURVE",
"203 456 OFFCURVE",
"294 456 CURVE SMOOTH",
"323 456 OFFCURVE",
"345 451 OFFCURVE",
"370 438 CURVE",
"336 314 LINE SMOOTH",
"288 141 OFFCURVE",
"267 68 OFFCURVE",
"217 68 CURVE SMOOTH"
);
}
);
};
hints = (
{
place = "{32, 134}";
},
{
place = "{398, 102}";
},
{
horizontal = 1;
place = "{456, 71}";
},
{
horizontal = 1;
place = "{767, -20}";
target = down;
type = TopGhost;
},
{
horizontal = 1;
origin = "{1, 0}";
target = "{0, 14}";
}
);
layerId = UUID0;
paths = (
{
closed = 1;
nodes = (
"510 749 LINE",
"487 767 LINE",
"314 767 LINE",
"306 711 LINE",
"402 690 LINE",
"394 502 LINE",
"370 514 OFFCURVE",
"327 527 OFFCURVE",
"280 527 CURVE SMOOTH",
"121 527 OFFCURVE",
"32 390 OFFCURVE",
"32 201 CURVE SMOOTH",
"32 73 OFFCURVE",
"88 -14 OFFCURVE",
"191 -14 CURVE SMOOTH",
"301 -14 OFFCURVE",
"326 61 OFFCURVE",
"361 185 CURVE SMOOTH",
"383 263 LINE",
"390 262 LINE",
"374 89 LINE SMOOTH",
"369 29 OFFCURVE",
"391 -14 OFFCURVE",
"464 -14 CURVE SMOOTH",
"509 -14 OFFCURVE",
"560 13 OFFCURVE",
"582 34 CURVE",
"558 82 LINE",
"544 72 OFFCURVE",
"528 65 OFFCURVE",
"515 65 CURVE SMOOTH",
"493 65 OFFCURVE",
"489 78 OFFCURVE",
"490 108 CURVE SMOOTH"
);
},
{
closed = 1;
nodes = (
"173 68 OFFCURVE",
"166 107 OFFCURVE",
"166 187 CURVE SMOOTH",
"166 340 OFFCURVE",
"203 456 OFFCURVE",
"294 456 CURVE SMOOTH",
"323 456 OFFCURVE",
"345 451 OFFCURVE",
"370 438 CURVE",
"336 314 LINE SMOOTH",
"288 141 OFFCURVE",
"267 68 OFFCURVE",
"217 68 CURVE SMOOTH"
);
}
);
width = 579;
}
);
leftKerningGroup = o;
rightKerningGroup = l;
unicode = 0064;
},
{
glyphname = e;
lastChange = "2016-06-05 15:23:08 +0000";
layers = (
{
anchors = (
{
name = bottom;
position = "{243, -30}";
},
{
name = top;
position = "{283, 550}";
}
);
background = {
paths = (
{
closed = 1;
nodes = (
"127 527 OFFCURVE",
"35 400 OFFCURVE",
"35 225 CURVE SMOOTH",
"35 88 OFFCURVE",
"108 -14 OFFCURVE",
"244 -14 CURVE SMOOTH",
"350 -14 OFFCURVE",
"420 52 OFFCURVE",
"443 81 CURVE",
"404 132 LINE",
"376 106 OFFCURVE",
"333 71 OFFCURVE",
"279 71 CURVE SMOOTH",
"200 71 OFFCURVE",
"174 132 OFFCURVE",
"168 199 CURVE",
"252 221 LINE SMOOTH",
"348 245 OFFCURVE",
"447 284 OFFCURVE",
"447 394 CURVE SMOOTH",
"447 471 OFFCURVE",
"402 527 OFFCURVE",
"291 527 CURVE SMOOTH"
);
},
{
closed = 1;
nodes = (
"324 330 OFFCURVE",
"294 300 OFFCURVE",
"224 283 CURVE SMOOTH",
"170 269 LINE",
"178 390 OFFCURVE",
"222 460 OFFCURVE",
"277 460 CURVE SMOOTH",
"308 460 OFFCURVE",
"324 434 OFFCURVE",
"324 395 CURVE SMOOTH"
);
}
);
};
hints = (
{
place = "{35, 135}";
},
{
place = "{324, 123}";
},
{
horizontal = 1;
place = "{-14, 85}";
},
{
horizontal = 1;
place = "{460, 67}";
}
);
layerId = UUID0;
paths = (
{
closed = 1;
nodes = (
"127 527 OFFCURVE",
"35 400 OFFCURVE",
"35 225 CURVE SMOOTH",
"35 88 OFFCURVE",
"108 -14 OFFCURVE",
"244 -14 CURVE SMOOTH",
"350 -14 OFFCURVE",
"420 52 OFFCURVE",
"443 81 CURVE",
"404 132 LINE",
"376 106 OFFCURVE",
"333 71 OFFCURVE",
"279 71 CURVE SMOOTH",
"200 71 OFFCURVE",
"174 132 OFFCURVE",
"168 199 CURVE",
"252 221 LINE SMOOTH",
"348 245 OFFCURVE",
"447 284 OFFCURVE",
"447 394 CURVE SMOOTH",
"447 471 OFFCURVE",
"402 527 OFFCURVE",
"291 527 CURVE SMOOTH"
);
},
{
closed = 1;
nodes = (
"324 330 OFFCURVE",
"294 300 OFFCURVE",
"224 283 CURVE SMOOTH",
"170 269 LINE",
"178 390 OFFCURVE",
"222 460 OFFCURVE",
"277 460 CURVE SMOOTH",
"308 460 OFFCURVE",
"324 434 OFFCURVE",
"324 395 CURVE SMOOTH"
);
}
);
width = 482;
}
);
leftKerningGroup = o;
rightKerningGroup = o;
unicode = 0065;
},
{
glyphname = f;
lastChange = "2016-06-05 15:23:08 +0000";
layers = (
{
background = {
paths = (
{
closed = 1;
nodes = (
"348 726 OFFCURVE",
"361 705 OFFCURVE",
"344 658 CURVE SMOOTH",
"333 628 LINE",
"346 611 OFFCURVE",
"372 600 OFFCURVE",
"395 600 CURVE SMOOTH",
"439 600 OFFCURVE",
"464 625 OFFCURVE",
"464 669 CURVE SMOOTH",
"464 751 OFFCURVE",
"379 782 OFFCURVE",
"310 782 CURVE SMOOTH",
"182 782 OFFCURVE",
"110 687 OFFCURVE",
"103 559 CURVE SMOOTH",
"100 514 LINE",
"24 506 LINE",
"17 449 LINE",
"98 449 LINE",
"83 23 LINE SMOOTH",
"81 -18 OFFCURVE",
"80 -47 OFFCURVE",
"76 -80 CURVE SMOOTH",
"70 -126 OFFCURVE",
"50 -134 OFFCURVE",
"11 -117 CURVE SMOOTH",
"-36 -97 LINE",
"-55 -123 OFFCURVE",
"-65 -150 OFFCURVE",
"-65 -171 CURVE SMOOTH",
"-65 -209 OFFCURVE",
"-31 -229 OFFCURVE",
"8 -229 CURVE SMOOTH",
"48 -229 OFFCURVE",
"82 -208 OFFCURVE",
"108 -173 CURVE SMOOTH",
"171 -87 OFFCURVE",
"204 0 OFFCURVE",
"210 139 CURVE SMOOTH",
"222 449 LINE",
"332 449 LINE",
"336 513 LINE",
"222 513 LINE",
"227 602 LINE SMOOTH",
"231 671 OFFCURVE",
"250 726 OFFCURVE",
"304 726 CURVE SMOOTH"
);
}
);
};
hints = (
{
place = "{103, 113}";
},
{
horizontal = 1;
place = "{449, 64}";
},
{
horizontal = 1;
place = "{726, 56}";
},
{
horizontal = 1;
place = "{-229, 21}";
target = up;
type = BottomGhost;
}
);
layerId = UUID0;
paths = (
{
closed = 1;
nodes = (
"348 726 OFFCURVE",
"361 705 OFFCURVE",
"344 658 CURVE SMOOTH",
"333 628 LINE",
"346 611 OFFCURVE",
"372 600 OFFCURVE",
"395 600 CURVE SMOOTH",
"439 600 OFFCURVE",
"464 625 OFFCURVE",
"464 669 CURVE SMOOTH",
"464 751 OFFCURVE",
"379 782 OFFCURVE",
"310 782 CURVE SMOOTH",
"182 782 OFFCURVE",
"110 687 OFFCURVE",
"103 559 CURVE SMOOTH",
"100 514 LINE",
"24 506 LINE",
"17 449 LINE",
"98 449 LINE",
"83 23 LINE SMOOTH",
"81 -18 OFFCURVE",
"80 -47 OFFCURVE",
"76 -80 CURVE SMOOTH",
"70 -126 OFFCURVE",
"50 -134 OFFCURVE",
"11 -117 CURVE SMOOTH",
"-36 -97 LINE",
"-55 -123 OFFCURVE",
"-65 -150 OFFCURVE",
"-65 -171 CURVE SMOOTH",
"-65 -209 OFFCURVE",
"-31 -229 OFFCURVE",
"8 -229 CURVE SMOOTH",
"48 -229 OFFCURVE",
"82 -208 OFFCURVE",
"108 -173 CURVE SMOOTH",
"171 -87 OFFCURVE",
"204 0 OFFCURVE",
"210 139 CURVE SMOOTH",
"222 449 LINE",
"332 449 LINE",
"336 513 LINE",
"222 513 LINE",
"227 602 LINE SMOOTH",
"231 671 OFFCURVE",
"250 726 OFFCURVE",
"304 726 CURVE SMOOTH"
);
}
);
width = 353;
}
);
leftKerningGroup = f;
rightKerningGroup = f;
unicode = 0066;
},
{
glyphname = g;
lastChange = "2016-06-05 15:23:08 +0000";
layers = (
{
anchors = (
{
name = top;
position = "{286, 550}";
}
);
background = {
paths = (
{
closed = 1;
nodes = (
"375 76 LINE SMOOTH",
"362 -77 OFFCURVE",
"307 -167 OFFCURVE",
"203 -167 CURVE SMOOTH",
"151 -167 OFFCURVE",
"140 -147 OFFCURVE",
"156 -103 CURVE SMOOTH",
"165 -77 LINE",
"153 -61 OFFCURVE",
"120 -49 OFFCURVE",
"99 -49 CURVE SMOOTH",
"55 -49 OFFCURVE",
"25 -80 OFFCURVE",
"25 -125 CURVE SMOOTH",
"25 -198 OFFCURVE",
"108 -230 OFFCURVE",
"187 -230 CURVE SMOOTH",
"385 -230 OFFCURVE",
"482 -85 OFFCURVE",
"488 81 CURVE SMOOTH",
"504 518 LINE",
"464 528 LINE",
"397 503 LINE",
"358 519 OFFCURVE",
"309 527 OFFCURVE",
"274 527 CURVE SMOOTH",
"128 527 OFFCURVE",
"33 393 OFFCURVE",
"33 206 CURVE SMOOTH",
"33 87 OFFCURVE",
"82 -13 OFFCURVE",
"196 -13 CURVE SMOOTH",
"283 -13 OFFCURVE",
"320 37 OFFCURVE",
"363 189 CURVE SMOOTH",
"384 264 LINE",
"391 263 LINE"
);
},
{
closed = 1;
nodes = (
"174 68 OFFCURVE",
"168 115 OFFCURVE",
"168 204 CURVE SMOOTH",
"168 341 OFFCURVE",
"205 456 OFFCURVE",
"299 456 CURVE SMOOTH",
"329 456 OFFCURVE",
"346 450 OFFCURVE",
"371 437 CURVE",
"337 316 LINE SMOOTH",
"282 119 OFFCURVE",
"264 68 OFFCURVE",
"218 68 CURVE SMOOTH"
);
}
);
};
hints = (
{
place = "{33, 135}";
},
{
horizontal = 1;
place = "{-230, 63}";
},
{
horizontal = 1;
place = "{-13, 81}";
},
{
horizontal = 1;
place = "{456, 71}";
}
);
layerId = UUID0;
paths = (
{
closed = 1;
nodes = (
"375 76 LINE SMOOTH",
"362 -77 OFFCURVE",
"307 -167 OFFCURVE",
"203 -167 CURVE SMOOTH",
"151 -167 OFFCURVE",
"140 -147 OFFCURVE",
"156 -103 CURVE SMOOTH",
"165 -77 LINE",
"153 -61 OFFCURVE",
"120 -49 OFFCURVE",
"99 -49 CURVE SMOOTH",
"55 -49 OFFCURVE",
"25 -80 OFFCURVE",
"25 -125 CURVE SMOOTH",
"25 -198 OFFCURVE",
"108 -230 OFFCURVE",
"187 -230 CURVE SMOOTH",
"385 -230 OFFCURVE",
"482 -85 OFFCURVE",
"488 81 CURVE SMOOTH",
"504 518 LINE",
"464 528 LINE",
"397 503 LINE",
"358 519 OFFCURVE",
"309 527 OFFCURVE",
"274 527 CURVE SMOOTH",
"128 527 OFFCURVE",
"33 393 OFFCURVE",
"33 206 CURVE SMOOTH",
"33 87 OFFCURVE",
"82 -13 OFFCURVE",
"196 -13 CURVE SMOOTH",
"283 -13 OFFCURVE",
"320 37 OFFCURVE",
"363 189 CURVE SMOOTH",
"384 264 LINE",
"391 263 LINE"
);
},
{
closed = 1;
nodes = (
"174 68 OFFCURVE",
"168 115 OFFCURVE",
"168 204 CURVE SMOOTH",
"168 341 OFFCURVE",
"205 456 OFFCURVE",
"299 456 CURVE SMOOTH",
"329 456 OFFCURVE",
"346 450 OFFCURVE",
"371 437 CURVE",
"337 316 LINE SMOOTH",
"282 119 OFFCURVE",
"264 68 OFFCURVE",
"218 68 CURVE SMOOTH"
);
}
);
width = 568;
}
);
leftKerningGroup = o;
rightKerningGroup = g;
unicode = 0067;
},
{
glyphname = h;
lastChange = "2016-06-05 15:23:08 +0000";
layers = (
{
anchors = (
{
name = bottom;
position = "{286, -30}";
}
);
background = {
paths = (
{
closed = 1;
nodes = (
"569 83 LINE",
"552 72 OFFCURVE",
"538 65 OFFCURVE",
"523 65 CURVE SMOOTH",
"501 65 OFFCURVE",
"498 78 OFFCURVE",
"501 108 CURVE SMOOTH",
"522 359 LINE SMOOTH",
"531 466 OFFCURVE",
"503 527 OFFCURVE",
"404 527 CURVE SMOOTH",
"324 527 OFFCURVE",
"283 473 OFFCURVE",
"252 366 CURVE SMOOTH",
"192 160 LINE",
"185 162 LINE",
"206 409 LINE",
"220 756 LINE",
"204 767 LINE",
"22 767 LINE",
"14 711 LINE",
"100 693 LINE",
"74 0 LINE",
"211 0 LINE",
"297 287 LINE SMOOTH",
"327 386 OFFCURVE",
"337 424 OFFCURVE",
"371 424 CURVE SMOOTH",
"401 424 OFFCURVE",
"400 401 OFFCURVE",
"396 354 CURVE SMOOTH",
"372 81 LINE SMOOTH",
"368 33 OFFCURVE",
"385 -14 OFFCURVE",
"462 -14 CURVE SMOOTH",
"503 -14 OFFCURVE",
"561 9 OFFCURVE",
"591 33 CURVE"
);
}
);
};
hints = (
{
place = "{87, 126}";
},
{
horizontal = 1;
place = "{-14, 79}";
},
{
horizontal = 1;
place = "{424, 103}";
},
{
horizontal = 1;
place = "{767, -20}";
target = down;
type = TopGhost;
},
{
horizontal = 1;
place = "{0, 21}";
target = up;
type = BottomGhost;
}
);
layerId = UUID0;
paths = (
{
closed = 1;
nodes = (
"569 83 LINE",
"552 72 OFFCURVE",
"538 65 OFFCURVE",
"523 65 CURVE SMOOTH",
"501 65 OFFCURVE",
"498 78 OFFCURVE",
"501 108 CURVE SMOOTH",
"522 359 LINE SMOOTH",
"531 466 OFFCURVE",
"503 527 OFFCURVE",
"404 527 CURVE SMOOTH",
"324 527 OFFCURVE",
"283 473 OFFCURVE",
"252 366 CURVE SMOOTH",
"192 160 LINE",
"185 162 LINE",
"206 409 LINE",
"220 756 LINE",
"204 767 LINE",
"22 767 LINE",
"14 711 LINE",
"100 693 LINE",
"74 0 LINE",
"211 0 LINE",
"297 287 LINE SMOOTH",
"327 386 OFFCURVE",
"337 424 OFFCURVE",
"371 424 CURVE SMOOTH",
"401 424 OFFCURVE",
"400 401 OFFCURVE",
"396 354 CURVE SMOOTH",
"372 81 LINE SMOOTH",
"368 33 OFFCURVE",
"385 -14 OFFCURVE",
"462 -14 CURVE SMOOTH",
"503 -14 OFFCURVE",
"561 9 OFFCURVE",
"591 33 CURVE"
);
}
);
width = 598;
}
);
leftKerningGroup = k;
rightKerningGroup = n;
unicode = 0068;
},
{
glyphname = i;
lastChange = "2016-06-05 15:23:08 +0000";
layers = (
{
anchors = (
{
name = bottom;
position = "{163, -30}";
}
);
background = {
paths = (
{
closed = 1;
nodes = (
"80 90 LINE SMOOTH",
"75 28 OFFCURVE",
"100 -14 OFFCURVE",
"175 -14 CURVE SMOOTH",
"227 -14 OFFCURVE",
"283 16 OFFCURVE",
"304 37 CURVE",
"281 85 LINE",
"264 74 OFFCURVE",
"250 65 OFFCURVE",
"229 65 CURVE SMOOTH",
"207 65 OFFCURVE",
"204 82 OFFCURVE",
"206 108 CURVE SMOOTH",
"229 414 LINE SMOOTH",
"235 492 OFFCURVE",
"199 527 OFFCURVE",
"137 527 CURVE SMOOTH",
"81 527 OFFCURVE",
"34 507 OFFCURVE",
"9 492 CURVE",
"24 437 LINE",
"40 443 OFFCURVE",
"59 452 OFFCURVE",
"79 452 CURVE SMOOTH",
"102 452 OFFCURVE",
"107 437 OFFCURVE",
"105 412 CURVE SMOOTH"
);
},
{
closed = 1;
nodes = (
"75 646 OFFCURVE",
"105 616 OFFCURVE",
"151 616 CURVE SMOOTH",
"196 616 OFFCURVE",
"226 647 OFFCURVE",
"226 690 CURVE SMOOTH",
"226 733 OFFCURVE",
"196 763 OFFCURVE",
"151 763 CURVE SMOOTH",
"105 763 OFFCURVE",
"75 732 OFFCURVE",
"75 689 CURVE SMOOTH"
);
}
);
};
hints = (
{
place = "{92, 125}";
},
{
horizontal = 1;
place = "{-14, 79}";
},
{
horizontal = 1;
place = "{452, 75}";
},
{
horizontal = 1;
place = "{616, 147}";
}
);
layerId = UUID0;
paths = (
{
closed = 1;
nodes = (
"80 90 LINE SMOOTH",
"75 28 OFFCURVE",
"100 -14 OFFCURVE",
"175 -14 CURVE SMOOTH",
"227 -14 OFFCURVE",
"283 16 OFFCURVE",
"304 37 CURVE",
"281 85 LINE",
"264 74 OFFCURVE",
"250 65 OFFCURVE",
"229 65 CURVE SMOOTH",
"207 65 OFFCURVE",
"204 82 OFFCURVE",
"206 108 CURVE SMOOTH",
"229 414 LINE SMOOTH",
"235 492 OFFCURVE",
"199 527 OFFCURVE",
"137 527 CURVE SMOOTH",
"81 527 OFFCURVE",
"34 507 OFFCURVE",
"9 492 CURVE",
"24 437 LINE",
"40 443 OFFCURVE",
"59 452 OFFCURVE",
"79 452 CURVE SMOOTH",
"102 452 OFFCURVE",
"107 437 OFFCURVE",
"105 412 CURVE SMOOTH"
);
},
{
closed = 1;
nodes = (
"75 646 OFFCURVE",
"105 616 OFFCURVE",
"151 616 CURVE SMOOTH",
"196 616 OFFCURVE",
"226 647 OFFCURVE",
"226 690 CURVE SMOOTH",
"226 733 OFFCURVE",
"196 763 OFFCURVE",
"151 763 CURVE SMOOTH",
"105 763 OFFCURVE",
"75 732 OFFCURVE",
"75 689 CURVE SMOOTH"
);
}
);
width = 306;
}
);
leftKerningGroup = i;
rightKerningGroup = i;
unicode = 0069;
},
{
glyphname = j;
lastChange = "2016-06-05 15:23:08 +0000";
layers = (
{
background = {
paths = (
{
closed = 1;
nodes = (
"224 408 LINE",
"229 486 OFFCURVE",
"196 527 OFFCURVE",
"132 527 CURVE SMOOTH",
"79 527 OFFCURVE",
"27 507 OFFCURVE",
"2 492 CURVE",
"19 436 LINE",
"35 442 OFFCURVE",
"58 452 OFFCURVE",
"78 452 CURVE SMOOTH",
"97 452 OFFCURVE",
"102 438 OFFCURVE",
"101 411 CURVE SMOOTH",
"87 23 LINE SMOOTH",
"85 -18 OFFCURVE",
"84 -49 OFFCURVE",
"80 -82 CURVE SMOOTH",
"74 -128 OFFCURVE",
"51 -133 OFFCURVE",
"17 -119 CURVE SMOOTH",
"-33 -98 LINE",
"-49 -120 OFFCURVE",
"-60 -146 OFFCURVE",
"-60 -169 CURVE SMOOTH",
"-60 -201 OFFCURVE",
"-40 -229 OFFCURVE",
"5 -229 CURVE SMOOTH",
"54 -229 OFFCURVE",
"85 -201 OFFCURVE",
"109 -172 CURVE SMOOTH",
"163 -106 OFFCURVE",
"209 5 OFFCURVE",
"213 122 CURVE SMOOTH"
);
},
{
closed = 1;
nodes = (
"66 646 OFFCURVE",
"96 616 OFFCURVE",
"142 616 CURVE SMOOTH",
"187 616 OFFCURVE",
"217 647 OFFCURVE",
"217 690 CURVE SMOOTH",
"217 733 OFFCURVE",
"187 763 OFFCURVE",
"142 763 CURVE SMOOTH",
"96 763 OFFCURVE",
"66 732 OFFCURVE",
"66 689 CURVE SMOOTH"
);
}
);
};
hints = (
{
place = "{94, 124}";
},
{
horizontal = 1;
place = "{452, 75}";
},
{
horizontal = 1;
place = "{616, 147}";
},
{
horizontal = 1;
place = "{-229, 21}";
target = up;
type = BottomGhost;
}
);
layerId = UUID0;
paths = (
{
closed = 1;
nodes = (
"224 408 LINE",
"229 486 OFFCURVE",
"196 527 OFFCURVE",
"132 527 CURVE SMOOTH",
"79 527 OFFCURVE",
"27 507 OFFCURVE",
"2 492 CURVE",
"19 436 LINE",
"35 442 OFFCURVE",
"58 452 OFFCURVE",
"78 452 CURVE SMOOTH",
"97 452 OFFCURVE",
"102 438 OFFCURVE",
"101 411 CURVE SMOOTH",
"87 23 LINE SMOOTH",
"85 -18 OFFCURVE",
"84 -49 OFFCURVE",
"80 -82 CURVE SMOOTH",
"74 -128 OFFCURVE",
"51 -133 OFFCURVE",
"17 -119 CURVE SMOOTH",
"-33 -98 LINE",
"-49 -120 OFFCURVE",
"-60 -146 OFFCURVE",
"-60 -169 CURVE SMOOTH",
"-60 -201 OFFCURVE",
"-40 -229 OFFCURVE",
"5 -229 CURVE SMOOTH",
"54 -229 OFFCURVE",
"85 -201 OFFCURVE",
"109 -172 CURVE SMOOTH",
"163 -106 OFFCURVE",
"209 5 OFFCURVE",
"213 122 CURVE SMOOTH"
);
},
{
closed = 1;
nodes = (
"66 646 OFFCURVE",
"96 616 OFFCURVE",
"142 616 CURVE SMOOTH",
"187 616 OFFCURVE",
"217 647 OFFCURVE",
"217 690 CURVE SMOOTH",
"217 733 OFFCURVE",
"187 763 OFFCURVE",
"142 763 CURVE SMOOTH",
"96 763 OFFCURVE",
"66 732 OFFCURVE",
"66 689 CURVE SMOOTH"
);
}
);
width = 290;
}
);
leftKerningGroup = j;
rightKerningGroup = j;
unicode = 006A;
},
{
glyphname = k;
lastChange = "2016-06-05 15:23:08 +0000";
layers = (
{
anchors = (
{
name = bottom;
position = "{261, -30}";
}
);
background = {
paths = (
{
closed = 1;
nodes = (
"72 0 LINE",
"185 0 LINE",
"196 243 LINE",
"204 245 OFFCURVE",
"214 247 OFFCURVE",
"223 250 CURVE",
"323 66 LINE SMOOTH",
"350 18 OFFCURVE",
"378 -14 OFFCURVE",
"441 -14 CURVE SMOOTH",
"497 -14 OFFCURVE",
"542 15 OFFCURVE",
"562 34 CURVE",
"535 80 LINE",
"518 70 OFFCURVE",
"507 64 OFFCURVE",
"487 64 CURVE SMOOTH",
"462 64 OFFCURVE",
"447 84 OFFCURVE",
"424 125 CURVE SMOOTH",
"330 289 LINE",
"350 298 OFFCURVE",
"369 308 OFFCURVE",
"388 320 CURVE SMOOTH",
"458 364 OFFCURVE",
"493 396 OFFCURVE",
"493 452 CURVE SMOOTH",
"493 492 OFFCURVE",
"469 527 OFFCURVE",
"419 527 CURVE SMOOTH",
"380 527 OFFCURVE",
"346 499 OFFCURVE",
"339 452 CURVE",
"368 434 LINE SMOOTH",
"396 417 OFFCURVE",
"388 397 OFFCURVE",
"348 370 CURVE SMOOTH",
"299 337 OFFCURVE",
"249 319 OFFCURVE",
"199 308 CURVE",
"219 756 LINE",
"203 767 LINE",
"28 767 LINE",
"20 713 LINE",
"101 692 LINE"
);
}
);
};
hints = (
{
place = "{86, 116}";
},
{
horizontal = 1;
place = "{-14, 78}";
},
{
horizontal = 1;
place = "{527, -20}";
target = down;
type = TopGhost;
},
{
horizontal = 1;
place = "{767, -20}";
target = down;
type = TopGhost;
}
);
layerId = UUID0;
paths = (
{
closed = 1;
nodes = (
"72 0 LINE",
"185 0 LINE",
"196 243 LINE",
"204 245 OFFCURVE",
"214 247 OFFCURVE",
"223 250 CURVE",
"323 66 LINE SMOOTH",
"350 18 OFFCURVE",
"378 -14 OFFCURVE",
"441 -14 CURVE SMOOTH",
"497 -14 OFFCURVE",
"542 15 OFFCURVE",
"562 34 CURVE",
"535 80 LINE",
"518 70 OFFCURVE",
"507 64 OFFCURVE",
"487 64 CURVE SMOOTH",
"462 64 OFFCURVE",
"447 84 OFFCURVE",
"424 125 CURVE SMOOTH",
"330 289 LINE",
"350 298 OFFCURVE",
"369 308 OFFCURVE",
"388 320 CURVE SMOOTH",
"458 364 OFFCURVE",
"493 396 OFFCURVE",
"493 452 CURVE SMOOTH",
"493 492 OFFCURVE",
"469 527 OFFCURVE",
"419 527 CURVE SMOOTH",
"380 527 OFFCURVE",
"346 499 OFFCURVE",
"339 452 CURVE",
"368 434 LINE SMOOTH",
"396 417 OFFCURVE",
"388 397 OFFCURVE",
"348 370 CURVE SMOOTH",
"299 337 OFFCURVE",
"249 319 OFFCURVE",
"199 308 CURVE",
"219 756 LINE",
"203 767 LINE",
"28 767 LINE",
"20 713 LINE",
"101 692 LINE"
);
}
);
width = 556;
}
);
leftKerningGroup = k;
rightKerningGroup = k;
unicode = 006B;
},
{
glyphname = l;
lastChange = "2016-06-05 15:23:08 +0000";
layers = (
{
anchors = (
{
name = bottom;
position = "{168, -30}";
}
);
background = {
paths = (
{
closed = 1;
nodes = (
"76 90 LINE SMOOTH",
"73 19 OFFCURVE",
"108 -14 OFFCURVE",
"170 -14 CURVE SMOOTH",
"226 -14 OFFCURVE",
"283 20 OFFCURVE",
"303 38 CURVE",
"280 86 LINE",
"262 74 OFFCURVE",
"244 64 OFFCURVE",
"227 64 CURVE SMOOTH",
"205 64 OFFCURVE",
"200 79 OFFCURVE",
"201 106 CURVE SMOOTH",
"223 756 LINE",
"207 767 LINE",
"27 767 LINE",
"19 713 LINE",
"101 692 LINE"
);
}
);
};
hints = (
{
place = "{88, 124}";
},
{
horizontal = 1;
place = "{-14, 78}";
},
{
horizontal = 1;
place = "{767, -20}";
target = down;
type = TopGhost;
}
);
layerId = UUID0;
paths = (
{
closed = 1;
nodes = (
"76 90 LINE SMOOTH",
"73 19 OFFCURVE",
"108 -14 OFFCURVE",
"170 -14 CURVE SMOOTH",
"226 -14 OFFCURVE",
"283 20 OFFCURVE",
"303 38 CURVE",
"280 86 LINE",
"262 74 OFFCURVE",
"244 64 OFFCURVE",
"227 64 CURVE SMOOTH",
"205 64 OFFCURVE",
"200 79 OFFCURVE",
"201 106 CURVE SMOOTH",
"223 756 LINE",
"207 767 LINE",
"27 767 LINE",
"19 713 LINE",
"101 692 LINE"
);
}
);
width = 299;
}
);
leftKerningGroup = k;
rightKerningGroup = l;
unicode = 006C;
},
{
glyphname = m;
lastChange = "2016-06-05 15:23:08 +0000";
layers = (
{
anchors = (
{
name = bottom;
position = "{440, -30}";
}
);
background = {
paths = (
{
closed = 1;
nodes = (
"369 0 LINE",
"509 0 LINE",
"608 307 LINE SMOOTH",
"637 396 OFFCURVE",
"643 424 OFFCURVE",
"676 424 CURVE SMOOTH",
"706 424 OFFCURVE",
"703 394 OFFCURVE",
"699 354 CURVE SMOOTH",
"675 80 LINE SMOOTH",
"670 21 OFFCURVE",
"700 -14 OFFCURVE",
"763 -14 CURVE SMOOTH",
"806 -14 OFFCURVE",
"859 5 OFFCURVE",
"894 32 CURVE",
"873 83 LINE",
"856 71 OFFCURVE",
"841 65 OFFCURVE",
"826 65 CURVE SMOOTH",
"804 65 OFFCURVE",
"801 80 OFFCURVE",
"804 110 CURVE SMOOTH",
"825 374 LINE SMOOTH",
"833 464 OFFCURVE",
"803 527 OFFCURVE",
"713 527 CURVE SMOOTH",
"631 527 OFFCURVE",
"590 473 OFFCURVE",
"555 362 CURVE SMOOTH",
"489 154 LINE",
"481 156 LINE",
"509 374 LINE SMOOTH",
"521 482 OFFCURVE",
"481 527 OFFCURVE",
"406 527 CURVE SMOOTH",
"323 527 OFFCURVE",
"290 479 OFFCURVE",
"257 366 CURVE SMOOTH",
"197 160 LINE",
"190 162 LINE",
"212 419 LINE SMOOTH",
"219 491 OFFCURVE",
"192 527 OFFCURVE",
"135 527 CURVE SMOOTH",
"87 527 OFFCURVE",
"36 511 OFFCURVE",
"3 492 CURVE",
"19 437 LINE",
"40 446 OFFCURVE",
"57 453 OFFCURVE",
"69 453 CURVE SMOOTH",
"89 453 OFFCURVE",
"95 444 OFFCURVE",
"94 416 CURVE SMOOTH",
"78 0 LINE",
"215 0 LINE",
"312 316 LINE SMOOTH",
"338 401 OFFCURVE",
"348 424 OFFCURVE",
"376 424 CURVE SMOOTH",
"405 424 OFFCURVE",
"404 399 OFFCURVE",
"399 344 CURVE SMOOTH"
);
}
);
};
hints = (
{
horizontal = 1;
place = "{-14, 79}";
},
{
horizontal = 1;
place = "{424, 103}";
},
{
horizontal = 1;
place = "{453, 74}";
},
{
horizontal = 1;
place = "{0, 21}";
target = up;
type = BottomGhost;
}
);
layerId = UUID0;
paths = (
{
closed = 1;
nodes = (
"369 0 LINE",
"509 0 LINE",
"608 307 LINE SMOOTH",
"637 396 OFFCURVE",
"643 424 OFFCURVE",
"676 424 CURVE SMOOTH",
"706 424 OFFCURVE",
"703 394 OFFCURVE",
"699 354 CURVE SMOOTH",
"675 80 LINE SMOOTH",
"670 21 OFFCURVE",
"700 -14 OFFCURVE",
"763 -14 CURVE SMOOTH",
"806 -14 OFFCURVE",
"859 5 OFFCURVE",
"894 32 CURVE",
"873 83 LINE",
"856 71 OFFCURVE",
"841 65 OFFCURVE",
"826 65 CURVE SMOOTH",
"804 65 OFFCURVE",
"801 80 OFFCURVE",
"804 110 CURVE SMOOTH",
"825 374 LINE SMOOTH",
"833 464 OFFCURVE",
"803 527 OFFCURVE",
"713 527 CURVE SMOOTH",
"631 527 OFFCURVE",
"590 473 OFFCURVE",
"555 362 CURVE SMOOTH",
"489 154 LINE",
"481 156 LINE",
"509 374 LINE SMOOTH",
"521 482 OFFCURVE",
"481 527 OFFCURVE",
"406 527 CURVE SMOOTH",
"323 527 OFFCURVE",
"290 479 OFFCURVE",
"257 366 CURVE SMOOTH",
"197 160 LINE",
"190 162 LINE",
"212 419 LINE SMOOTH",
"219 491 OFFCURVE",
"192 527 OFFCURVE",
"135 527 CURVE SMOOTH",
"87 527 OFFCURVE",
"36 511 OFFCURVE",
"3 492 CURVE",
"19 437 LINE",
"40 446 OFFCURVE",
"57 453 OFFCURVE",
"69 453 CURVE SMOOTH",
"89 453 OFFCURVE",
"95 444 OFFCURVE",
"94 416 CURVE SMOOTH",
"78 0 LINE",
"215 0 LINE",
"312 316 LINE SMOOTH",
"338 401 OFFCURVE",
"348 424 OFFCURVE",
"376 424 CURVE SMOOTH",
"405 424 OFFCURVE",
"404 399 OFFCURVE",
"399 344 CURVE SMOOTH"
);
}
);
width = 900;
}
);
leftKerningGroup = n;
rightKerningGroup = n;
unicode = 006D;
},
{
glyphname = n;
lastChange = "2016-06-05 15:23:08 +0000";
layers = (
{
anchors = (
{
name = bottom;
position = "{299, -30}";
},
{
name = top;
position = "{312, 550}";
}
);
background = {
paths = (
{
closed = 1;
nodes = (
"574 82 LINE",
"560 73 OFFCURVE",
"544 65 OFFCURVE",
"529 65 CURVE SMOOTH",
"507 65 OFFCURVE",
"503 78 OFFCURVE",
"506 108 CURVE SMOOTH",
"528 383 LINE SMOOTH",
"536 470 OFFCURVE",
"500 527 OFFCURVE",
"411 527 CURVE SMOOTH",
"327 527 OFFCURVE",
"290 476 OFFCURVE",
"260 375 CURVE SMOOTH",
"197 160 LINE",
"190 162 LINE",
"212 425 LINE SMOOTH",
"218 492 OFFCURVE",
"191 527 OFFCURVE",
"129 527 CURVE SMOOTH",
"82 527 OFFCURVE",
"24 504 OFFCURVE",
"3 492 CURVE",
"19 437 LINE",
"36 444 OFFCURVE",
"53 453 OFFCURVE",
"71 453 CURVE SMOOTH",
"90 453 OFFCURVE",
"95 440 OFFCURVE",
"94 417 CURVE SMOOTH",
"79 0 LINE",
"215 0 LINE",
"314 323 LINE SMOOTH",
"335 390 OFFCURVE",
"343 424 OFFCURVE",
"377 424 CURVE SMOOTH",
"404 424 OFFCURVE",
"405 405 OFFCURVE",
"402 363 CURVE SMOOTH",
"377 82 LINE SMOOTH",
"372 21 OFFCURVE",
"399 -14 OFFCURVE",
"464 -14 CURVE SMOOTH",
"510 -14 OFFCURVE",
"573 12 OFFCURVE",
"596 33 CURVE"
);
}
);
};
hints = (
{
place = "{402, 115}";
},
{
horizontal = 1;
place = "{-14, 79}";
},
{
horizontal = 1;
place = "{424, 103}";
},
{
horizontal = 1;
place = "{453, 74}";
},
{
horizontal = 1;
place = "{0, 21}";
target = up;
type = BottomGhost;
}
);
layerId = UUID0;
paths = (
{
closed = 1;
nodes = (
"574 82 LINE",
"560 73 OFFCURVE",
"544 65 OFFCURVE",
"529 65 CURVE SMOOTH",
"507 65 OFFCURVE",
"503 78 OFFCURVE",
"506 108 CURVE SMOOTH",
"528 383 LINE SMOOTH",
"536 470 OFFCURVE",
"500 527 OFFCURVE",
"411 527 CURVE SMOOTH",
"327 527 OFFCURVE",
"290 476 OFFCURVE",
"260 375 CURVE SMOOTH",
"197 160 LINE",
"190 162 LINE",
"212 425 LINE SMOOTH",
"218 492 OFFCURVE",
"191 527 OFFCURVE",
"129 527 CURVE SMOOTH",
"82 527 OFFCURVE",
"24 504 OFFCURVE",
"3 492 CURVE",
"19 437 LINE",
"36 444 OFFCURVE",
"53 453 OFFCURVE",
"71 453 CURVE SMOOTH",
"90 453 OFFCURVE",
"95 440 OFFCURVE",
"94 417 CURVE SMOOTH",
"79 0 LINE",
"215 0 LINE",
"314 323 LINE SMOOTH",
"335 390 OFFCURVE",
"343 424 OFFCURVE",
"377 424 CURVE SMOOTH",
"404 424 OFFCURVE",
"405 405 OFFCURVE",
"402 363 CURVE SMOOTH",
"377 82 LINE SMOOTH",
"372 21 OFFCURVE",
"399 -14 OFFCURVE",
"464 -14 CURVE SMOOTH",
"510 -14 OFFCURVE",
"573 12 OFFCURVE",
"596 33 CURVE"
);
}
);
width = 603;
}
);
leftKerningGroup = n;
rightKerningGroup = n;
unicode = 006E;
},
{
glyphname = o;
lastChange = "2016-06-05 15:23:08 +0000";
layers = (
{
anchors = (
{
name = bottom;
position = "{255, -30}";
},
{
name = top;
position = "{281, 550}";
}
);
background = {
paths = (
{
closed = 1;
nodes = (
"191 53 OFFCURVE",
"170 127 OFFCURVE",
"170 234 CURVE SMOOTH",
"170 346 OFFCURVE",
"185 461 OFFCURVE",
"277 461 CURVE SMOOTH",
"352 461 OFFCURVE",
"368 384 OFFCURVE",
"368 275 CURVE SMOOTH",
"368 154 OFFCURVE",
"351 53 OFFCURVE",
"263 53 CURVE SMOOTH"
);
},
{
closed = 1;
nodes = (
"35 84 OFFCURVE",
"112 -14 OFFCURVE",
"254 -14 CURVE SMOOTH",
"430 -14 OFFCURVE",
"502 122 OFFCURVE",
"502 274 CURVE SMOOTH",
"502 423 OFFCURVE",
"434 527 OFFCURVE",
"283 527 CURVE SMOOTH",
"99 527 OFFCURVE",
"35 385 OFFCURVE",
"35 235 CURVE SMOOTH"
);
}
);
};
hints = (
{
place = "{35, 135}";
},
{
place = "{368, 134}";
},
{
horizontal = 1;
place = "{-14, 67}";
},
{
horizontal = 1;
place = "{461, 66}";
}
);
layerId = UUID0;
paths = (
{
closed = 1;
nodes = (
"191 53 OFFCURVE",
"170 127 OFFCURVE",
"170 234 CURVE SMOOTH",
"170 346 OFFCURVE",
"185 461 OFFCURVE",
"277 461 CURVE SMOOTH",
"352 461 OFFCURVE",
"368 384 OFFCURVE",
"368 275 CURVE SMOOTH",
"368 154 OFFCURVE",
"351 53 OFFCURVE",
"263 53 CURVE SMOOTH"
);
},
{
closed = 1;
nodes = (
"35 84 OFFCURVE",
"112 -14 OFFCURVE",
"254 -14 CURVE SMOOTH",
"430 -14 OFFCURVE",
"502 122 OFFCURVE",
"502 274 CURVE SMOOTH",
"502 423 OFFCURVE",
"434 527 OFFCURVE",
"283 527 CURVE SMOOTH",
"99 527 OFFCURVE",
"35 385 OFFCURVE",
"35 235 CURVE SMOOTH"
);
}
);
width = 539;
}
);
leftKerningGroup = o;
rightKerningGroup = o;
unicode = 006F;
},
{
glyphname = p;
lastChange = "2016-06-05 15:23:08 +0000";
layers = (
{
background = {
paths = (
{
closed = 1;
nodes = (
"75 62 LINE",
"57 -208 LINE",
"76 -226 LINE",
"265 -226 LINE",
"273 -171 LINE",
"177 -156 LINE",
"188 11 LINE",
"212 -1 OFFCURVE",
"255 -14 OFFCURVE",
"302 -14 CURVE SMOOTH",
"461 -14 OFFCURVE",
"550 123 OFFCURVE",
"550 312 CURVE SMOOTH",
"550 449 OFFCURVE",
"494 527 OFFCURVE",
"397 527 CURVE SMOOTH",
"281 527 OFFCURVE",
"252 442 OFFCURVE",
"223 331 CURVE SMOOTH",
"194 220 LINE",
"187 221 LINE",
"208 424 LINE SMOOTH",
"214 484 OFFCURVE",
"191 527 OFFCURVE",
"130 527 CURVE SMOOTH",
"77 527 OFFCURVE",
"16 503 OFFCURVE",
"0 492 CURVE",
"15 437 LINE",
"28 443 OFFCURVE",
"54 453 OFFCURVE",
"67 453 CURVE SMOOTH",
"89 453 OFFCURVE",
"92 440 OFFCURVE",
"91 410 CURVE SMOOTH"
);
},
{
closed = 1;
nodes = (
"407 440 OFFCURVE",
"416 406 OFFCURVE",
"416 326 CURVE SMOOTH",
"416 173 OFFCURVE",
"379 57 OFFCURVE",
"288 57 CURVE SMOOTH",
"259 57 OFFCURVE",
"237 62 OFFCURVE",
"212 75 CURVE",
"248 195 LINE SMOOTH",
"300 367 OFFCURVE",
"313 440 OFFCURVE",
"370 440 CURVE SMOOTH"
);
}
);
};
hints = (
{
place = "{66, 116}";
},
{
place = "{416, 134}";
},
{
horizontal = 1;
place = "{-14, 71}";
},
{
horizontal = 1;
place = "{440, 87}";
},
{
horizontal = 1;
place = "{453, 74}";
},
{
horizontal = 1;
place = "{-226, 21}";
target = up;
type = BottomGhost;
}
);
layerId = UUID0;
paths = (
{
closed = 1;
nodes = (
"75 62 LINE",
"57 -208 LINE",
"76 -226 LINE",
"265 -226 LINE",
"273 -171 LINE",
"177 -156 LINE",
"188 11 LINE",
"212 -1 OFFCURVE",
"255 -14 OFFCURVE",
"302 -14 CURVE SMOOTH",
"461 -14 OFFCURVE",
"550 123 OFFCURVE",
"550 312 CURVE SMOOTH",
"550 449 OFFCURVE",
"494 527 OFFCURVE",
"397 527 CURVE SMOOTH",
"281 527 OFFCURVE",
"252 442 OFFCURVE",
"223 331 CURVE SMOOTH",
"194 220 LINE",
"187 221 LINE",
"208 424 LINE SMOOTH",
"214 484 OFFCURVE",
"191 527 OFFCURVE",
"130 527 CURVE SMOOTH",
"77 527 OFFCURVE",
"16 503 OFFCURVE",
"0 492 CURVE",
"15 437 LINE",
"28 443 OFFCURVE",
"54 453 OFFCURVE",
"67 453 CURVE SMOOTH",
"89 453 OFFCURVE",
"92 440 OFFCURVE",
"91 410 CURVE SMOOTH"
);
},
{
closed = 1;
nodes = (
"407 440 OFFCURVE",
"416 406 OFFCURVE",
"416 326 CURVE SMOOTH",
"416 173 OFFCURVE",
"379 57 OFFCURVE",
"288 57 CURVE SMOOTH",
"259 57 OFFCURVE",
"237 62 OFFCURVE",
"212 75 CURVE",
"248 195 LINE SMOOTH",
"300 367 OFFCURVE",
"313 440 OFFCURVE",
"370 440 CURVE SMOOTH"
);
}
);
width = 585;
}
);
leftKerningGroup = n;
rightKerningGroup = o;
unicode = 0070;
},
{
glyphname = q;
lastChange = "2016-06-05 15:23:08 +0000";
layers = (
{
background = {
paths = (
{
closed = 1;
nodes = (
"507 518 LINE",
"456 528 LINE",
"400 502 LINE",
"361 518 OFFCURVE",
"310 527 OFFCURVE",
"274 527 CURVE SMOOTH",
"129 527 OFFCURVE",
"33 393 OFFCURVE",
"33 206 CURVE SMOOTH",
"33 87 OFFCURVE",
"80 -14 OFFCURVE",
"187 -14 CURVE SMOOTH",
"296 -14 OFFCURVE",
"327 55 OFFCURVE",
"363 189 CURVE SMOOTH",
"384 264 LINE",
"391 263 LINE",
"372 87 LINE",
"359 -127 LINE SMOOTH",
"355 -186 OFFCURVE",
"380 -230 OFFCURVE",
"444 -230 CURVE SMOOTH",
"496 -230 OFFCURVE",
"549 -201 OFFCURVE",
"571 -180 CURVE",
"548 -133 LINE",
"531 -144 OFFCURVE",
"516 -151 OFFCURVE",
"501 -151 CURVE SMOOTH",
"482 -151 OFFCURVE",
"476 -141 OFFCURVE",
"477 -111 CURVE SMOOTH"
);
},
{
closed = 1;
nodes = (
"177 68 OFFCURVE",
"167 107 OFFCURVE",
"167 197 CURVE SMOOTH",
"167 340 OFFCURVE",
"204 457 OFFCURVE",
"298 457 CURVE SMOOTH",
"328 457 OFFCURVE",
"346 450 OFFCURVE",
"371 437 CURVE",
"338 316 LINE SMOOTH",
"289 136 OFFCURVE",
"268 68 OFFCURVE",
"215 68 CURVE SMOOTH"
);
}
);
};
hints = (
{
place = "{33, 134}";
},
{
place = "{365, 127}";
},
{
horizontal = 1;
place = "{-230, 79}";
},
{
horizontal = 1;
place = "{-14, 82}";
},
{
horizontal = 1;
place = "{457, 70}";
},
{
horizontal = 1;
place = "{528, -20}";
target = down;
type = TopGhost;
}
);
layerId = UUID0;
paths = (
{
closed = 1;
nodes = (
"507 518 LINE",
"456 528 LINE",
"400 502 LINE",
"361 518 OFFCURVE",
"310 527 OFFCURVE",
"274 527 CURVE SMOOTH",
"129 527 OFFCURVE",
"33 393 OFFCURVE",
"33 206 CURVE SMOOTH",
"33 87 OFFCURVE",
"80 -14 OFFCURVE",
"187 -14 CURVE SMOOTH",
"296 -14 OFFCURVE",
"327 55 OFFCURVE",
"363 189 CURVE SMOOTH",
"384 264 LINE",
"391 263 LINE",
"372 87 LINE",
"359 -127 LINE SMOOTH",
"355 -186 OFFCURVE",
"380 -230 OFFCURVE",
"444 -230 CURVE SMOOTH",
"496 -230 OFFCURVE",
"549 -201 OFFCURVE",
"571 -180 CURVE",
"548 -133 LINE",
"531 -144 OFFCURVE",
"516 -151 OFFCURVE",
"501 -151 CURVE SMOOTH",
"482 -151 OFFCURVE",
"476 -141 OFFCURVE",
"477 -111 CURVE SMOOTH"
);
},
{
closed = 1;
nodes = (
"177 68 OFFCURVE",
"167 107 OFFCURVE",
"167 197 CURVE SMOOTH",
"167 340 OFFCURVE",
"204 457 OFFCURVE",
"298 457 CURVE SMOOTH",
"328 457 OFFCURVE",
"346 450 OFFCURVE",
"371 437 CURVE",
"338 316 LINE SMOOTH",
"289 136 OFFCURVE",
"268 68 OFFCURVE",
"215 68 CURVE SMOOTH"
);
}
);
width = 568;
}
);
leftKerningGroup = o;
rightKerningGroup = g;
unicode = 0071;
},
{
glyphname = r;
lastChange = "2016-06-05 15:23:08 +0000";
layers = (
{
anchors = (
{
name = bottom;
position = "{147, -30}";
},
{
name = top;
position = "{268, 550}";
}
);
background = {
paths = (
{
closed = 1;
nodes = (
"394 365 LINE",
"439 377 OFFCURVE",
"466 415 OFFCURVE",
"466 448 CURVE SMOOTH",
"466 487 OFFCURVE",
"443 527 OFFCURVE",
"379 527 CURVE SMOOTH",
"299 527 OFFCURVE",
"276 469 OFFCURVE",
"247 399 CURVE SMOOTH",
"197 280 LINE",
"190 282 LINE",
"209 419 LINE SMOOTH",
"215 486 OFFCURVE",
"193 527 OFFCURVE",
"136 527 CURVE SMOOTH",
"96 527 OFFCURVE",
"45 515 OFFCURVE",
"0 492 CURVE",
"16 438 LINE",
"38 447 OFFCURVE",
"52 453 OFFCURVE",
"68 453 CURVE SMOOTH",
"89 453 OFFCURVE",
"92 436 OFFCURVE",
"91 416 CURVE SMOOTH",
"74 0 LINE",
"186 0 LINE",
"194 69 LINE SMOOTH",
"203 144 OFFCURVE",
"225 212 OFFCURVE",
"259 283 CURVE SMOOTH",
"309 388 OFFCURVE",
"321 416 OFFCURVE",
"347 416 CURVE SMOOTH",
"363 416 OFFCURVE",
"369 407 OFFCURVE",
"381 387 CURVE SMOOTH"
);
}
);
};
hints = (
{
horizontal = 1;
place = "{416, 111}";
},
{
horizontal = 1;
place = "{453, 74}";
},
{
horizontal = 1;
place = "{0, 21}";
target = up;
type = BottomGhost;
}
);
layerId = UUID0;
paths = (
{
closed = 1;
nodes = (
"394 365 LINE",
"439 377 OFFCURVE",
"466 415 OFFCURVE",
"466 448 CURVE SMOOTH",
"466 487 OFFCURVE",
"443 527 OFFCURVE",
"379 527 CURVE SMOOTH",
"299 527 OFFCURVE",
"276 469 OFFCURVE",
"247 399 CURVE SMOOTH",
"197 280 LINE",
"190 282 LINE",
"209 419 LINE SMOOTH",
"215 486 OFFCURVE",
"193 527 OFFCURVE",
"136 527 CURVE SMOOTH",
"96 527 OFFCURVE",
"45 515 OFFCURVE",
"0 492 CURVE",
"16 438 LINE",
"38 447 OFFCURVE",
"52 453 OFFCURVE",
"68 453 CURVE SMOOTH",
"89 453 OFFCURVE",
"92 436 OFFCURVE",
"91 416 CURVE SMOOTH",
"74 0 LINE",
"186 0 LINE",
"194 69 LINE SMOOTH",
"203 144 OFFCURVE",
"225 212 OFFCURVE",
"259 283 CURVE SMOOTH",
"309 388 OFFCURVE",
"321 416 OFFCURVE",
"347 416 CURVE SMOOTH",
"363 416 OFFCURVE",
"369 407 OFFCURVE",
"381 387 CURVE SMOOTH"
);
}
);
width = 491;
}
);
leftKerningGroup = n;
rightKerningGroup = r;
unicode = 0072;
},
{
glyphname = s;
lastChange = "2016-06-05 15:23:08 +0000";
layers = (
{
anchors = (
{
name = bottom;
position = "{203, -30}";
},
{
name = top;
position = "{248, 550}";
}
);
background = {
paths = (
{
closed = 1;
nodes = (
"158 52 OFFCURVE",
"145 67 OFFCURVE",
"145 106 CURVE SMOOTH",
"145 135 LINE",
"134 142 OFFCURVE",
"107 148 OFFCURVE",
"86 148 CURVE SMOOTH",
"52 148 OFFCURVE",
"25 124 OFFCURVE",
"25 82 CURVE SMOOTH",
"25 19 OFFCURVE",
"101 -14 OFFCURVE",
"197 -14 CURVE SMOOTH",
"319 -14 OFFCURVE",
"407 54 OFFCURVE",
"407 158 CURVE SMOOTH",
"407 328 OFFCURVE",
"160 310 OFFCURVE",
"160 401 CURVE SMOOTH",
"160 434 OFFCURVE",
"192 462 OFFCURVE",
"250 462 CURVE SMOOTH",
"302 462 OFFCURVE",
"315 443 OFFCURVE",
"309 412 CURVE SMOOTH",
"299 378 LINE",
"309 368 OFFCURVE",
"339 358 OFFCURVE",
"364 358 CURVE SMOOTH",
"395 358 OFFCURVE",
"420 386 OFFCURVE",
"420 423 CURVE SMOOTH",
"420 489 OFFCURVE",
"343 527 OFFCURVE",
"254 527 CURVE SMOOTH",
"103 527 OFFCURVE",
"54 437 OFFCURVE",
"54 366 CURVE SMOOTH",
"54 194 OFFCURVE",
"303 215 OFFCURVE",
"303 120 CURVE SMOOTH",
"303 72 OFFCURVE",
"262 52 OFFCURVE",
"212 52 CURVE SMOOTH"
);
}
);
};
hints = (
{
place = "{303, 104}";
},
{
place = "{54, 106}";
},
{
horizontal = 1;
place = "{-14, 66}";
},
{
horizontal = 1;
place = "{462, 65}";
}
);
layerId = UUID0;
paths = (
{
closed = 1;
nodes = (
"158 52 OFFCURVE",
"145 67 OFFCURVE",
"145 106 CURVE SMOOTH",
"145 135 LINE",
"134 142 OFFCURVE",
"107 148 OFFCURVE",
"86 148 CURVE SMOOTH",
"52 148 OFFCURVE",
"25 124 OFFCURVE",
"25 82 CURVE SMOOTH",
"25 19 OFFCURVE",
"101 -14 OFFCURVE",
"197 -14 CURVE SMOOTH",
"319 -14 OFFCURVE",
"407 54 OFFCURVE",
"407 158 CURVE SMOOTH",
"407 328 OFFCURVE",
"160 310 OFFCURVE",
"160 401 CURVE SMOOTH",
"160 434 OFFCURVE",
"192 462 OFFCURVE",
"250 462 CURVE SMOOTH",
"302 462 OFFCURVE",
"315 443 OFFCURVE",
"309 412 CURVE SMOOTH",
"299 378 LINE",
"309 368 OFFCURVE",
"339 358 OFFCURVE",
"364 358 CURVE SMOOTH",
"395 358 OFFCURVE",
"420 386 OFFCURVE",
"420 423 CURVE SMOOTH",
"420 489 OFFCURVE",
"343 527 OFFCURVE",
"254 527 CURVE SMOOTH",
"103 527 OFFCURVE",
"54 437 OFFCURVE",
"54 366 CURVE SMOOTH",
"54 194 OFFCURVE",
"303 215 OFFCURVE",
"303 120 CURVE SMOOTH",
"303 72 OFFCURVE",
"262 52 OFFCURVE",
"212 52 CURVE SMOOTH"
);
}
);
width = 446;
}
);
leftKerningGroup = s;
rightKerningGroup = s;
unicode = 0073;
},
{
glyphname = t;
lastChange = "2016-06-05 15:23:08 +0000";
layers = (
{
anchors = (
{
name = bottom;
position = "{219, -30}";
}
);
background = {
paths = (
{
closed = 1;
nodes = (
"18 449 LINE",
"96 449 LINE",
"81 133 LINE SMOOTH",
"77 43 OFFCURVE",
"122 -14 OFFCURVE",
"224 -14 CURVE SMOOTH",
"296 -14 OFFCURVE",
"353 24 OFFCURVE",
"388 71 CURVE",
"354 115 LINE",
"323 85 OFFCURVE",
"297 70 OFFCURVE",
"263 70 CURVE SMOOTH",
"215 70 OFFCURVE",
"206 99 OFFCURVE",
"208 147 CURVE SMOOTH",
"223 449 LINE",
"358 449 LINE",
"362 513 LINE",
"226 513 LINE",
"235 674 LINE",
"147 674 LINE",
"101 515 LINE",
"26 507 LINE"
);
}
);
};
hints = (
{
place = "{88, 127}";
},
{
horizontal = 1;
place = "{-14, 84}";
},
{
horizontal = 1;
place = "{449, 64}";
},
{
horizontal = 1;
place = "{674, -20}";
target = down;
type = TopGhost;
}
);
layerId = UUID0;
paths = (
{
closed = 1;
nodes = (
"18 449 LINE",
"96 449 LINE",
"81 133 LINE SMOOTH",
"77 43 OFFCURVE",
"122 -14 OFFCURVE",
"224 -14 CURVE SMOOTH",
"296 -14 OFFCURVE",
"353 24 OFFCURVE",
"388 71 CURVE",
"354 115 LINE",
"323 85 OFFCURVE",
"297 70 OFFCURVE",
"263 70 CURVE SMOOTH",
"215 70 OFFCURVE",
"206 99 OFFCURVE",
"208 147 CURVE SMOOTH",
"223 449 LINE",
"358 449 LINE",
"362 513 LINE",
"226 513 LINE",
"235 674 LINE",
"147 674 LINE",
"101 515 LINE",
"26 507 LINE"
);
}
);
width = 399;
}
);
leftKerningGroup = t;
rightKerningGroup = t;
unicode = 0074;
},
{
glyphname = u;
lastChange = "2016-06-05 15:23:08 +0000";
layers = (
{
anchors = (
{
name = top;
position = "{294, 550}";
}
);
background = {
paths = (
{
closed = 1;
nodes = (
"30 434 LINE",
"43 440 OFFCURVE",
"62 448 OFFCURVE",
"77 448 CURVE SMOOTH",
"99 448 OFFCURVE",
"102 430 OFFCURVE",
"100 405 CURVE SMOOTH",
"78 130 LINE SMOOTH",
"70 43 OFFCURVE",
"107 -14 OFFCURVE",
"189 -14 CURVE SMOOTH",
"280 -14 OFFCURVE",
"310 50 OFFCURVE",
"336 138 CURVE SMOOTH",
"401 353 LINE",
"408 351 LINE",
"384 88 LINE SMOOTH",
"378 21 OFFCURVE",
"407 -14 OFFCURVE",
"472 -14 CURVE SMOOTH",
"519 -14 OFFCURVE",
"573 10 OFFCURVE",
"599 28 CURVE",
"577 78 LINE",
"560 70 OFFCURVE",
"543 63 OFFCURVE",
"525 63 CURVE SMOOTH",
"506 63 OFFCURVE",
"501 76 OFFCURVE",
"502 99 CURVE SMOOTH",
"517 513 LINE",
"381 513 LINE",
"282 190 LINE SMOOTH",
"259 117 OFFCURVE",
"248 89 OFFCURVE",
"226 89 CURVE SMOOTH",
"199 89 OFFCURVE",
"201 108 OFFCURVE",
"204 150 CURVE SMOOTH",
"229 431 LINE SMOOTH",
"234 492 OFFCURVE",
"207 527 OFFCURVE",
"142 527 CURVE SMOOTH",
"96 527 OFFCURVE",
"35 503 OFFCURVE",
"11 488 CURVE"
);
}
);
};
hints = (
{
place = "{89, 115}";
},
{
horizontal = 1;
place = "{-14, 77}";
},
{
horizontal = 1;
place = "{448, 79}";
},
{
horizontal = 1;
place = "{-14, 103}";
},
{
horizontal = 1;
place = "{513, -20}";
target = down;
type = TopGhost;
}
);
layerId = UUID0;
paths = (
{
closed = 1;
nodes = (
"30 434 LINE",
"43 440 OFFCURVE",
"62 448 OFFCURVE",
"77 448 CURVE SMOOTH",
"99 448 OFFCURVE",
"102 430 OFFCURVE",
"100 405 CURVE SMOOTH",
"78 130 LINE SMOOTH",
"70 43 OFFCURVE",
"107 -14 OFFCURVE",
"189 -14 CURVE SMOOTH",
"280 -14 OFFCURVE",
"310 50 OFFCURVE",
"336 138 CURVE SMOOTH",
"401 353 LINE",
"408 351 LINE",
"384 88 LINE SMOOTH",
"378 21 OFFCURVE",
"407 -14 OFFCURVE",
"472 -14 CURVE SMOOTH",
"519 -14 OFFCURVE",
"573 10 OFFCURVE",
"599 28 CURVE",
"577 78 LINE",
"560 70 OFFCURVE",
"543 63 OFFCURVE",
"525 63 CURVE SMOOTH",
"506 63 OFFCURVE",
"501 76 OFFCURVE",
"502 99 CURVE SMOOTH",
"517 513 LINE",
"381 513 LINE",
"282 190 LINE SMOOTH",
"259 117 OFFCURVE",
"248 89 OFFCURVE",
"226 89 CURVE SMOOTH",
"199 89 OFFCURVE",
"201 108 OFFCURVE",
"204 150 CURVE SMOOTH",
"229 431 LINE SMOOTH",
"234 492 OFFCURVE",
"207 527 OFFCURVE",
"142 527 CURVE SMOOTH",
"96 527 OFFCURVE",
"35 503 OFFCURVE",
"11 488 CURVE"
);
}
);
width = 596;
}
);
leftKerningGroup = u;
rightKerningGroup = u;
unicode = 0075;
},
{
glyphname = v;
lastChange = "2016-06-05 15:23:08 +0000";
layers = (
{
anchors = (
{
name = top;
position = "{287, 550}";
}
);
background = {
paths = (
{
closed = 1;
nodes = (
"364 527 OFFCURVE",
"325 493 OFFCURVE",
"337 430 CURVE",
"377 416 LINE SMOOTH",
"401 407 OFFCURVE",
"408 398 OFFCURVE",
"408 362 CURVE SMOOTH",
"408 254 OFFCURVE",
"352 77 OFFCURVE",
"252 77 CURVE SMOOTH",
"206 77 OFFCURVE",
"200 108 OFFCURVE",
"204 167 CURVE SMOOTH",
"220 432 LINE SMOOTH",
"223 492 OFFCURVE",
"199 527 OFFCURVE",
"132 527 CURVE SMOOTH",
"79 527 OFFCURVE",
"25 507 OFFCURVE",
"2 494 CURVE",
"19 439 LINE",
"56 450 LINE SMOOTH",
"81 457 OFFCURVE",
"93 448 OFFCURVE",
"92 419 CURVE SMOOTH",
"79 149 LINE SMOOTH",
"72 4 OFFCURVE",
"157 -14 OFFCURVE",
"226 -14 CURVE SMOOTH",
"424 -14 OFFCURVE",
"498 271 OFFCURVE",
"498 421 CURVE SMOOTH",
"498 487 OFFCURVE",
"470 527 OFFCURVE",
"411 527 CURVE SMOOTH"
);
}
);
};
hints = (
{
place = "{85, 127}";
},
{
place = "{408, 90}";
},
{
horizontal = 1;
place = "{-14, 91}";
},
{
horizontal = 1;
place = "{527, -20}";
target = down;
type = TopGhost;
}
);
layerId = UUID0;
paths = (
{
closed = 1;
nodes = (
"364 527 OFFCURVE",
"325 493 OFFCURVE",
"337 430 CURVE",
"377 416 LINE SMOOTH",
"401 407 OFFCURVE",
"408 398 OFFCURVE",
"408 362 CURVE SMOOTH",
"408 254 OFFCURVE",
"352 77 OFFCURVE",
"252 77 CURVE SMOOTH",
"206 77 OFFCURVE",
"200 108 OFFCURVE",
"204 167 CURVE SMOOTH",
"220 432 LINE SMOOTH",
"223 492 OFFCURVE",
"199 527 OFFCURVE",
"132 527 CURVE SMOOTH",
"79 527 OFFCURVE",
"25 507 OFFCURVE",
"2 494 CURVE",
"19 439 LINE",
"56 450 LINE SMOOTH",
"81 457 OFFCURVE",
"93 448 OFFCURVE",
"92 419 CURVE SMOOTH",
"79 149 LINE SMOOTH",
"72 4 OFFCURVE",
"157 -14 OFFCURVE",
"226 -14 CURVE SMOOTH",
"424 -14 OFFCURVE",
"498 271 OFFCURVE",
"498 421 CURVE SMOOTH",
"498 487 OFFCURVE",
"470 527 OFFCURVE",
"411 527 CURVE SMOOTH"
);
}
);
width = 534;
}
);
leftKerningGroup = v;
rightKerningGroup = v;
unicode = 0076;
},
{
glyphname = w;
lastChange = "2016-06-05 15:23:08 +0000";
layers = (
{
anchors = (
{
name = top;
position = "{420, 550}";
}
);
background = {
paths = (
{
closed = 1;
nodes = (
"361 502 LINE",
"366 460 OFFCURVE",
"370 411 OFFCURVE",
"370 366 CURVE SMOOTH",
"370 208 OFFCURVE",
"349 78 OFFCURVE",
"249 78 CURVE SMOOTH",
"201 78 OFFCURVE",
"202 115 OFFCURVE",
"206 183 CURVE SMOOTH",
"221 434 LINE SMOOTH",
"224 492 OFFCURVE",
"196 527 OFFCURVE",
"131 527 CURVE SMOOTH",
"84 527 OFFCURVE",
"25 508 OFFCURVE",
"2 495 CURVE",
"19 438 LINE",
"47 447 LINE SMOOTH",
"75 456 OFFCURVE",
"93 453 OFFCURVE",
"92 421 CURVE SMOOTH",
"79 149 LINE SMOOTH",
"72 4 OFFCURVE",
"159 -14 OFFCURVE",
"216 -14 CURVE SMOOTH",
"300 -14 OFFCURVE",
"349 22 OFFCURVE",
"384 87 CURVE",
"394 10 OFFCURVE",
"450 -14 OFFCURVE",
"497 -14 CURVE SMOOTH",
"681 -14 OFFCURVE",
"759 254 OFFCURVE",
"759 410 CURVE SMOOTH",
"759 477 OFFCURVE",
"733 527 OFFCURVE",
"667 527 CURVE SMOOTH",
"618 527 OFFCURVE",
"588 491 OFFCURVE",
"597 429 CURVE",
"635 416 LINE SMOOTH",
"662 406 OFFCURVE",
"671 398 OFFCURVE",
"671 354 CURVE SMOOTH",
"671 247 OFFCURVE",
"614 78 OFFCURVE",
"519 78 CURVE SMOOTH",
"462 78 OFFCURVE",
"470 122 OFFCURVE",
"479 190 CURVE SMOOTH",
"488 257 OFFCURVE",
"494 311 OFFCURVE",
"494 385 CURVE SMOOTH",
"494 428 OFFCURVE",
"490 476 OFFCURVE",
"482 514 CURVE"
);
}
);
};
hints = (
{
place = "{85, 128}";
},
{
place = "{370, 124}";
},
{
place = "{671, 88}";
},
{
horizontal = 1;
place = "{-14, 92}";
},
{
horizontal = 1;
place = "{527, -20}";
target = down;
type = TopGhost;
}
);
layerId = UUID0;
paths = (
{
closed = 1;
nodes = (
"361 502 LINE",
"366 460 OFFCURVE",
"370 411 OFFCURVE",
"370 366 CURVE SMOOTH",
"370 208 OFFCURVE",
"349 78 OFFCURVE",
"249 78 CURVE SMOOTH",
"201 78 OFFCURVE",
"202 115 OFFCURVE",
"206 183 CURVE SMOOTH",
"221 434 LINE SMOOTH",
"224 492 OFFCURVE",
"196 527 OFFCURVE",
"131 527 CURVE SMOOTH",
"84 527 OFFCURVE",
"25 508 OFFCURVE",
"2 495 CURVE",
"19 438 LINE",
"47 447 LINE SMOOTH",
"75 456 OFFCURVE",
"93 453 OFFCURVE",
"92 421 CURVE SMOOTH",
"79 149 LINE SMOOTH",
"72 4 OFFCURVE",
"159 -14 OFFCURVE",
"216 -14 CURVE SMOOTH",
"300 -14 OFFCURVE",
"349 22 OFFCURVE",
"384 87 CURVE",
"394 10 OFFCURVE",
"450 -14 OFFCURVE",
"497 -14 CURVE SMOOTH",
"681 -14 OFFCURVE",
"759 254 OFFCURVE",
"759 410 CURVE SMOOTH",
"759 477 OFFCURVE",
"733 527 OFFCURVE",
"667 527 CURVE SMOOTH",
"618 527 OFFCURVE",
"588 491 OFFCURVE",
"597 429 CURVE",
"635 416 LINE SMOOTH",
"662 406 OFFCURVE",
"671 398 OFFCURVE",
"671 354 CURVE SMOOTH",
"671 247 OFFCURVE",
"614 78 OFFCURVE",
"519 78 CURVE SMOOTH",
"462 78 OFFCURVE",
"470 122 OFFCURVE",
"479 190 CURVE SMOOTH",
"488 257 OFFCURVE",
"494 311 OFFCURVE",
"494 385 CURVE SMOOTH",
"494 428 OFFCURVE",
"490 476 OFFCURVE",
"482 514 CURVE"
);
}
);
width = 797;
}
);
leftKerningGroup = v;
rightKerningGroup = v;
unicode = 0077;
},
{
glyphname = x;
lastChange = "2016-06-05 15:23:08 +0000";
layers = (
{
background = {
paths = (
{
closed = 1;
nodes = (
"250 456 LINE SMOOTH",
"228 506 OFFCURVE",
"196 527 OFFCURVE",
"142 527 CURVE SMOOTH",
"90 527 OFFCURVE",
"45 505 OFFCURVE",
"23 493 CURVE",
"43 434 LINE",
"59 442 OFFCURVE",
"77 449 OFFCURVE",
"94 449 CURVE SMOOTH",
"109 449 OFFCURVE",
"120 444 OFFCURVE",
"134 413 CURVE SMOOTH",
"206 256 LINE",
"134 202 LINE SMOOTH",
"56 144 OFFCURVE",
"28 109 OFFCURVE",
"28 56 CURVE SMOOTH",
"28 20 OFFCURVE",
"51 -14 OFFCURVE",
"97 -14 CURVE SMOOTH",
"142 -14 OFFCURVE",
"172 16 OFFCURVE",
"176 55 CURVE",
"152 64 LINE SMOOTH",
"117 77 OFFCURVE",
"117 105 OFFCURVE",
"162 142 CURVE SMOOTH",
"232 199 LINE",
"292 67 LINE SMOOTH",
"321 4 OFFCURVE",
"360 -14 OFFCURVE",
"414 -14 CURVE SMOOTH",
"466 -14 OFFCURVE",
"507 8 OFFCURVE",
"532 30 CURVE",
"507 79 LINE",
"490 69 OFFCURVE",
"478 62 OFFCURVE",
"458 62 CURVE SMOOTH",
"435 62 OFFCURVE",
"425 75 OFFCURVE",
"409 110 CURVE SMOOTH",
"336 268 LINE",
"388 307 LINE SMOOTH",
"465 366 OFFCURVE",
"503 405 OFFCURVE",
"503 461 CURVE SMOOTH",
"503 494 OFFCURVE",
"480 527 OFFCURVE",
"431 527 CURVE SMOOTH",
"393 527 OFFCURVE",
"359 503 OFFCURVE",
"352 459 CURVE",
"383 439 LINE SMOOTH",
"406 424 OFFCURVE",
"396 400 OFFCURVE",
"361 370 CURVE SMOOTH",
"310 325 LINE"
);
}
);
};
hints = (
{
horizontal = 1;
place = "{-14, 76}";
},
{
horizontal = 1;
place = "{449, 78}";
}
);
layerId = UUID0;
paths = (
{
closed = 1;
nodes = (
"250 456 LINE SMOOTH",
"228 506 OFFCURVE",
"196 527 OFFCURVE",
"142 527 CURVE SMOOTH",
"90 527 OFFCURVE",
"45 505 OFFCURVE",
"23 493 CURVE",
"43 434 LINE",
"59 442 OFFCURVE",
"77 449 OFFCURVE",
"94 449 CURVE SMOOTH",
"109 449 OFFCURVE",
"120 444 OFFCURVE",
"134 413 CURVE SMOOTH",
"206 256 LINE",
"134 202 LINE SMOOTH",
"56 144 OFFCURVE",
"28 109 OFFCURVE",
"28 56 CURVE SMOOTH",
"28 20 OFFCURVE",
"51 -14 OFFCURVE",
"97 -14 CURVE SMOOTH",
"142 -14 OFFCURVE",
"172 16 OFFCURVE",
"176 55 CURVE",
"152 64 LINE SMOOTH",
"117 77 OFFCURVE",
"117 105 OFFCURVE",
"162 142 CURVE SMOOTH",
"232 199 LINE",
"292 67 LINE SMOOTH",
"321 4 OFFCURVE",
"360 -14 OFFCURVE",
"414 -14 CURVE SMOOTH",
"466 -14 OFFCURVE",
"507 8 OFFCURVE",
"532 30 CURVE",
"507 79 LINE",
"490 69 OFFCURVE",
"478 62 OFFCURVE",
"458 62 CURVE SMOOTH",
"435 62 OFFCURVE",
"425 75 OFFCURVE",
"409 110 CURVE SMOOTH",
"336 268 LINE",
"388 307 LINE SMOOTH",
"465 366 OFFCURVE",
"503 405 OFFCURVE",
"503 461 CURVE SMOOTH",
"503 494 OFFCURVE",
"480 527 OFFCURVE",
"431 527 CURVE SMOOTH",
"393 527 OFFCURVE",
"359 503 OFFCURVE",
"352 459 CURVE",
"383 439 LINE SMOOTH",
"406 424 OFFCURVE",
"396 400 OFFCURVE",
"361 370 CURVE SMOOTH",
"310 325 LINE"
);
}
);
width = 542;
}
);
unicode = 0078;
},
{
glyphname = y;
lastChange = "2016-06-05 15:23:08 +0000";
layers = (
{
anchors = (
{
name = top;
position = "{282, 550}";
}
);
background = {
paths = (
{
closed = 1;
nodes = (
"431 226 LINE SMOOTH",
"467 309 OFFCURVE",
"498 380 OFFCURVE",
"498 441 CURVE SMOOTH",
"498 497 OFFCURVE",
"466 527 OFFCURVE",
"417 527 CURVE SMOOTH",
"368 527 OFFCURVE",
"327 493 OFFCURVE",
"339 428 CURVE",
"374 415 LINE SMOOTH",
"407 403 OFFCURVE",
"418 389 OFFCURVE",
"397 338 CURVE SMOOTH",
"290 78 LINE",
"286 78 LINE SMOOTH",
"272 78 OFFCURVE",
"259 82 OFFCURVE",
"247 111 CURVE SMOOTH",
"224 166 OFFCURVE",
"210 243 OFFCURVE",
"210 360 CURVE SMOOTH",
"210 390 OFFCURVE",
"212 412 OFFCURVE",
"212 435 CURVE SMOOTH",
"212 488 OFFCURVE",
"191 527 OFFCURVE",
"123 527 CURVE SMOOTH",
"74 527 OFFCURVE",
"18 507 OFFCURVE",
"-4 495 CURVE",
"12 440 LINE",
"27 445 OFFCURVE",
"48 453 OFFCURVE",
"63 453 CURVE SMOOTH",
"78 453 OFFCURVE",
"85 446 OFFCURVE",
"85 425 CURVE SMOOTH",
"85 404 OFFCURVE",
"84 371 OFFCURVE",
"84 349 CURVE SMOOTH",
"84 221 OFFCURVE",
"104 115 OFFCURVE",
"138 59 CURVE SMOOTH",
"163 19 OFFCURVE",
"189 0 OFFCURVE",
"229 0 CURVE SMOOTH",
"255 0 LINE",
"214 -88 LINE SMOOTH",
"198 -123 OFFCURVE",
"183 -147 OFFCURVE",
"158 -147 CURVE SMOOTH",
"133 -147 OFFCURVE",
"123 -127 OFFCURVE",
"113 -104 CURVE SMOOTH",
"100 -71 LINE",
"47 -75 OFFCURVE",
"15 -103 OFFCURVE",
"15 -157 CURVE SMOOTH",
"15 -200 OFFCURVE",
"53 -229 OFFCURVE",
"109 -229 CURVE SMOOTH",
"218 -229 OFFCURVE",
"261 -157 OFFCURVE",
"305 -57 CURVE SMOOTH"
);
}
);
};
hints = (
{
place = "{84, 126}";
},
{
horizontal = 1;
place = "{-229, 82}";
},
{
horizontal = 1;
origin = "{0, 27}";
target = "{0, 34}";
},
{
horizontal = 1;
origin = "{0, 47}";
target = "{0, 15}";
}
);
layerId = UUID0;
paths = (
{
closed = 1;
nodes = (
"431 226 LINE SMOOTH",
"467 309 OFFCURVE",
"498 380 OFFCURVE",
"498 441 CURVE SMOOTH",
"498 497 OFFCURVE",
"466 527 OFFCURVE",
"417 527 CURVE SMOOTH",
"368 527 OFFCURVE",
"327 493 OFFCURVE",
"339 428 CURVE",
"374 415 LINE SMOOTH",
"407 403 OFFCURVE",
"418 389 OFFCURVE",
"397 338 CURVE SMOOTH",
"290 78 LINE",
"286 78 LINE SMOOTH",
"272 78 OFFCURVE",
"259 82 OFFCURVE",
"247 111 CURVE SMOOTH",
"224 166 OFFCURVE",
"210 243 OFFCURVE",
"210 360 CURVE SMOOTH",
"210 390 OFFCURVE",
"212 412 OFFCURVE",
"212 435 CURVE SMOOTH",
"212 488 OFFCURVE",
"191 527 OFFCURVE",
"123 527 CURVE SMOOTH",
"74 527 OFFCURVE",
"18 507 OFFCURVE",
"-4 495 CURVE",
"12 440 LINE",
"27 445 OFFCURVE",
"48 453 OFFCURVE",
"63 453 CURVE SMOOTH",
"78 453 OFFCURVE",
"85 446 OFFCURVE",
"85 425 CURVE SMOOTH",
"85 404 OFFCURVE",
"84 371 OFFCURVE",
"84 349 CURVE SMOOTH",
"84 221 OFFCURVE",
"104 115 OFFCURVE",
"138 59 CURVE SMOOTH",
"163 19 OFFCURVE",
"189 0 OFFCURVE",
"229 0 CURVE SMOOTH",
"255 0 LINE",
"214 -88 LINE SMOOTH",
"198 -123 OFFCURVE",
"183 -147 OFFCURVE",
"158 -147 CURVE SMOOTH",
"133 -147 OFFCURVE",
"123 -127 OFFCURVE",
"113 -104 CURVE SMOOTH",
"100 -71 LINE",
"47 -75 OFFCURVE",
"15 -103 OFFCURVE",
"15 -157 CURVE SMOOTH",
"15 -200 OFFCURVE",
"53 -229 OFFCURVE",
"109 -229 CURVE SMOOTH",
"218 -229 OFFCURVE",
"261 -157 OFFCURVE",
"305 -57 CURVE SMOOTH"
);
}
);
width = 529;
}
);
leftKerningGroup = y;
rightKerningGroup = y;
unicode = 0079;
},
{
glyphname = z;
lastChange = "2016-06-05 15:23:08 +0000";
layers = (
{
anchors = (
{
name = bottom;
position = "{226, -30}";
},
{
name = top;
position = "{256, 550}";
}
);
background = {
paths = (
{
closed = 1;
nodes = (
"60 502 LINE",
"44 315 LINE",
"100 318 LINE",
"121 402 OFFCURVE",
"130 415 OFFCURVE",
"183 415 CURVE SMOOTH",
"321 415 LINE",
"29 46 LINE",
"65 -7 LINE",
"84 2 OFFCURVE",
"105 9 OFFCURVE",
"144 9 CURVE SMOOTH",
"221 9 OFFCURVE",
"325 -22 OFFCURVE",
"416 0 CURVE",
"448 201 LINE",
"393 201 LINE",
"364 120 OFFCURVE",
"356 96 OFFCURVE",
"319 96 CURVE SMOOTH",
"286 96 OFFCURVE",
"269 109 OFFCURVE",
"226 109 CURVE SMOOTH",
"205 109 OFFCURVE",
"183 107 OFFCURVE",
"162 102 CURVE",
"451 463 LINE",
"435 513 LINE",
"71 513 LINE"
);
}
);
};
hints = (
{
horizontal = 1;
place = "{415, 98}";
},
{
horizontal = 1;
origin = "{0, 19}";
target = "{0, 8}";
}
);
layerId = UUID0;
paths = (
{
closed = 1;
nodes = (
"60 502 LINE",
"44 315 LINE",
"100 318 LINE",
"121 402 OFFCURVE",
"130 415 OFFCURVE",
"183 415 CURVE SMOOTH",
"321 415 LINE",
"29 46 LINE",
"65 -7 LINE",
"84 2 OFFCURVE",
"105 9 OFFCURVE",
"144 9 CURVE SMOOTH",
"221 9 OFFCURVE",
"325 -22 OFFCURVE",
"416 0 CURVE",
"448 201 LINE",
"393 201 LINE",
"364 120 OFFCURVE",
"356 96 OFFCURVE",
"319 96 CURVE SMOOTH",
"286 96 OFFCURVE",
"269 109 OFFCURVE",
"226 109 CURVE SMOOTH",
"205 109 OFFCURVE",
"183 107 OFFCURVE",
"162 102 CURVE",
"451 463 LINE",
"435 513 LINE",
"71 513 LINE"
);
}
);
width = 484;
}
);
leftKerningGroup = z;
rightKerningGroup = z;
unicode = 007A;
},
{
glyphname = parenleft;
lastChange = "2016-06-05 15:23:08 +0000";
layers = (
{
background = {
paths = (
{
closed = 1;
nodes = (
"50 79 OFFCURVE",
"137 -95 OFFCURVE",
"245 -216 CURVE",
"296 -185 LINE",
"234 -71 OFFCURVE",
"196 94 OFFCURVE",
"196 254 CURVE SMOOTH",
"196 431 OFFCURVE",
"243 641 OFFCURVE",
"342 789 CURVE",
"291 822 LINE",
"146 687 OFFCURVE",
"50 467 OFFCURVE",
"50 278 CURVE SMOOTH"
);
}
);
};
hints = (
{
place = "{50, 146}";
},
{
horizontal = 1;
place = "{-216, 21}";
target = up;
type = BottomGhost;
},
{
horizontal = 1;
place = "{822, -20}";
target = down;
type = TopGhost;
}
);
layerId = UUID0;
paths = (
{
closed = 1;
nodes = (
"50 79 OFFCURVE",
"137 -95 OFFCURVE",
"245 -216 CURVE",
"296 -185 LINE",
"234 -71 OFFCURVE",
"196 94 OFFCURVE",
"196 254 CURVE SMOOTH",
"196 431 OFFCURVE",
"243 641 OFFCURVE",
"342 789 CURVE",
"291 822 LINE",
"146 687 OFFCURVE",
"50 467 OFFCURVE",
"50 278 CURVE SMOOTH"
);
}
);
width = 332;
}
);
leftKerningGroup = parenleft;
rightKerningGroup = parenleft;
unicode = 0028;
},
{
glyphname = parenright;
lastChange = "2016-06-05 15:23:08 +0000";
layers = (
{
background = {
paths = (
{
closed = 1;
nodes = (
"296 527 OFFCURVE",
"209 701 OFFCURVE",
"101 822 CURVE",
"50 791 LINE",
"112 677 OFFCURVE",
"150 512 OFFCURVE",
"150 352 CURVE SMOOTH",
"150 175 OFFCURVE",
"103 -35 OFFCURVE",
"4 -183 CURVE",
"55 -216 LINE",
"200 -81 OFFCURVE",
"296 139 OFFCURVE",
"296 328 CURVE SMOOTH"
);
}
);
};
hints = (
{
place = "{150, 146}";
},
{
horizontal = 1;
place = "{822, -20}";
target = down;
type = TopGhost;
},
{
horizontal = 1;
place = "{-216, 21}";
target = up;
type = BottomGhost;
}
);
layerId = UUID0;
paths = (
{
closed = 1;
nodes = (
"296 527 OFFCURVE",
"209 701 OFFCURVE",
"101 822 CURVE",
"50 791 LINE",
"112 677 OFFCURVE",
"150 512 OFFCURVE",
"150 352 CURVE SMOOTH",
"150 175 OFFCURVE",
"103 -35 OFFCURVE",
"4 -183 CURVE",
"55 -216 LINE",
"200 -81 OFFCURVE",
"296 139 OFFCURVE",
"296 328 CURVE SMOOTH"
);
}
);
width = 332;
}
);
leftKerningGroup = parenright;
rightKerningGroup = parenright;
unicode = 0029;
},
{
glyphname = bracketleft;
lastChange = "2016-06-05 15:23:08 +0000";
layers = (
{
background = {
paths = (
{
closed = 1;
nodes = (
"235 736 LINE",
"326 745 LINE",
"331 812 LINE",
"108 812 LINE",
"65 -212 LINE",
"288 -212 LINE",
"297 -145 LINE",
"199 -134 LINE"
);
}
);
};
hints = (
{
place = "{86, 131}";
},
{
horizontal = 1;
place = "{812, -20}";
target = down;
type = TopGhost;
},
{
horizontal = 1;
place = "{-212, 21}";
target = up;
type = BottomGhost;
}
);
layerId = UUID0;
paths = (
{
closed = 1;
nodes = (
"235 736 LINE",
"326 745 LINE",
"331 812 LINE",
"108 812 LINE",
"65 -212 LINE",
"288 -212 LINE",
"297 -145 LINE",
"199 -134 LINE"
);
}
);
width = 333;
}
);
unicode = 005B;
},
{
glyphname = bracketright;
lastChange = "2016-06-05 15:23:08 +0000";
layers = (
{
background = {
paths = (
{
closed = 1;
nodes = (
"114 -136 LINE",
"23 -145 LINE",
"18 -212 LINE",
"241 -212 LINE",
"284 812 LINE",
"61 812 LINE",
"52 745 LINE",
"150 734 LINE"
);
}
);
};
hints = (
{
place = "{132, 130}";
},
{
horizontal = 1;
place = "{-212, 21}";
target = up;
type = BottomGhost;
},
{
horizontal = 1;
place = "{812, -20}";
target = down;
type = TopGhost;
}
);
layerId = UUID0;
paths = (
{
closed = 1;
nodes = (
"114 -136 LINE",
"23 -145 LINE",
"18 -212 LINE",
"241 -212 LINE",
"284 812 LINE",
"61 812 LINE",
"52 745 LINE",
"150 734 LINE"
);
}
);
width = 333;
}
);
unicode = 005D;
},
{
glyphname = braceleft;
lastChange = "2016-06-05 15:23:08 +0000";
layers = (
{
background = {
paths = (
{
closed = 1;
nodes = (
"41 269 LINE",
"91 268 OFFCURVE",
"125 263 OFFCURVE",
"125 185 CURVE SMOOTH",
"125 104 OFFCURVE",
"94 -44 OFFCURVE",
"94 -108 CURVE SMOOTH",
"94 -181 OFFCURVE",
"138 -228 OFFCURVE",
"224 -228 CURVE SMOOTH",
"249 -228 OFFCURVE",
"285 -226 OFFCURVE",
"314 -216 CURVE",
"304 -157 LINE",
"283 -162 OFFCURVE",
"272 -163 OFFCURVE",
"266 -163 CURVE SMOOTH",
"239 -163 OFFCURVE",
"224 -154 OFFCURVE",
"224 -107 CURVE SMOOTH",
"224 -40 OFFCURVE",
"249 90 OFFCURVE",
"249 181 CURVE SMOOTH",
"249 249 OFFCURVE",
"208 287 OFFCURVE",
"164 307 CURVE",
"209 323 OFFCURVE",
"260 359 OFFCURVE",
"260 438 CURVE SMOOTH",
"260 500 OFFCURVE",
"253 647 OFFCURVE",
"255 706 CURVE SMOOTH",
"256 733 OFFCURVE",
"263 756 OFFCURVE",
"296 756 CURVE SMOOTH",
"307 756 OFFCURVE",
"318 754 OFFCURVE",
"334 750 CURVE",
"348 810 LINE",
"331 817 OFFCURVE",
"290 821 OFFCURVE",
"265 821 CURVE SMOOTH",
"178 821 OFFCURVE",
"126 774 OFFCURVE",
"123 697 CURVE SMOOTH",
"121 630 OFFCURVE",
"134 511 OFFCURVE",
"134 435 CURVE SMOOTH",
"134 358 OFFCURVE",
"95 341 OFFCURVE",
"43 341 CURVE"
);
}
);
};
hints = (
{
place = "{94, 130}";
},
{
place = "{125, 99}";
},
{
place = "{125, 124}";
},
{
horizontal = 1;
place = "{-228, 65}";
},
{
horizontal = 1;
place = "{756, 65}";
}
);
layerId = UUID0;
paths = (
{
closed = 1;
nodes = (
"41 269 LINE",
"91 268 OFFCURVE",
"125 263 OFFCURVE",
"125 185 CURVE SMOOTH",
"125 104 OFFCURVE",
"94 -44 OFFCURVE",
"94 -108 CURVE SMOOTH",
"94 -181 OFFCURVE",
"138 -228 OFFCURVE",
"224 -228 CURVE SMOOTH",
"249 -228 OFFCURVE",
"285 -226 OFFCURVE",
"314 -216 CURVE",
"304 -157 LINE",
"283 -162 OFFCURVE",
"272 -163 OFFCURVE",
"266 -163 CURVE SMOOTH",
"239 -163 OFFCURVE",
"224 -154 OFFCURVE",
"224 -107 CURVE SMOOTH",
"224 -40 OFFCURVE",
"249 90 OFFCURVE",
"249 181 CURVE SMOOTH",
"249 249 OFFCURVE",
"208 287 OFFCURVE",
"164 307 CURVE",
"209 323 OFFCURVE",
"260 359 OFFCURVE",
"260 438 CURVE SMOOTH",
"260 500 OFFCURVE",
"253 647 OFFCURVE",
"255 706 CURVE SMOOTH",
"256 733 OFFCURVE",
"263 756 OFFCURVE",
"296 756 CURVE SMOOTH",
"307 756 OFFCURVE",
"318 754 OFFCURVE",
"334 750 CURVE",
"348 810 LINE",
"331 817 OFFCURVE",
"290 821 OFFCURVE",
"265 821 CURVE SMOOTH",
"178 821 OFFCURVE",
"126 774 OFFCURVE",
"123 697 CURVE SMOOTH",
"121 630 OFFCURVE",
"134 511 OFFCURVE",
"134 435 CURVE SMOOTH",
"134 358 OFFCURVE",
"95 341 OFFCURVE",
"43 341 CURVE"
);
}
);
width = 372;
}
);
unicode = 007B;
},
{
glyphname = braceright;
lastChange = "2016-06-05 15:23:08 +0000";
layers = (
{
background = {
paths = (
{
closed = 1;
nodes = (
"346 339 LINE",
"296 340 OFFCURVE",
"262 345 OFFCURVE",
"262 423 CURVE SMOOTH",
"262 504 OFFCURVE",
"289 637 OFFCURVE",
"289 701 CURVE SMOOTH",
"289 774 OFFCURVE",
"245 821 OFFCURVE",
"159 821 CURVE SMOOTH",
"134 821 OFFCURVE",
"98 819 OFFCURVE",
"69 809 CURVE",
"79 750 LINE",
"100 755 OFFCURVE",
"111 756 OFFCURVE",
"117 756 CURVE SMOOTH",
"144 756 OFFCURVE",
"159 747 OFFCURVE",
"159 700 CURVE SMOOTH",
"159 633 OFFCURVE",
"138 518 OFFCURVE",
"138 427 CURVE SMOOTH",
"138 359 OFFCURVE",
"179 321 OFFCURVE",
"223 301 CURVE",
"178 285 OFFCURVE",
"127 249 OFFCURVE",
"127 170 CURVE SMOOTH",
"127 108 OFFCURVE",
"133 -54 OFFCURVE",
"131 -113 CURVE SMOOTH",
"130 -140 OFFCURVE",
"123 -163 OFFCURVE",
"90 -163 CURVE SMOOTH",
"79 -163 OFFCURVE",
"68 -161 OFFCURVE",
"52 -157 CURVE",
"38 -217 LINE",
"55 -224 OFFCURVE",
"96 -228 OFFCURVE",
"121 -228 CURVE SMOOTH",
"208 -228 OFFCURVE",
"260 -181 OFFCURVE",
"263 -104 CURVE SMOOTH",
"265 -37 OFFCURVE",
"253 97 OFFCURVE",
"253 173 CURVE SMOOTH",
"253 250 OFFCURVE",
"292 267 OFFCURVE",
"344 267 CURVE"
);
}
);
};
hints = (
{
place = "{138, 124}";
},
{
place = "{159, 103}";
},
{
place = "{159, 130}";
},
{
horizontal = 1;
place = "{-228, 65}";
},
{
horizontal = 1;
place = "{756, 65}";
}
);
layerId = UUID0;
paths = (
{
closed = 1;
nodes = (
"346 339 LINE",
"296 340 OFFCURVE",
"262 345 OFFCURVE",
"262 423 CURVE SMOOTH",
"262 504 OFFCURVE",
"289 637 OFFCURVE",
"289 701 CURVE SMOOTH",
"289 774 OFFCURVE",
"245 821 OFFCURVE",
"159 821 CURVE SMOOTH",
"134 821 OFFCURVE",
"98 819 OFFCURVE",
"69 809 CURVE",
"79 750 LINE",
"100 755 OFFCURVE",
"111 756 OFFCURVE",
"117 756 CURVE SMOOTH",
"144 756 OFFCURVE",
"159 747 OFFCURVE",
"159 700 CURVE SMOOTH",
"159 633 OFFCURVE",
"138 518 OFFCURVE",
"138 427 CURVE SMOOTH",
"138 359 OFFCURVE",
"179 321 OFFCURVE",
"223 301 CURVE",
"178 285 OFFCURVE",
"127 249 OFFCURVE",
"127 170 CURVE SMOOTH",
"127 108 OFFCURVE",
"133 -54 OFFCURVE",
"131 -113 CURVE SMOOTH",
"130 -140 OFFCURVE",
"123 -163 OFFCURVE",
"90 -163 CURVE SMOOTH",
"79 -163 OFFCURVE",
"68 -161 OFFCURVE",
"52 -157 CURVE",
"38 -217 LINE",
"55 -224 OFFCURVE",
"96 -228 OFFCURVE",
"121 -228 CURVE SMOOTH",
"208 -228 OFFCURVE",
"260 -181 OFFCURVE",
"263 -104 CURVE SMOOTH",
"265 -37 OFFCURVE",
"253 97 OFFCURVE",
"253 173 CURVE SMOOTH",
"253 250 OFFCURVE",
"292 267 OFFCURVE",
"344 267 CURVE"
);
}
);
width = 372;
}
);
unicode = 007D;
},
{
glyphname = asciicircum;
lastChange = "2016-06-05 15:23:08 +0000";
layers = (
{
background = {
paths = (
{
closed = 1;
nodes = (
"356 712 LINE",
"288 712 LINE",
"47 372 LINE",
"124 324 LINE",
"316 595 LINE",
"486 324 LINE",
"567 372 LINE"
);
}
);
};
hints = (
{
horizontal = 1;
place = "{712, -20}";
target = down;
type = TopGhost;
},
{
horizontal = 1;
place = "{324, 21}";
target = up;
type = BottomGhost;
}
);
layerId = UUID0;
paths = (
{
closed = 1;
nodes = (
"356 712 LINE",
"288 712 LINE",
"47 372 LINE",
"124 324 LINE",
"316 595 LINE",
"486 324 LINE",
"567 372 LINE"
);
}
);
width = 582;
}
);
unicode = 005E;
},
{
glyphname = underscore;
lastChange = "2016-06-05 15:23:08 +0000";
layers = (
{
background = {
paths = (
{
closed = 1;
nodes = (
"479 -111 LINE",
"482 -33 LINE",
"12 -33 LINE",
"9 -111 LINE"
);
}
);
};
hints = (
{
horizontal = 1;
place = "{-111, 78}";
}
);
layerId = UUID0;
paths = (
{
closed = 1;
nodes = (
"479 -111 LINE",
"482 -33 LINE",
"12 -33 LINE",
"9 -111 LINE"
);
}
);
width = 500;
}
);
unicode = 005F;
},
{
glyphname = grave;
lastChange = "2016-06-05 15:23:08 +0000";
layers = (
{
anchors = (
{
name = _top;
position = "{274, 550}";
}
);
background = {
paths = (
{
closed = 1;
nodes = (
"228 791 LINE",
"173 787 OFFCURVE",
"150 760 OFFCURVE",
"150 729 CURVE SMOOTH",
"150 706 OFFCURVE",
"161 688 OFFCURVE",
"181 675 CURVE SMOOTH",
"334 580 LINE",
"363 612 LINE"
);
}
);
};
hints = (
{
horizontal = 1;
place = "{791, -20}";
target = down;
type = TopGhost;
},
{
horizontal = 1;
place = "{580, 21}";
target = up;
type = BottomGhost;
}
);
layerId = UUID0;
paths = (
{
closed = 1;
nodes = (
"228 791 LINE",
"173 787 OFFCURVE",
"150 760 OFFCURVE",
"150 729 CURVE SMOOTH",
"150 706 OFFCURVE",
"161 688 OFFCURVE",
"181 675 CURVE SMOOTH",
"334 580 LINE",
"363 612 LINE"
);
}
);
width = 500;
}
);
unicode = 0060;
},
{
glyphname = bar;
lastChange = "2016-06-05 15:23:08 +0000";
layers = (
{
background = {
paths = (
{
closed = 1;
nodes = (
"290 802 LINE",
"199 802 LINE",
"167 -110 LINE",
"259 -110 LINE"
);
}
);
};
hints = (
{
place = "{183, 91}";
},
{
horizontal = 1;
place = "{802, -20}";
target = down;
type = TopGhost;
},
{
horizontal = 1;
place = "{-110, 21}";
target = up;
type = BottomGhost;
}
);
layerId = UUID0;
paths = (
{
closed = 1;
nodes = (
"290 802 LINE",
"199 802 LINE",
"167 -110 LINE",
"259 -110 LINE"
);
}
);
width = 424;
}
);
unicode = 007C;
},
{
glyphname = backslash;
lastChange = "2016-06-05 15:23:08 +0000";
layers = (
{
background = {
paths = (
{
closed = 1;
nodes = (
"121 802 LINE",
"38 802 LINE",
"330 -110 LINE",
"414 -110 LINE"
);
}
);
};
hints = (
{
horizontal = 1;
place = "{802, -20}";
target = down;
type = TopGhost;
},
{
horizontal = 1;
place = "{-110, 21}";
target = up;
type = BottomGhost;
}
);
layerId = UUID0;
paths = (
{
closed = 1;
nodes = (
"121 802 LINE",
"38 802 LINE",
"330 -110 LINE",
"414 -110 LINE"
);
}
);
width = 428;
}
);
unicode = 005C;
},
{
glyphname = asciitilde;
lastChange = "2016-06-05 15:23:08 +0000";
layers = (
{
background = {
paths = (
{
closed = 1;
nodes = (
"475 242 OFFCURVE",
"515 269 OFFCURVE",
"542 369 CURVE",
"479 395 LINE",
"459 359 OFFCURVE",
"443 344 OFFCURVE",
"420 344 CURVE SMOOTH",
"367 344 OFFCURVE",
"252 383 OFFCURVE",
"188 383 CURVE SMOOTH",
"133 383 OFFCURVE",
"97 349 OFFCURVE",
"72 256 CURVE",
"135 230 LINE",
"158 268 OFFCURVE",
"172 280 OFFCURVE",
"195 280 CURVE SMOOTH",
"250 280 OFFCURVE",
"358 242 OFFCURVE",
"425 242 CURVE SMOOTH"
);
}
);
};
hints = (
{
horizontal = 1;
place = "{242, 102}";
},
{
horizontal = 1;
place = "{280, 64}";
},
{
horizontal = 1;
place = "{280, 103}";
},
{
horizontal = 1;
place = "{395, -20}";
target = down;
type = TopGhost;
},
{
horizontal = 1;
place = "{230, 21}";
target = up;
type = BottomGhost;
}
);
layerId = UUID0;
paths = (
{
closed = 1;
nodes = (
"475 242 OFFCURVE",
"515 269 OFFCURVE",
"542 369 CURVE",
"479 395 LINE",
"459 359 OFFCURVE",
"443 344 OFFCURVE",
"420 344 CURVE SMOOTH",
"367 344 OFFCURVE",
"252 383 OFFCURVE",
"188 383 CURVE SMOOTH",
"133 383 OFFCURVE",
"97 349 OFFCURVE",
"72 256 CURVE",
"135 230 LINE",
"158 268 OFFCURVE",
"172 280 OFFCURVE",
"195 280 CURVE SMOOTH",
"250 280 OFFCURVE",
"358 242 OFFCURVE",
"425 242 CURVE SMOOTH"
);
}
);
width = 582;
}
);
unicode = 007E;
},
{
glyphname = exclamdown;
lastChange = "2016-06-05 15:23:08 +0000";
layers = (
{
background = {
paths = (
{
closed = 1;
nodes = (
"234 313 LINE",
"162 313 LINE",
"145 21 OFFCURVE",
"108 -83 OFFCURVE",
"79 -169 CURVE",
"101 -194 OFFCURVE",
"138 -208 OFFCURVE",
"168 -208 CURVE SMOOTH",
"214 -208 OFFCURVE",
"240 -181 OFFCURVE",
"242 -137 CURVE SMOOTH",
"243 -107 OFFCURVE",
"244 -76 OFFCURVE",
"243 -26 CURVE SMOOTH"
);
},
{
closed = 1;
nodes = (
"288 496 OFFCURVE",
"254 522 OFFCURVE",
"202 522 CURVE SMOOTH",
"150 522 OFFCURVE",
"110 495 OFFCURVE",
"110 445 CURVE SMOOTH",
"110 397 OFFCURVE",
"144 365 OFFCURVE",
"196 365 CURVE SMOOTH",
"248 365 OFFCURVE",
"288 397 OFFCURVE",
"288 446 CURVE SMOOTH"
);
}
);
};
components = (
{
name = exclam;
transform = "{-1, 0, 0, -1, 363, 507}";
}
);
hints = (
{
place = "{252, -135}";
},
{
place = "{216, -59}";
},
{
place = "{216, -99}";
},
{
horizontal = 1;
place = "{521, -140}";
},
{
horizontal = 1;
place = "{-253, 20}";
}
);
layerId = UUID0;
width = 344;
}
);
unicode = 00A1;
},
{
glyphname = cent;
lastChange = "2016-06-05 15:23:08 +0000";
layers = (
{
background = {
paths = (
{
closed = 1;
nodes = (
"177 -29 LINE",
"228 -29 LINE",
"238 34 LINE",
"243 34 LINE SMOOTH",
"348 34 OFFCURVE",
"406 116 OFFCURVE",
"428 144 CURVE",
"385 182 LINE",
"356 150 OFFCURVE",
"318 113 OFFCURVE",
"267 113 CURVE SMOOTH",
"261 113 OFFCURVE",
"257 113 OFFCURVE",
"252 114 CURVE",
"309 449 LINE",
"345 446 OFFCURVE",
"365 430 OFFCURVE",
"338 389 CURVE SMOOTH",
"320 362 LINE",
"330 338 OFFCURVE",
"360 320 OFFCURVE",
"389 320 CURVE SMOOTH",
"430 320 OFFCURVE",
"456 349 OFFCURVE",
"456 388 CURVE SMOOTH",
"456 459 OFFCURVE",
"389 499 OFFCURVE",
"318 507 CURVE",
"329 568 LINE",
"278 568 LINE",
"267 506 LINE",
"128 494 OFFCURVE",
"50 385 OFFCURVE",
"50 244 CURVE SMOOTH",
"50 135 OFFCURVE",
"102 61 OFFCURVE",
"188 40 CURVE"
);
},
{
closed = 1;
nodes = (
"174 334 OFFCURVE",
"199 415 OFFCURVE",
"256 440 CURVE",
"205 137 LINE",
"183 160 OFFCURVE",
"174 198 OFFCURVE",
"174 246 CURVE SMOOTH"
);
}
);
};
hints = (
{
place = "{50, 124}";
},
{
horizontal = 1;
place = "{34, 79}";
},
{
horizontal = 1;
place = "{320, 188}";
},
{
horizontal = 1;
place = "{449, 59}";
},
{
horizontal = 1;
place = "{-29, 21}";
target = up;
type = BottomGhost;
},
{
horizontal = 1;
place = "{568, -20}";
target = down;
type = TopGhost;
}
);
layerId = UUID0;
paths = (
{
closed = 1;
nodes = (
"177 -29 LINE",
"228 -29 LINE",
"238 34 LINE",
"243 34 LINE SMOOTH",
"348 34 OFFCURVE",
"406 116 OFFCURVE",
"428 144 CURVE",
"385 182 LINE",
"356 150 OFFCURVE",
"318 113 OFFCURVE",
"267 113 CURVE SMOOTH",
"261 113 OFFCURVE",
"257 113 OFFCURVE",
"252 114 CURVE",
"309 449 LINE",
"345 446 OFFCURVE",
"365 430 OFFCURVE",
"338 389 CURVE SMOOTH",
"320 362 LINE",
"330 338 OFFCURVE",
"360 320 OFFCURVE",
"389 320 CURVE SMOOTH",
"430 320 OFFCURVE",
"456 349 OFFCURVE",
"456 388 CURVE SMOOTH",
"456 459 OFFCURVE",
"389 499 OFFCURVE",
"318 507 CURVE",
"329 568 LINE",
"278 568 LINE",
"267 506 LINE",
"128 494 OFFCURVE",
"50 385 OFFCURVE",
"50 244 CURVE SMOOTH",
"50 135 OFFCURVE",
"102 61 OFFCURVE",
"188 40 CURVE"
);
},
{
closed = 1;
nodes = (
"174 334 OFFCURVE",
"199 415 OFFCURVE",
"256 440 CURVE",
"205 137 LINE",
"183 160 OFFCURVE",
"174 198 OFFCURVE",
"174 246 CURVE SMOOTH"
);
}
);
width = 500;
}
);
unicode = 00A2;
},
{
glyphname = sterling;
lastChange = "2016-06-05 15:23:08 +0000";
layers = (
{
background = {
paths = (
{
closed = 1;
nodes = (
"97 -14 LINE",
"140 17 OFFCURVE",
"191 35 OFFCURVE",
"238 35 CURVE SMOOTH",
"312 35 OFFCURVE",
"367 -14 OFFCURVE",
"468 -14 CURVE SMOOTH",
"551 -14 OFFCURVE",
"592 40 OFFCURVE",
"592 93 CURVE SMOOTH",
"592 163 OFFCURVE",
"545 203 OFFCURVE",
"443 229 CURVE",
"422 177 LINE",
"454 164 OFFCURVE",
"489 149 OFFCURVE",
"489 113 CURVE SMOOTH",
"489 88 OFFCURVE",
"471 67 OFFCURVE",
"438 67 CURVE SMOOTH",
"394 67 OFFCURVE",
"362 86 OFFCURVE",
"309 99 CURVE",
"259 213 OFFCURVE",
"233 277 OFFCURVE",
"222 335 CURVE",
"424 335 LINE",
"428 398 LINE",
"213 398 LINE",
"211 423 OFFCURVE",
"210 439 OFFCURVE",
"210 468 CURVE SMOOTH",
"210 593 OFFCURVE",
"249 651 OFFCURVE",
"340 651 CURVE SMOOTH",
"412 651 OFFCURVE",
"430 618 OFFCURVE",
"410 578 CURVE SMOOTH",
"389 537 LINE",
"401 524 OFFCURVE",
"435 506 OFFCURVE",
"467 506 CURVE SMOOTH",
"507 506 OFFCURVE",
"537 534 OFFCURVE",
"537 579 CURVE SMOOTH",
"537 663 OFFCURVE",
"458 715 OFFCURVE",
"339 715 CURVE SMOOTH",
"174 715 OFFCURVE",
"75 618 OFFCURVE",
"75 461 CURVE SMOOTH",
"75 434 OFFCURVE",
"77 421 OFFCURVE",
"82 398 CURVE",
"19 398 LINE",
"12 335 LINE",
"96 335 LINE",
"108 297 OFFCURVE",
"122 265 OFFCURVE",
"138 232 CURVE SMOOTH",
"162 183 OFFCURVE",
"187 144 OFFCURVE",
"211 102 CURVE",
"167 99 OFFCURVE",
"119 81 OFFCURVE",
"65 37 CURVE"
);
}
);
};
hints = (
{
place = "{75, 135}";
},
{
place = "{489, 103}";
},
{
horizontal = 1;
place = "{-14, 81}";
},
{
horizontal = 1;
place = "{35, 32}";
},
{
horizontal = 1;
place = "{335, 63}";
},
{
horizontal = 1;
place = "{651, 64}";
}
);
layerId = UUID0;
paths = (
{
closed = 1;
nodes = (
"97 -14 LINE",
"140 17 OFFCURVE",
"191 35 OFFCURVE",
"238 35 CURVE SMOOTH",
"312 35 OFFCURVE",
"367 -14 OFFCURVE",
"468 -14 CURVE SMOOTH",
"551 -14 OFFCURVE",
"592 40 OFFCURVE",
"592 93 CURVE SMOOTH",
"592 163 OFFCURVE",
"545 203 OFFCURVE",
"443 229 CURVE",
"422 177 LINE",
"454 164 OFFCURVE",
"489 149 OFFCURVE",
"489 113 CURVE SMOOTH",
"489 88 OFFCURVE",
"471 67 OFFCURVE",
"438 67 CURVE SMOOTH",
"394 67 OFFCURVE",
"362 86 OFFCURVE",
"309 99 CURVE",
"259 213 OFFCURVE",
"233 277 OFFCURVE",
"222 335 CURVE",
"424 335 LINE",
"428 398 LINE",
"213 398 LINE",
"211 423 OFFCURVE",
"210 439 OFFCURVE",
"210 468 CURVE SMOOTH",
"210 593 OFFCURVE",
"249 651 OFFCURVE",
"340 651 CURVE SMOOTH",
"412 651 OFFCURVE",
"430 618 OFFCURVE",
"410 578 CURVE SMOOTH",
"389 537 LINE",
"401 524 OFFCURVE",
"435 506 OFFCURVE",
"467 506 CURVE SMOOTH",
"507 506 OFFCURVE",
"537 534 OFFCURVE",
"537 579 CURVE SMOOTH",
"537 663 OFFCURVE",
"458 715 OFFCURVE",
"339 715 CURVE SMOOTH",
"174 715 OFFCURVE",
"75 618 OFFCURVE",
"75 461 CURVE SMOOTH",
"75 434 OFFCURVE",
"77 421 OFFCURVE",
"82 398 CURVE",
"19 398 LINE",
"12 335 LINE",
"96 335 LINE",
"108 297 OFFCURVE",
"122 265 OFFCURVE",
"138 232 CURVE SMOOTH",
"162 183 OFFCURVE",
"187 144 OFFCURVE",
"211 102 CURVE",
"167 99 OFFCURVE",
"119 81 OFFCURVE",
"65 37 CURVE"
);
}
);
width = 608;
}
);
unicode = 00A3;
},
{
glyphname = currency;
lastChange = "2016-06-05 15:23:08 +0000";
layers = (
{
background = {
paths = (
{
closed = 1;
nodes = (
"70 275 OFFCURVE",
"76 241 OFFCURVE",
"94 211 CURVE",
"28 131 LINE",
"75 82 LINE",
"100 100 OFFCURVE",
"137 129 OFFCURVE",
"164 150 CURVE",
"189 139 OFFCURVE",
"220 133 OFFCURVE",
"258 133 CURVE SMOOTH",
"292 133 OFFCURVE",
"324 138 OFFCURVE",
"353 151 CURVE",
"440 81 LINE",
"491 130 LINE",
"429 212 LINE",
"450 242 OFFCURVE",
"463 279 OFFCURVE",
"463 322 CURVE SMOOTH",
"463 362 OFFCURVE",
"456 392 OFFCURVE",
"440 420 CURVE",
"505 500 LINE",
"458 548 LINE",
"370 482 LINE",
"344 494 OFFCURVE",
"311 500 OFFCURVE",
"277 500 CURVE SMOOTH",
"241 500 OFFCURVE",
"203 492 OFFCURVE",
"173 478 CURVE",
"91 546 LINE",
"40 497 LINE",
"58 471 OFFCURVE",
"82 441 OFFCURVE",
"101 415 CURVE",
"81 384 OFFCURVE",
"70 352 OFFCURVE",
"70 313 CURVE SMOOTH"
);
},
{
closed = 1;
nodes = (
"191 394 OFFCURVE",
"225 430 OFFCURVE",
"273 430 CURVE SMOOTH",
"319 430 OFFCURVE",
"343 396 OFFCURVE",
"343 318 CURVE SMOOTH",
"343 244 OFFCURVE",
"315 200 OFFCURVE",
"261 200 CURVE SMOOTH",
"214 200 OFFCURVE",
"191 243 OFFCURVE",
"191 316 CURVE SMOOTH"
);
}
);
};
hints = (
{
place = "{70, 121}";
},
{
place = "{343, 120}";
},
{
horizontal = 1;
place = "{133, 67}";
},
{
horizontal = 1;
place = "{430, 70}";
},
{
horizontal = 1;
place = "{81, 21}";
target = up;
type = BottomGhost;
},
{
horizontal = 1;
place = "{548, -20}";
target = down;
type = TopGhost;
}
);
layerId = UUID0;
paths = (
{
closed = 1;
nodes = (
"70 275 OFFCURVE",
"76 241 OFFCURVE",
"94 211 CURVE",
"28 131 LINE",
"75 82 LINE",
"100 100 OFFCURVE",
"137 129 OFFCURVE",
"164 150 CURVE",
"189 139 OFFCURVE",
"220 133 OFFCURVE",
"258 133 CURVE SMOOTH",
"292 133 OFFCURVE",
"324 138 OFFCURVE",
"353 151 CURVE",
"440 81 LINE",
"491 130 LINE",
"429 212 LINE",
"450 242 OFFCURVE",
"463 279 OFFCURVE",
"463 322 CURVE SMOOTH",
"463 362 OFFCURVE",
"456 392 OFFCURVE",
"440 420 CURVE",
"505 500 LINE",
"458 548 LINE",
"370 482 LINE",
"344 494 OFFCURVE",
"311 500 OFFCURVE",
"277 500 CURVE SMOOTH",
"241 500 OFFCURVE",
"203 492 OFFCURVE",
"173 478 CURVE",
"91 546 LINE",
"40 497 LINE",
"58 471 OFFCURVE",
"82 441 OFFCURVE",
"101 415 CURVE",
"81 384 OFFCURVE",
"70 352 OFFCURVE",
"70 313 CURVE SMOOTH"
);
},
{
closed = 1;
nodes = (
"191 394 OFFCURVE",
"225 430 OFFCURVE",
"273 430 CURVE SMOOTH",
"319 430 OFFCURVE",
"343 396 OFFCURVE",
"343 318 CURVE SMOOTH",
"343 244 OFFCURVE",
"315 200 OFFCURVE",
"261 200 CURVE SMOOTH",
"214 200 OFFCURVE",
"191 243 OFFCURVE",
"191 316 CURVE SMOOTH"
);
}
);
width = 539;
}
);
unicode = 00A4;
},
{
glyphname = yen;
lastChange = "2016-06-05 15:23:08 +0000";
layers = (
{
background = {
paths = (
{
closed = 1;
nodes = (
"68 273 LINE",
"209 273 LINE",
"231 242 LINE",
"229 212 LINE",
"72 212 LINE",
"64 149 LINE",
"227 149 LINE",
"220 65 LINE",
"128 54 LINE",
"122 0 LINE",
"434 0 LINE",
"441 54 LINE",
"344 66 LINE",
"349 149 LINE",
"507 149 LINE",
"509 212 LINE",
"350 212 LINE",
"352 245 LINE",
"373 273 LINE",
"511 273 LINE",
"513 336 LINE",
"412 336 LINE",
"531 492 LINE",
"594 502 LINE",
"601 554 LINE",
"389 554 LINE",
"382 505 LINE",
"456 493 LINE",
"321 301 LINE",
"209 493 LINE",
"283 501 LINE",
"290 554 LINE",
"13 554 LINE",
"6 501 LINE",
"75 488 LINE",
"171 336 LINE",
"76 336 LINE"
);
}
);
};
hints = (
{
horizontal = 1;
place = "{149, 63}";
},
{
horizontal = 1;
place = "{273, 63}";
},
{
horizontal = 1;
place = "{0, 21}";
target = up;
type = BottomGhost;
},
{
horizontal = 1;
place = "{554, -20}";
target = down;
type = TopGhost;
}
);
layerId = UUID0;
paths = (
{
closed = 1;
nodes = (
"68 273 LINE",
"209 273 LINE",
"231 242 LINE",
"229 212 LINE",
"72 212 LINE",
"64 149 LINE",
"227 149 LINE",
"220 65 LINE",
"128 54 LINE",
"122 0 LINE",
"434 0 LINE",
"441 54 LINE",
"344 66 LINE",
"349 149 LINE",
"507 149 LINE",
"509 212 LINE",
"350 212 LINE",
"352 245 LINE",
"373 273 LINE",
"511 273 LINE",
"513 336 LINE",
"412 336 LINE",
"531 492 LINE",
"594 502 LINE",
"601 554 LINE",
"389 554 LINE",
"382 505 LINE",
"456 493 LINE",
"321 301 LINE",
"209 493 LINE",
"283 501 LINE",
"290 554 LINE",
"13 554 LINE",
"6 501 LINE",
"75 488 LINE",
"171 336 LINE",
"76 336 LINE"
);
}
);
width = 595;
}
);
unicode = 00A5;
},
{
glyphname = brokenbar;
lastChange = "2016-06-05 15:23:08 +0000";
layers = (
{
background = {
paths = (
{
closed = 1;
nodes = (
"272 289 LINE",
"181 289 LINE",
"167 -110 LINE",
"259 -110 LINE"
);
},
{
closed = 1;
nodes = (
"290 803 LINE",
"199 803 LINE",
"186 432 LINE",
"278 432 LINE"
);
}
);
};
hints = (
{
place = "{174, 91}";
},
{
place = "{192, 92}";
},
{
horizontal = 1;
place = "{-110, 21}";
target = up;
type = BottomGhost;
},
{
horizontal = 1;
place = "{803, -20}";
target = down;
type = TopGhost;
}
);
layerId = UUID0;
paths = (
{
closed = 1;
nodes = (
"272 289 LINE",
"181 289 LINE",
"167 -110 LINE",
"259 -110 LINE"
);
},
{
closed = 1;
nodes = (
"290 803 LINE",
"199 803 LINE",
"186 432 LINE",
"278 432 LINE"
);
}
);
width = 424;
}
);
unicode = 00A6;
},
{
glyphname = section;
lastChange = "2016-06-05 15:23:08 +0000";
layers = (
{
background = {
paths = (
{
closed = 1;
nodes = (
"564 421 OFFCURVE",
"253 448 OFFCURVE",
"253 568 CURVE SMOOTH",
"253 612 OFFCURVE",
"281 653 OFFCURVE",
"345 653 CURVE SMOOTH",
"396 653 OFFCURVE",
"425 626 OFFCURVE",
"407 588 CURVE SMOOTH",
"390 554 LINE",
"406 538 OFFCURVE",
"431 524 OFFCURVE",
"462 524 CURVE SMOOTH",
"496 524 OFFCURVE",
"527 548 OFFCURVE",
"527 591 CURVE SMOOTH",
"527 660 OFFCURVE",
"454 715 OFFCURVE",
"349 715 CURVE SMOOTH",
"213 715 OFFCURVE",
"142 629 OFFCURVE",
"142 527 CURVE SMOOTH",
"142 315 OFFCURVE",
"476 341 OFFCURVE",
"479 173 CURVE",
"534 164 LINE",
"543 179 OFFCURVE",
"564 217 OFFCURVE",
"564 260 CURVE SMOOTH"
);
},
{
closed = 1;
nodes = (
"84 139 OFFCURVE",
"395 112 OFFCURVE",
"395 -8 CURVE SMOOTH",
"395 -52 OFFCURVE",
"367 -93 OFFCURVE",
"303 -93 CURVE SMOOTH",
"252 -93 OFFCURVE",
"223 -66 OFFCURVE",
"241 -28 CURVE SMOOTH",
"258 6 LINE",
"242 22 OFFCURVE",
"217 36 OFFCURVE",
"186 36 CURVE SMOOTH",
"152 36 OFFCURVE",
"121 12 OFFCURVE",
"121 -31 CURVE SMOOTH",
"121 -100 OFFCURVE",
"194 -155 OFFCURVE",
"299 -155 CURVE SMOOTH",
"435 -155 OFFCURVE",
"506 -69 OFFCURVE",
"506 33 CURVE SMOOTH",
"506 245 OFFCURVE",
"172 219 OFFCURVE",
"169 387 CURVE",
"114 396 LINE",
"105 381 OFFCURVE",
"84 343 OFFCURVE",
"84 300 CURVE"
);
}
);
};
hints = (
{
place = "{84, 85}";
},
{
place = "{121, 48}";
},
{
place = "{142, 27}";
},
{
place = "{395, 111}";
},
{
place = "{479, 27}";
},
{
place = "{479, 85}";
},
{
place = "{479, 48}";
},
{
place = "{142, 111}";
},
{
horizontal = 1;
place = "{-155, 62}";
},
{
horizontal = 1;
place = "{524, 191}";
},
{
horizontal = 1;
place = "{653, 62}";
},
{
horizontal = 1;
place = "{-155, 191}";
}
);
layerId = UUID0;
paths = (
{
closed = 1;
nodes = (
"564 421 OFFCURVE",
"253 448 OFFCURVE",
"253 568 CURVE SMOOTH",
"253 612 OFFCURVE",
"281 653 OFFCURVE",
"345 653 CURVE SMOOTH",
"396 653 OFFCURVE",
"425 626 OFFCURVE",
"407 588 CURVE SMOOTH",
"390 554 LINE",
"406 538 OFFCURVE",
"431 524 OFFCURVE",
"462 524 CURVE SMOOTH",
"496 524 OFFCURVE",
"527 548 OFFCURVE",
"527 591 CURVE SMOOTH",
"527 660 OFFCURVE",
"454 715 OFFCURVE",
"349 715 CURVE SMOOTH",
"213 715 OFFCURVE",
"142 629 OFFCURVE",
"142 527 CURVE SMOOTH",
"142 315 OFFCURVE",
"476 341 OFFCURVE",
"479 173 CURVE",
"534 164 LINE",
"543 179 OFFCURVE",
"564 217 OFFCURVE",
"564 260 CURVE SMOOTH"
);
},
{
closed = 1;
nodes = (
"84 139 OFFCURVE",
"395 112 OFFCURVE",
"395 -8 CURVE SMOOTH",
"395 -52 OFFCURVE",
"367 -93 OFFCURVE",
"303 -93 CURVE SMOOTH",
"252 -93 OFFCURVE",
"223 -66 OFFCURVE",
"241 -28 CURVE SMOOTH",
"258 6 LINE",
"242 22 OFFCURVE",
"217 36 OFFCURVE",
"186 36 CURVE SMOOTH",
"152 36 OFFCURVE",
"121 12 OFFCURVE",
"121 -31 CURVE SMOOTH",
"121 -100 OFFCURVE",
"194 -155 OFFCURVE",
"299 -155 CURVE SMOOTH",
"435 -155 OFFCURVE",
"506 -69 OFFCURVE",
"506 33 CURVE SMOOTH",
"506 245 OFFCURVE",
"172 219 OFFCURVE",
"169 387 CURVE",
"114 396 LINE",
"105 381 OFFCURVE",
"84 343 OFFCURVE",
"84 300 CURVE"
);
}
);
width = 634;
}
);
unicode = 00A7;
},
{
glyphname = dieresis;
lastChange = "2016-06-05 15:23:08 +0000";
layers = (
{
anchors = (
{
name = _top;
position = "{274, 550}";
}
);
background = {
paths = (
{
closed = 1;
nodes = (
"101 647 OFFCURVE",
"129 620 OFFCURVE",
"174 620 CURVE SMOOTH",
"220 620 OFFCURVE",
"253 651 OFFCURVE",
"253 693 CURVE SMOOTH",
"253 734 OFFCURVE",
"226 761 OFFCURVE",
"179 761 CURVE SMOOTH",
"135 761 OFFCURVE",
"101 729 OFFCURVE",
"101 688 CURVE SMOOTH"
);
},
{
closed = 1;
nodes = (
"307 647 OFFCURVE",
"335 620 OFFCURVE",
"381 620 CURVE SMOOTH",
"426 620 OFFCURVE",
"459 651 OFFCURVE",
"459 693 CURVE SMOOTH",
"459 734 OFFCURVE",
"432 761 OFFCURVE",
"386 761 CURVE SMOOTH",
"341 761 OFFCURVE",
"307 729 OFFCURVE",
"307 688 CURVE SMOOTH"
);
}
);
};
hints = (
{
place = "{101, 152}";
},
{
place = "{307, 152}";
},
{
horizontal = 1;
place = "{620, 141}";
}
);
layerId = UUID0;
paths = (
{
closed = 1;
nodes = (
"101 647 OFFCURVE",
"129 620 OFFCURVE",
"174 620 CURVE SMOOTH",
"220 620 OFFCURVE",
"253 651 OFFCURVE",
"253 693 CURVE SMOOTH",
"253 734 OFFCURVE",
"226 761 OFFCURVE",
"179 761 CURVE SMOOTH",
"135 761 OFFCURVE",
"101 729 OFFCURVE",
"101 688 CURVE SMOOTH"
);
},
{
closed = 1;
nodes = (
"307 647 OFFCURVE",
"335 620 OFFCURVE",
"381 620 CURVE SMOOTH",
"426 620 OFFCURVE",
"459 651 OFFCURVE",
"459 693 CURVE SMOOTH",
"459 734 OFFCURVE",
"432 761 OFFCURVE",
"386 761 CURVE SMOOTH",
"341 761 OFFCURVE",
"307 729 OFFCURVE",
"307 688 CURVE SMOOTH"
);
}
);
width = 500;
}
);
unicode = 00A8;
},
{
glyphname = copyright;
lastChange = "2016-06-05 15:23:08 +0000";
layers = (
{
background = {
paths = (
{
closed = 1;
nodes = (
"466 403 LINE",
"476 394 OFFCURVE",
"496 382 OFFCURVE",
"515 382 CURVE SMOOTH",
"542 382 OFFCURVE",
"555 404 OFFCURVE",
"555 425 CURVE SMOOTH",
"555 480 OFFCURVE",
"499 531 OFFCURVE",
"414 531 CURVE SMOOTH",
"308 531 OFFCURVE",
"218 457 OFFCURVE",
"218 313 CURVE SMOOTH",
"218 226 OFFCURVE",
"258 116 OFFCURVE",
"396 116 CURVE SMOOTH",
"471 116 OFFCURVE",
"519 159 OFFCURVE",
"548 197 CURVE",
"517 231 LINE",
"487 203 OFFCURVE",
"456 177 OFFCURVE",
"406 177 CURVE SMOOTH",
"336 177 OFFCURVE",
"306 245 OFFCURVE",
"306 318 CURVE SMOOTH",
"306 433 OFFCURVE",
"352 480 OFFCURVE",
"418 480 CURVE SMOOTH",
"468 480 OFFCURVE",
"493 453 OFFCURVE",
"476 422 CURVE SMOOTH"
);
},
{
closed = 1;
nodes = (
"755 536 OFFCURVE",
"616 662 OFFCURVE",
"403 662 CURVE SMOOTH",
"209 662 OFFCURVE",
"47 534 OFFCURVE",
"47 319 CURVE SMOOTH",
"47 131 OFFCURVE",
"163 -12 OFFCURVE",
"401 -12 CURVE SMOOTH",
"615 -12 OFFCURVE",
"755 129 OFFCURVE",
"755 336 CURVE SMOOTH"
);
},
{
closed = 1;
nodes = (
"672 166 OFFCURVE",
"562 55 OFFCURVE",
"401 55 CURVE SMOOTH",
"217 55 OFFCURVE",
"129 170 OFFCURVE",
"129 320 CURVE SMOOTH",
"129 492 OFFCURVE",
"249 599 OFFCURVE",
"402 599 CURVE SMOOTH",
"571 599 OFFCURVE",
"672 492 OFFCURVE",
"672 331 CURVE SMOOTH"
);
}
);
};
hints = (
{
place = "{47, 82}";
},
{
place = "{218, 88}";
},
{
place = "{672, 83}";
},
{
horizontal = 1;
place = "{-12, 67}";
},
{
horizontal = 1;
place = "{116, 61}";
},
{
horizontal = 1;
place = "{382, 149}";
},
{
horizontal = 1;
place = "{480, 51}";
},
{
horizontal = 1;
place = "{599, 63}";
}
);
layerId = UUID0;
paths = (
{
closed = 1;
nodes = (
"466 403 LINE",
"476 394 OFFCURVE",
"496 382 OFFCURVE",
"515 382 CURVE SMOOTH",
"542 382 OFFCURVE",
"555 404 OFFCURVE",
"555 425 CURVE SMOOTH",
"555 480 OFFCURVE",
"499 531 OFFCURVE",
"414 531 CURVE SMOOTH",
"308 531 OFFCURVE",
"218 457 OFFCURVE",
"218 313 CURVE SMOOTH",
"218 226 OFFCURVE",
"258 116 OFFCURVE",
"396 116 CURVE SMOOTH",
"471 116 OFFCURVE",
"519 159 OFFCURVE",
"548 197 CURVE",
"517 231 LINE",
"487 203 OFFCURVE",
"456 177 OFFCURVE",
"406 177 CURVE SMOOTH",
"336 177 OFFCURVE",
"306 245 OFFCURVE",
"306 318 CURVE SMOOTH",
"306 433 OFFCURVE",
"352 480 OFFCURVE",
"418 480 CURVE SMOOTH",
"468 480 OFFCURVE",
"493 453 OFFCURVE",
"476 422 CURVE SMOOTH"
);
},
{
closed = 1;
nodes = (
"755 536 OFFCURVE",
"616 662 OFFCURVE",
"403 662 CURVE SMOOTH",
"209 662 OFFCURVE",
"47 534 OFFCURVE",
"47 319 CURVE SMOOTH",
"47 131 OFFCURVE",
"163 -12 OFFCURVE",
"401 -12 CURVE SMOOTH",
"615 -12 OFFCURVE",
"755 129 OFFCURVE",
"755 336 CURVE SMOOTH"
);
},
{
closed = 1;
nodes = (
"672 166 OFFCURVE",
"562 55 OFFCURVE",
"401 55 CURVE SMOOTH",
"217 55 OFFCURVE",
"129 170 OFFCURVE",
"129 320 CURVE SMOOTH",
"129 492 OFFCURVE",
"249 599 OFFCURVE",
"402 599 CURVE SMOOTH",
"571 599 OFFCURVE",
"672 492 OFFCURVE",
"672 331 CURVE SMOOTH"
);
}
);
width = 795;
}
);
unicode = 00A9;
},
{
glyphname = ordfeminine;
lastChange = "2016-06-05 15:23:08 +0000";
layers = (
{
background = {
paths = (
{
closed = 1;
nodes = (
"397 735 LINE",
"373 742 LINE",
"316 724 LINE",
"296 733 OFFCURVE",
"267 742 OFFCURVE",
"233 742 CURVE SMOOTH",
"126 742 OFFCURVE",
"55 649 OFFCURVE",
"55 515 CURVE SMOOTH",
"55 427 OFFCURVE",
"90 362 OFFCURVE",
"172 362 CURVE SMOOTH",
"249 362 OFFCURVE",
"272 429 OFFCURVE",
"293 501 CURVE SMOOTH",
"309 555 LINE",
"314 555 LINE",
"303 433 LINE SMOOTH",
"299 388 OFFCURVE",
"319 362 OFFCURVE",
"362 362 CURVE SMOOTH",
"392 362 OFFCURVE",
"429 377 OFFCURVE",
"455 401 CURVE",
"438 435 LINE",
"426 428 OFFCURVE",
"416 421 OFFCURVE",
"406 421 CURVE SMOOTH",
"390 421 OFFCURVE",
"388 431 OFFCURVE",
"388 452 CURVE SMOOTH"
);
},
{
closed = 1;
nodes = (
"154 426 OFFCURVE",
"151 485 OFFCURVE",
"151 514 CURVE SMOOTH",
"151 605 OFFCURVE",
"183 690 OFFCURVE",
"244 690 CURVE SMOOTH",
"265 690 OFFCURVE",
"280 685 OFFCURVE",
"298 676 CURVE",
"277 600 LINE SMOOTH",
"243 481 OFFCURVE",
"228 426 OFFCURVE",
"191 426 CURVE SMOOTH"
);
}
);
};
hints = (
{
place = "{55, 96}";
},
{
horizontal = 1;
place = "{362, 59}";
},
{
horizontal = 1;
place = "{690, 52}";
},
{
horizontal = 1;
place = "{555, -20}";
target = down;
type = TopGhost;
}
);
layerId = UUID0;
paths = (
{
closed = 1;
nodes = (
"397 735 LINE",
"373 742 LINE",
"316 724 LINE",
"296 733 OFFCURVE",
"267 742 OFFCURVE",
"233 742 CURVE SMOOTH",
"126 742 OFFCURVE",
"55 649 OFFCURVE",
"55 515 CURVE SMOOTH",
"55 427 OFFCURVE",
"90 362 OFFCURVE",
"172 362 CURVE SMOOTH",
"249 362 OFFCURVE",
"272 429 OFFCURVE",
"293 501 CURVE SMOOTH",
"309 555 LINE",
"314 555 LINE",
"303 433 LINE SMOOTH",
"299 388 OFFCURVE",
"319 362 OFFCURVE",
"362 362 CURVE SMOOTH",
"392 362 OFFCURVE",
"429 377 OFFCURVE",
"455 401 CURVE",
"438 435 LINE",
"426 428 OFFCURVE",
"416 421 OFFCURVE",
"406 421 CURVE SMOOTH",
"390 421 OFFCURVE",
"388 431 OFFCURVE",
"388 452 CURVE SMOOTH"
);
},
{
closed = 1;
nodes = (
"154 426 OFFCURVE",
"151 485 OFFCURVE",
"151 514 CURVE SMOOTH",
"151 605 OFFCURVE",
"183 690 OFFCURVE",
"244 690 CURVE SMOOTH",
"265 690 OFFCURVE",
"280 685 OFFCURVE",
"298 676 CURVE",
"277 600 LINE SMOOTH",
"243 481 OFFCURVE",
"228 426 OFFCURVE",
"191 426 CURVE SMOOTH"
);
}
);
width = 446;
}
);
unicode = 00AA;
},
{
glyphname = guillemotleft;
lastChange = "2016-06-05 15:23:08 +0000";
layers = (
{
background = {
paths = (
{
closed = 1;
nodes = (
"236 476 LINE",
"182 413 OFFCURVE",
"103 351 OFFCURVE",
"39 312 CURVE",
"27 239 LINE",
"93 194 OFFCURVE",
"162 131 OFFCURVE",
"229 52 CURVE",
"269 83 LINE",
"240 141 OFFCURVE",
"209 213 OFFCURVE",
"159 269 CURVE",
"206 324 OFFCURVE",
"249 395 OFFCURVE",
"275 445 CURVE"
);
},
{
closed = 1;
nodes = (
"437 476 LINE",
"383 413 OFFCURVE",
"304 351 OFFCURVE",
"240 312 CURVE",
"228 239 LINE",
"294 194 OFFCURVE",
"363 131 OFFCURVE",
"430 52 CURVE",
"470 83 LINE",
"441 141 OFFCURVE",
"410 213 OFFCURVE",
"360 269 CURVE",
"407 324 OFFCURVE",
"450 395 OFFCURVE",
"476 445 CURVE"
);
}
);
};
components = (
{
name = guilsinglleft;
},
{
name = guilsinglleft;
transform = "{1, 0, 0, 1, 201, 0}";
}
);
layerId = UUID0;
width = 509;
}
);
leftKerningGroup = guillemotleft;
rightKerningGroup = guillemotleft;
unicode = 00AB;
},
{
glyphname = logicalnot;
lastChange = "2016-06-05 15:23:08 +0000";
layers = (
{
background = {
paths = (
{
closed = 1;
nodes = (
"507 376 LINE",
"57 376 LINE",
"53 287 LINE",
"401 287 LINE",
"395 141 LINE",
"497 141 LINE"
);
}
);
};
hints = (
{
place = "{398, 104}";
},
{
horizontal = 1;
place = "{287, 89}";
},
{
horizontal = 1;
place = "{141, 21}";
target = up;
type = BottomGhost;
}
);
layerId = UUID0;
paths = (
{
closed = 1;
nodes = (
"507 376 LINE",
"57 376 LINE",
"53 287 LINE",
"401 287 LINE",
"395 141 LINE",
"497 141 LINE"
);
}
);
width = 582;
}
);
unicode = 00AC;
},
{
glyphname = uni00AD;
lastChange = "2016-06-05 15:23:08 +0000";
layers = (
{
background = {
paths = (
{
closed = 1;
nodes = (
"41 233 LINE",
"333 233 LINE",
"337 329 LINE",
"45 329 LINE"
);
}
);
};
hints = (
{
horizontal = 1;
place = "{233, 96}";
}
);
layerId = UUID0;
paths = (
{
closed = 1;
nodes = (
"41 233 LINE",
"333 233 LINE",
"337 329 LINE",
"45 329 LINE"
);
}
);
width = 377;
}
);
leftKerningGroup = hyphen;
rightKerningGroup = hyphen;
unicode = 00AD;
},
{
glyphname = registered;
lastChange = "2016-06-05 15:23:08 +0000";
layers = (
{
background = {
paths = (
{
closed = 1;
nodes = (
"244 598 LINE",
"246 598 LINE SMOOTH",
"272 598 OFFCURVE",
"291 613 OFFCURVE",
"291 640 CURVE SMOOTH",
"291 670 OFFCURVE",
"272 679 OFFCURVE",
"245 679 CURVE SMOOTH",
"228 679 LINE",
"222 495 LINE",
"252 490 LINE",
"250 469 LINE",
"142 469 LINE",
"144 490 LINE",
"174 494 LINE",
"181 679 LINE",
"153 683 LINE",
"158 703 LINE",
"252 703 LINE SMOOTH",
"306 703 OFFCURVE",
"341 688 OFFCURVE",
"341 646 CURVE SMOOTH",
"341 606 OFFCURVE",
"304 590 OFFCURVE",
"277 586 CURVE",
"277 583 LINE",
"305 576 OFFCURVE",
"316 564 OFFCURVE",
"326 535 CURVE SMOOTH",
"336 506 OFFCURVE",
"341 492 OFFCURVE",
"356 492 CURVE SMOOTH",
"363 492 OFFCURVE",
"368 494 OFFCURVE",
"375 497 CURVE",
"380 478 LINE",
"368 468 OFFCURVE",
"348 463 OFFCURVE",
"336 463 CURVE SMOOTH",
"296 463 OFFCURVE",
"286 491 OFFCURVE",
"272 534 CURVE SMOOTH",
"262 563 OFFCURVE",
"259 572 OFFCURVE",
"240 575 CURVE"
);
},
{
closed = 1;
nodes = (
"450 699 OFFCURVE",
"375 773 OFFCURVE",
"256 773 CURVE SMOOTH",
"148 773 OFFCURVE",
"61 699 OFFCURVE",
"61 579 CURVE SMOOTH",
"61 473 OFFCURVE",
"127 393 OFFCURVE",
"255 393 CURVE SMOOTH",
"369 393 OFFCURVE",
"450 472 OFFCURVE",
"450 586 CURVE SMOOTH"
);
}
);
};
hints = (
{
place = "{61, 116}";
},
{
place = "{225, 66}";
},
{
place = "{341, 109}";
},
{
horizontal = 1;
place = "{393, 76}";
},
{
horizontal = 1;
place = "{703, 70}";
}
);
layerId = UUID0;
paths = (
{
closed = 1;
nodes = (
"244 598 LINE",
"246 598 LINE SMOOTH",
"272 598 OFFCURVE",
"291 613 OFFCURVE",
"291 640 CURVE SMOOTH",
"291 670 OFFCURVE",
"272 679 OFFCURVE",
"245 679 CURVE SMOOTH",
"228 679 LINE",
"222 495 LINE",
"252 490 LINE",
"250 469 LINE",
"142 469 LINE",
"144 490 LINE",
"174 494 LINE",
"181 679 LINE",
"153 683 LINE",
"158 703 LINE",
"252 703 LINE SMOOTH",
"306 703 OFFCURVE",
"341 688 OFFCURVE",
"341 646 CURVE SMOOTH",
"341 606 OFFCURVE",
"304 590 OFFCURVE",
"277 586 CURVE",
"277 583 LINE",
"305 576 OFFCURVE",
"316 564 OFFCURVE",
"326 535 CURVE SMOOTH",
"336 506 OFFCURVE",
"341 492 OFFCURVE",
"356 492 CURVE SMOOTH",
"363 492 OFFCURVE",
"368 494 OFFCURVE",
"375 497 CURVE",
"380 478 LINE",
"368 468 OFFCURVE",
"348 463 OFFCURVE",
"336 463 CURVE SMOOTH",
"296 463 OFFCURVE",
"286 491 OFFCURVE",
"272 534 CURVE SMOOTH",
"262 563 OFFCURVE",
"259 572 OFFCURVE",
"240 575 CURVE"
);
},
{
closed = 1;
nodes = (
"450 699 OFFCURVE",
"375 773 OFFCURVE",
"256 773 CURVE SMOOTH",
"148 773 OFFCURVE",
"61 699 OFFCURVE",
"61 579 CURVE SMOOTH",
"61 473 OFFCURVE",
"127 393 OFFCURVE",
"255 393 CURVE SMOOTH",
"369 393 OFFCURVE",
"450 472 OFFCURVE",
"450 586 CURVE SMOOTH"
);
}
);
width = 463;
}
);
unicode = 00AE;
},
{
glyphname = macron;
lastChange = "2016-06-05 15:23:08 +0000";
layers = (
{
anchors = (
{
name = _top;
position = "{274, 550}";
}
);
background = {
paths = (
{
closed = 1;
nodes = (
"132 635 LINE",
"426 635 LINE",
"431 726 LINE",
"137 726 LINE"
);
}
);
};
hints = (
{
horizontal = 1;
place = "{635, 91}";
}
);
layerId = UUID0;
paths = (
{
closed = 1;
nodes = (
"132 635 LINE",
"426 635 LINE",
"431 726 LINE",
"137 726 LINE"
);
}
);
width = 500;
}
);
unicode = 00AF;
},
{
glyphname = degree;
lastChange = "2016-06-05 15:23:08 +0000";
layers = (
{
background = {
paths = (
{
closed = 1;
nodes = (
"44 598 OFFCURVE",
"85 545 OFFCURVE",
"179 545 CURVE SMOOTH",
"269 545 OFFCURVE",
"316 601 OFFCURVE",
"316 670 CURVE SMOOTH",
"316 741 OFFCURVE",
"271 790 OFFCURVE",
"183 790 CURVE SMOOTH",
"89 790 OFFCURVE",
"44 732 OFFCURVE",
"44 661 CURVE SMOOTH"
);
},
{
closed = 1;
nodes = (
"124 709 OFFCURVE",
"144 731 OFFCURVE",
"181 731 CURVE SMOOTH",
"210 731 OFFCURVE",
"237 717 OFFCURVE",
"237 669 CURVE SMOOTH",
"237 623 OFFCURVE",
"209 604 OFFCURVE",
"180 604 CURVE SMOOTH",
"146 604 OFFCURVE",
"124 623 OFFCURVE",
"124 667 CURVE SMOOTH"
);
}
);
};
hints = (
{
place = "{44, 80}";
},
{
place = "{237, 79}";
},
{
horizontal = 1;
place = "{545, 59}";
},
{
horizontal = 1;
place = "{731, 59}";
}
);
layerId = UUID0;
paths = (
{
closed = 1;
nodes = (
"44 598 OFFCURVE",
"85 545 OFFCURVE",
"179 545 CURVE SMOOTH",
"269 545 OFFCURVE",
"316 601 OFFCURVE",
"316 670 CURVE SMOOTH",
"316 741 OFFCURVE",
"271 790 OFFCURVE",
"183 790 CURVE SMOOTH",
"89 790 OFFCURVE",
"44 732 OFFCURVE",
"44 661 CURVE SMOOTH"
);
},
{
closed = 1;
nodes = (
"124 709 OFFCURVE",
"144 731 OFFCURVE",
"181 731 CURVE SMOOTH",
"210 731 OFFCURVE",
"237 717 OFFCURVE",
"237 669 CURVE SMOOTH",
"237 623 OFFCURVE",
"209 604 OFFCURVE",
"180 604 CURVE SMOOTH",
"146 604 OFFCURVE",
"124 623 OFFCURVE",
"124 667 CURVE SMOOTH"
);
}
);
width = 328;
}
);
unicode = 00B0;
},
{
glyphname = plusminus;
lastChange = "2016-06-05 15:23:08 +0000";
layers = (
{
background = {
paths = (
{
closed = 1;
nodes = (
"519 304 LINE",
"523 393 LINE",
"351 393 LINE",
"357 553 LINE",
"255 553 LINE",
"249 393 LINE",
"77 393 LINE",
"73 304 LINE",
"245 304 LINE",
"238 147 LINE",
"340 147 LINE",
"347 304 LINE"
);
},
{
closed = 1;
nodes = (
"512 0 LINE",
"516 89 LINE",
"70 89 LINE",
"66 0 LINE"
);
}
);
};
hints = (
{
place = "{252, 102}";
},
{
horizontal = 1;
place = "{0, 89}";
},
{
horizontal = 1;
place = "{304, 89}";
},
{
horizontal = 1;
place = "{553, -20}";
target = down;
type = TopGhost;
}
);
layerId = UUID0;
paths = (
{
closed = 1;
nodes = (
"519 304 LINE",
"523 393 LINE",
"351 393 LINE",
"357 553 LINE",
"255 553 LINE",
"249 393 LINE",
"77 393 LINE",
"73 304 LINE",
"245 304 LINE",
"238 147 LINE",
"340 147 LINE",
"347 304 LINE"
);
},
{
closed = 1;
nodes = (
"512 0 LINE",
"516 89 LINE",
"70 89 LINE",
"66 0 LINE"
);
}
);
width = 582;
}
);
unicode = 00B1;
},
{
glyphname = twosuperior;
lastChange = "2016-06-05 15:23:08 +0000";
layers = (
{
background = {
paths = (
{
closed = 1;
nodes = (
"256 788 OFFCURVE",
"273 755 OFFCURVE",
"273 715 CURVE SMOOTH",
"273 658 OFFCURVE",
"246 615 OFFCURVE",
"52 440 CURVE",
"57 374 LINE",
"376 374 LINE",
"391 529 LINE",
"345 529 LINE",
"328 473 OFFCURVE",
"312 459 OFFCURVE",
"255 459 CURVE SMOOTH",
"146 459 LINE",
"313 578 OFFCURVE",
"383 635 OFFCURVE",
"383 715 CURVE SMOOTH",
"383 790 OFFCURVE",
"326 837 OFFCURVE",
"218 837 CURVE SMOOTH",
"112 837 OFFCURVE",
"46 783 OFFCURVE",
"46 720 CURVE SMOOTH",
"46 693 OFFCURVE",
"62 666 OFFCURVE",
"99 666 CURVE SMOOTH",
"121 666 OFFCURVE",
"144 677 OFFCURVE",
"158 700 CURVE",
"142 720 LINE SMOOTH",
"114 755 OFFCURVE",
"139 788 OFFCURVE",
"195 788 CURVE SMOOTH"
);
}
);
};
hints = (
{
place = "{273, 110}";
},
{
horizontal = 1;
place = "{374, 85}";
},
{
horizontal = 1;
place = "{666, 171}";
},
{
horizontal = 1;
place = "{788, 49}";
}
);
layerId = UUID0;
paths = (
{
closed = 1;
nodes = (
"256 788 OFFCURVE",
"273 755 OFFCURVE",
"273 715 CURVE SMOOTH",
"273 658 OFFCURVE",
"246 615 OFFCURVE",
"52 440 CURVE",
"57 374 LINE",
"376 374 LINE",
"391 529 LINE",
"345 529 LINE",
"328 473 OFFCURVE",
"312 459 OFFCURVE",
"255 459 CURVE SMOOTH",
"146 459 LINE",
"313 578 OFFCURVE",
"383 635 OFFCURVE",
"383 715 CURVE SMOOTH",
"383 790 OFFCURVE",
"326 837 OFFCURVE",
"218 837 CURVE SMOOTH",
"112 837 OFFCURVE",
"46 783 OFFCURVE",
"46 720 CURVE SMOOTH",
"46 693 OFFCURVE",
"62 666 OFFCURVE",
"99 666 CURVE SMOOTH",
"121 666 OFFCURVE",
"144 677 OFFCURVE",
"158 700 CURVE",
"142 720 LINE SMOOTH",
"114 755 OFFCURVE",
"139 788 OFFCURVE",
"195 788 CURVE SMOOTH"
);
}
);
width = 389;
}
);
unicode = 00B2;
},
{
glyphname = threesuperior;
lastChange = "2016-06-05 15:23:08 +0000";
layers = (
{
background = {
paths = (
{
closed = 1;
nodes = (
"380 810 OFFCURVE",
"313 839 OFFCURVE",
"228 839 CURVE SMOOTH",
"138 839 OFFCURVE",
"64 800 OFFCURVE",
"64 739 CURVE SMOOTH",
"64 714 OFFCURVE",
"77 686 OFFCURVE",
"118 686 CURVE SMOOTH",
"142 686 OFFCURVE",
"162 704 OFFCURVE",
"169 722 CURVE",
"155 737 LINE SMOOTH",
"131 767 OFFCURVE",
"157 788 OFFCURVE",
"203 788 CURVE SMOOTH",
"243 788 OFFCURVE",
"275 768 OFFCURVE",
"275 726 CURVE SMOOTH",
"275 676 OFFCURVE",
"241 642 OFFCURVE",
"159 630 CURVE",
"166 582 LINE",
"181 585 OFFCURVE",
"202 588 OFFCURVE",
"217 588 CURVE SMOOTH",
"260 588 OFFCURVE",
"289 568 OFFCURVE",
"289 517 CURVE SMOOTH",
"289 463 OFFCURVE",
"252 415 OFFCURVE",
"179 415 CURVE SMOOTH",
"142 415 OFFCURVE",
"127 432 OFFCURVE",
"138 453 CURVE SMOOTH",
"150 476 LINE",
"143 488 OFFCURVE",
"120 502 OFFCURVE",
"98 502 CURVE SMOOTH",
"59 502 OFFCURVE",
"41 476 OFFCURVE",
"41 445 CURVE SMOOTH",
"41 382 OFFCURVE",
"113 362 OFFCURVE",
"174 362 CURVE SMOOTH",
"313 362 OFFCURVE",
"397 437 OFFCURVE",
"397 517 CURVE SMOOTH",
"397 588 OFFCURVE",
"357 613 OFFCURVE",
"287 622 CURVE",
"287 628 LINE",
"342 649 OFFCURVE",
"380 688 OFFCURVE",
"380 738 CURVE SMOOTH"
);
}
);
};
hints = (
{
place = "{275, 105}";
},
{
place = "{289, 91}";
},
{
place = "{289, 108}";
},
{
horizontal = 1;
place = "{362, 53}";
},
{
horizontal = 1;
place = "{686, 153}";
},
{
horizontal = 1;
place = "{788, 51}";
},
{
horizontal = 1;
place = "{362, 140}";
}
);
layerId = UUID0;
paths = (
{
closed = 1;
nodes = (
"380 810 OFFCURVE",
"313 839 OFFCURVE",
"228 839 CURVE SMOOTH",
"138 839 OFFCURVE",
"64 800 OFFCURVE",
"64 739 CURVE SMOOTH",
"64 714 OFFCURVE",
"77 686 OFFCURVE",
"118 686 CURVE SMOOTH",
"142 686 OFFCURVE",
"162 704 OFFCURVE",
"169 722 CURVE",
"155 737 LINE SMOOTH",
"131 767 OFFCURVE",
"157 788 OFFCURVE",
"203 788 CURVE SMOOTH",
"243 788 OFFCURVE",
"275 768 OFFCURVE",
"275 726 CURVE SMOOTH",
"275 676 OFFCURVE",
"241 642 OFFCURVE",
"159 630 CURVE",
"166 582 LINE",
"181 585 OFFCURVE",
"202 588 OFFCURVE",
"217 588 CURVE SMOOTH",
"260 588 OFFCURVE",
"289 568 OFFCURVE",
"289 517 CURVE SMOOTH",
"289 463 OFFCURVE",
"252 415 OFFCURVE",
"179 415 CURVE SMOOTH",
"142 415 OFFCURVE",
"127 432 OFFCURVE",
"138 453 CURVE SMOOTH",
"150 476 LINE",
"143 488 OFFCURVE",
"120 502 OFFCURVE",
"98 502 CURVE SMOOTH",
"59 502 OFFCURVE",
"41 476 OFFCURVE",
"41 445 CURVE SMOOTH",
"41 382 OFFCURVE",
"113 362 OFFCURVE",
"174 362 CURVE SMOOTH",
"313 362 OFFCURVE",
"397 437 OFFCURVE",
"397 517 CURVE SMOOTH",
"397 588 OFFCURVE",
"357 613 OFFCURVE",
"287 622 CURVE",
"287 628 LINE",
"342 649 OFFCURVE",
"380 688 OFFCURVE",
"380 738 CURVE SMOOTH"
);
}
);
width = 395;
}
);
unicode = 00B3;
},
{
glyphname = acute;
lastChange = "2016-06-05 15:23:08 +0000";
layers = (
{
anchors = (
{
name = _top;
position = "{274, 550}";
}
);
background = {
paths = (
{
closed = 1;
nodes = (
"192 612 LINE",
"223 580 LINE",
"406 703 LINE",
"416 760 OFFCURVE",
"389 792 OFFCURVE",
"353 792 CURVE SMOOTH",
"334 792 OFFCURVE",
"320 783 OFFCURVE",
"304 762 CURVE SMOOTH"
);
}
);
};
hints = (
{
horizontal = 1;
place = "{580, 21}";
target = up;
type = BottomGhost;
},
{
horizontal = 1;
place = "{792, -20}";
target = down;
type = TopGhost;
}
);
layerId = UUID0;
paths = (
{
closed = 1;
nodes = (
"192 612 LINE",
"223 580 LINE",
"406 703 LINE",
"416 760 OFFCURVE",
"389 792 OFFCURVE",
"353 792 CURVE SMOOTH",
"334 792 OFFCURVE",
"320 783 OFFCURVE",
"304 762 CURVE SMOOTH"
);
}
);
width = 500;
}
);
unicode = 00B4;
},
{
glyphname = paragraph;
lastChange = "2016-06-05 15:23:08 +0000";
layers = (
{
background = {
paths = (
{
closed = 1;
nodes = (
"319 -125 OFFCURVE",
"294 -135 OFFCURVE",
"261 -120 CURVE SMOOTH",
"211 -97 LINE",
"192 -124 OFFCURVE",
"184 -150 OFFCURVE",
"184 -171 CURVE SMOOTH",
"184 -206 OFFCURVE",
"213 -229 OFFCURVE",
"259 -229 CURVE SMOOTH",
"295 -229 OFFCURVE",
"327 -213 OFFCURVE",
"352 -184 CURVE SMOOTH",
"413 -113 OFFCURVE",
"453 14 OFFCURVE",
"457 122 CURVE SMOOTH",
"476 630 LINE",
"559 647 LINE",
"565 700 LINE",
"357 700 LINE",
"331 23 LINE SMOOTH",
"329 -18 OFFCURVE",
"329 -41 OFFCURVE",
"325 -74 CURVE SMOOTH"
);
},
{
closed = 1;
nodes = (
"313 700 LINE",
"301 700 LINE SMOOTH",
"120 700 OFFCURVE",
"24 615 OFFCURVE",
"24 435 CURVE SMOOTH",
"24 324 OFFCURVE",
"74 197 OFFCURVE",
"271 197 CURVE SMOOTH",
"287 197 LINE"
);
}
);
};
hints = (
{
place = "{344, 122}";
},
{
horizontal = 1;
place = "{-229, 21}";
target = up;
type = BottomGhost;
},
{
horizontal = 1;
place = "{700, -20}";
target = down;
type = TopGhost;
}
);
layerId = UUID0;
paths = (
{
closed = 1;
nodes = (
"319 -125 OFFCURVE",
"294 -135 OFFCURVE",
"261 -120 CURVE SMOOTH",
"211 -97 LINE",
"192 -124 OFFCURVE",
"184 -150 OFFCURVE",
"184 -171 CURVE SMOOTH",
"184 -206 OFFCURVE",
"213 -229 OFFCURVE",
"259 -229 CURVE SMOOTH",
"295 -229 OFFCURVE",
"327 -213 OFFCURVE",
"352 -184 CURVE SMOOTH",
"413 -113 OFFCURVE",
"453 14 OFFCURVE",
"457 122 CURVE SMOOTH",
"476 630 LINE",
"559 647 LINE",
"565 700 LINE",
"357 700 LINE",
"331 23 LINE SMOOTH",
"329 -18 OFFCURVE",
"329 -41 OFFCURVE",
"325 -74 CURVE SMOOTH"
);
},
{
closed = 1;
nodes = (
"313 700 LINE",
"301 700 LINE SMOOTH",
"120 700 OFFCURVE",
"24 615 OFFCURVE",
"24 435 CURVE SMOOTH",
"24 324 OFFCURVE",
"74 197 OFFCURVE",
"271 197 CURVE SMOOTH",
"287 197 LINE"
);
}
);
width = 578;
}
);
unicode = 00B6;
},
{
glyphname = periodcentered;
lastChange = "2016-06-05 15:23:08 +0000";
layers = (
{
background = {
paths = (
{
closed = 1;
nodes = (
"70 251 OFFCURVE",
"106 224 OFFCURVE",
"160 224 CURVE SMOOTH",
"214 224 OFFCURVE",
"256 252 OFFCURVE",
"256 305 CURVE SMOOTH",
"256 355 OFFCURVE",
"220 389 OFFCURVE",
"166 389 CURVE SMOOTH",
"112 389 OFFCURVE",
"70 355 OFFCURVE",
"70 304 CURVE SMOOTH"
);
}
);
};
components = (
{
name = period;
transform = "{1, 0, 0, 1, 8, 239}";
}
);
hints = (
{
place = "{74, 154}";
},
{
place = "{84, 154}";
},
{
horizontal = 1;
place = "{235, 151}";
},
{
horizontal = 1;
place = "{244, 151}";
}
);
layerId = UUID0;
width = 321;
}
);
unicode = 00B7;
},
